<?xml version="1.0" encoding="iso-8859-1"?>
<!-- Generator: Adobe Illustrator 19.0.0, SVG Export Plug-In . SVG Version: 6.00 Build 0)  -->
<svg version="1.1" id="Capa_1" xmlns="http://www.w3.org/2000/svg" xmlns:xlink="http://www.w3.org/1999/xlink" x="0px" y="0px"
	 viewBox="0 0 432 432" style="enable-background:new 0 0 432 432;" xml:space="preserve">
<path style="fill:#CDDCF0;" d="M216,0c-35.344,0-64,28.656-64,64v200.592c-19.6,17.576-32,43.016-32,71.408
	c0,53.016,42.984,96,96,96s96-42.984,96-96c0-28.4-12.4-53.832-32-71.408V64C280,28.656,251.344,0,216,0z"/>
<path style="fill:#BCCCE1;" d="M216,32c17.648,0,32,14.352,32,32v200.592v14.288l10.632,9.536C272.216,300.592,280,317.936,280,336
	c0,35.288-28.712,64-64,64s-64-28.712-64-64c0-18.064,7.784-35.408,21.368-47.592L184,278.872v-14.288V64
	C184,46.352,198.352,32,216,32"/>
<path style="fill:#D64231;" d="M248,280.88V144h-64v136.88c-19.048,11.088-32,31.496-32,55.12c0,35.344,28.656,64,64,64
	s64-28.656,64-64C280,312.368,267.048,291.96,248,280.88z"/>
<path style="fill:#B2382A;" d="M248,280.88V144h-32v192h-64c0,35.344,28.656,64,64,64s64-28.656,64-64
	C280,312.368,267.048,291.96,248,280.88z"/>
<g>
	<rect x="216" y="80" style="fill:#010101;" width="58.552" height="16"/>
	<rect x="216" y="128" style="fill:#010101;" width="58.552" height="16"/>
	<rect x="216" y="176" style="fill:#010101;" width="58.552" height="16"/>
	<rect x="216" y="224" style="fill:#010101;" width="58.552" height="16"/>
	<path style="fill:#010101;" d="M216,16c26.464,0,48,21.536,48,48v200.584v7.144l5.32,4.768C286.272,291.704,296,313.392,296,336
		c0,44.112-35.888,80-80,80s-80-35.888-80-80c0-22.608,9.728-44.296,26.68-59.504l5.32-4.768v-7.144V64
		C168,37.536,189.536,16,216,16 M216,0c-35.344,0-64,28.656-64,64v200.584C132.4,282.16,120,307.6,120,336c0,53.016,42.984,96,96,96
		s96-42.984,96-96c0-28.4-12.4-53.832-32-71.408V64C280,28.656,251.344,0,216,0z"/>
</g>
<g>
</g>
<g>
</g>
<g>
</g>
<g>
</g>
<g>
</g>
<g>
</g>
<g>
</g>
<g>
</g>
<g>
</g>
<g>
</g>
<g>
</g>
<g>
</g>
<g>
</g>
<g>
</g>
<g>
</g>
</svg>
