<?xml version="1.0" encoding="iso-8859-1"?>
<!-- Generator: Adobe Illustrator 19.0.0, SVG Export Plug-In . SVG Version: 6.00 Build 0)  -->
<svg version="1.1" id="Capa_1" xmlns="http://www.w3.org/2000/svg" xmlns:xlink="http://www.w3.org/1999/xlink" x="0px" y="0px"
	 viewBox="0 0 478.6 478.6" style="enable-background:new 0 0 478.6 478.6;" xml:space="preserve">
<polygon style="fill:#CDDCF0;" points="62.569,357.984 104.665,273.8 171.337,207.112 227.905,263.68 161.225,330.352 
	77.041,372.456 "/>
<path style="fill:#7BC24D;" d="M77.041,372.456l-14.472-14.472l40-78.448h109.472l-51.976,51.4L77.041,372.456z"/>
<path style="fill:#9ECD54;" d="M75.457,470.6c-6.432,0-12.464-2.488-16.968-6.992s-6.992-10.52-6.992-16.96
	s2.488-12.472,6.992-16.976l16.968-16.968l16.968,16.968c4.512,4.504,6.992,10.52,6.992,16.96s-2.488,12.472-6.992,16.976
	S81.897,470.6,75.457,470.6z"/>
<path style="fill:#010101;" d="M75.457,424.016l11.32,11.32c2.992,2.992,4.64,7,4.64,11.296s-1.648,8.32-4.656,11.328
	c-2.992,2.992-7,4.64-11.296,4.64s-8.32-1.648-11.32-4.656c-3-2.992-4.648-7-4.648-11.296s1.648-8.32,4.648-11.32L75.457,424.016
	 M75.457,401.392l-22.624,22.624c-12.448,12.448-12.448,32.816,0,45.248c6.224,6.224,14.432,9.336,22.632,9.336
	s16.4-3.112,22.616-9.336c12.448-12.448,12.448-32.816,0-45.248L75.457,401.392z"/>
<g>
	<path style="fill:#333333;" d="M386.713,27.656c-44.192-35.392-108.752-37.04-154.472-3.64
		c-38.752,28.312-56.208,72.248-52.576,114.744c1.256,14.704-3.216,29.296-13.648,39.728l-5.992,5.992
		c-6.248,6.248-6.248,16.376,0,22.624l67.88,67.88c6.248,6.248,16.376,6.248,22.624,0l6.648-6.648
		c10.112-10.112,24.28-14.328,38.52-13.048c36.448,3.272,74.008-8.976,101.912-36.872
		C451.001,165.032,447.369,76.224,386.713,27.656z"/>
	<path style="fill:#333333;" d="M239.217,271.68c-2.144,0-4.144-0.832-5.656-2.344l-67.88-67.88c-1.504-1.52-2.344-3.52-2.344-5.656
		s0.832-4.144,2.344-5.656l6-6c11.648-11.648,17.472-28.44,15.96-46.064c-3.6-42.176,14.832-82.408,49.328-107.6
		C257.089,15.776,281.281,8,306.889,8c27.392,0,53.968,9.2,74.832,25.896c27.248,21.816,43.296,52.84,45.2,87.36
		c1.872,34.056-10.872,67.408-34.968,91.504c-22.608,22.6-52.688,35.048-84.688,35.048c0,0,0,0-0.016,0
		c-3.608,0-7.232-0.16-10.832-0.488c-1.888-0.168-3.784-0.256-5.672-0.256c-15.232,0-29.168,5.544-39.232,15.616l-6.64,6.648
		C243.353,270.84,241.353,271.68,239.217,271.68z"/>
</g>
<path style="fill:#010101;" d="M386.713,27.656C363.769,9.28,335.329,0,306.897,0c-26.336,0-52.672,7.952-74.656,24.016
	c-38.752,28.312-56.208,72.248-52.576,114.744c1.256,14.704-3.224,29.296-13.656,39.728l-6,5.992
	c-6.248,6.248-6.248,16.384,0,22.632l-61.944,61.944l-45.232,90.512l22.624,22.624l90.512-45.264l61.936-61.936
	c3.12,3.12,7.216,4.688,11.312,4.688c4.096,0,8.192-1.56,11.312-4.688l6.648-6.648c8.936-8.936,21.056-13.272,33.584-13.272
	c1.64,0,3.288,0.072,4.944,0.224c3.84,0.344,7.696,0.52,11.552,0.52c32.712,0,65.4-12.432,90.36-37.392
	C451.001,165.032,447.369,76.224,386.713,27.656z M156.489,323.776L78.617,362.72l-6.32-6.312l38.928-77.872l48.792-48.792
	l11.312-11.312l45.256,45.256L156.489,323.776z M386.297,207.104c-21.088,21.088-49.16,32.704-79.048,32.704
	c-3.376,0-6.76-0.152-10.12-0.456c-2.128-0.192-4.256-0.288-6.376-0.288c-17.368,0-33.32,6.376-44.896,17.96l-6.648,6.648
	l-67.88-67.88l6-5.992c13.328-13.328,19.992-32.424,18.28-52.408c-3.368-39.368,13.856-76.928,46.072-100.464
	C260.425,23.24,282.977,16,306.897,16c25.584,0,50.376,8.576,69.816,24.144c25.448,20.376,40.44,49.344,42.216,81.56
	C420.681,153.488,408.785,184.616,386.297,207.104z"/>
<g>
</g>
<g>
</g>
<g>
</g>
<g>
</g>
<g>
</g>
<g>
</g>
<g>
</g>
<g>
</g>
<g>
</g>
<g>
</g>
<g>
</g>
<g>
</g>
<g>
</g>
<g>
</g>
<g>
</g>
</svg>
