<?xml version="1.0" encoding="iso-8859-1"?>
<!-- Generator: Adobe Illustrator 19.0.0, SVG Export Plug-In . SVG Version: 6.00 Build 0)  -->
<svg version="1.1" id="Capa_1" xmlns="http://www.w3.org/2000/svg" xmlns:xlink="http://www.w3.org/1999/xlink" x="0px" y="0px"
	 viewBox="0 0 480.256 480.256" style="enable-background:new 0 0 480.256 480.256;" xml:space="preserve">
<path style="fill:#AE4A25;" d="M240.12,8.024c-1.456,0-2.904,0.416-4.112,1.232C203.52,31.88,184.12,68.92,184.12,108.328v227.928
	c0,4.416,3.592,8,8,8h96c4.408,0,8-3.584,8-8V108.328c0-39.408-19.408-76.448-51.904-99.072
	C243.008,8.432,241.568,8.024,240.12,8.024z"/>
<path style="fill:#8D3C1E;" d="M236.008,9.256c-19.88,13.848-34.784,33.12-43.424,55h95.056c-8.64-21.88-23.544-41.152-43.432-55
	c-1.2-0.816-2.64-1.232-4.096-1.232C238.664,8.024,237.208,8.432,236.008,9.256z"/>
<g>
	<path style="fill:#ABABAB;" d="M360.12,113.824c-1.952,0-3.888,0.68-5.376,2.04c-16.92,15.456-26.624,37.472-26.624,60.392v160.072
		c0,4.376,3.56,7.928,7.936,7.928h48.128c4.376,0,7.936-3.552,7.936-7.928V176.256c0-22.92-9.704-44.936-26.608-60.392
		C364.024,114.504,362.072,113.824,360.12,113.824z"/>
	<path style="fill:#ABABAB;" d="M120.304,113.792c-1.936,0-3.872,0.688-5.376,2.072c-16.92,15.456-26.624,37.472-26.624,60.392
		v160.072c0,4.376,3.544,7.928,7.92,7.928h48.144c4.376,0,7.936-3.552,7.936-7.928V176.256c0-22.912-9.704-44.92-26.624-60.392
		C124.176,114.48,122.24,113.792,120.304,113.792z"/>
</g>
<g>
	<path style="fill:#5D6A76;" d="M216.072,344.256l-15.936,31.992l79.968,0.008l-16.16-32H216.072z"/>
	<path style="fill:#5D6A76;" d="M144.368,352.256H96.224c-8.8,0-15.928,7.128-15.928,15.928h80
		C160.296,359.384,153.168,352.256,144.368,352.256z"/>
	<path style="fill:#5D6A76;" d="M384.192,352.256h-48.144c-8.8,0-15.928,7.128-15.928,15.928h79.992
		C400.12,359.384,392.984,352.256,384.192,352.256z"/>
</g>
<g>
	<path style="fill:#FFFFFF;" d="M253.32,92.232c-7.224-7.224-19.184-7.224-26.4,0c-22.28,22.288-34.8,52.512-34.8,84.024v128
		c0,8.84,7.16,16,16,16h64c8.84,0,16-7.16,16-16v-128C288.12,144.744,275.6,114.52,253.32,92.232z"/>
	<path style="fill:#FFFFFF;" d="M336.224,235.704l-56.112-39.208v-20.24c0-29.6-11.528-57.432-32.456-78.368
		c-1.984-1.984-4.656-3.08-7.544-3.08s-5.56,1.096-7.544,3.08c-20.92,20.936-32.448,48.768-32.448,78.368v20.272l-56.112,39.168
		c-14.968,10.472-23.888,27.616-23.888,45.872v30.688h88h64h88v-30.68C360.12,263.32,351.192,246.168,336.224,235.704z"/>
</g>
<path style="fill:#F2F2F2;" d="M336.224,235.704l-56.112-39.768v-19.68c0-29.6-11.528-57.432-32.456-78.368
	c-1.984-1.984-4.656-3.08-7.544-3.08v217.448c27.352,0,52.52,0,120,0v-30.68C360.12,263.32,351.192,246.168,336.224,235.704z"/>
<path style="fill:#C2C2C2;" d="M336.224,235.704l-56.112-39.736l-0.008,116.288h80.016v-30.68
	C360.12,263.32,351.192,246.168,336.224,235.704z"/>
<polygon style="fill:#ABABAB;" points="304.12,213.264 280.12,196.496 280.104,312.256 304.12,312.256 "/>
<path style="fill:#010101;" d="M400.12,336.328V176.256c0-25.424-10.76-49.424-29.216-66.296c-3.024-2.768-6.904-4.152-10.784-4.152
	s-7.76,1.384-10.784,4.152c-18.456,16.872-29.216,40.872-29.216,66.296v38.4l-16-11.2V108.32c0-43.784-21.912-82.376-55.328-105.632
	C246.216,0.896,243.168,0,240.12,0s-6.096,0.896-8.672,2.688c-33.416,23.264-55.32,61.848-55.32,105.632v95.136l-15.832,11.072
	v-38.272c0-25.424-10.752-49.424-29.208-66.296c-3.024-2.768-6.904-4.152-10.784-4.152s-7.76,1.384-10.784,4.152
	c-18.464,16.872-29.216,40.872-29.216,66.296v160.072c0,8.8,7.128,15.928,15.928,15.928c-8.8,0-15.928,7.128-15.928,15.928h80
	c0-8.8-7.128-15.928-15.928-15.928c8.8,0,15.928-7.128,15.928-15.928v-16.072h15.824v16c0,8.832,7.168,16,16,16
	c3.928,0,7.496,0,11.032,0l-10.176,20.424c-2.672,5.32,1.192,11.576,7.144,11.576h79.976c5.952,0,9.816-6.256,7.16-11.576
	c-1.728-3.424-6.128-12.144-10.312-20.424c3.576,0,7.2,0,11.168,0c8.832,0,16-7.168,16-16v-16h16v16.072
	c0,8.8,7.136,15.928,15.928,15.928c-8.8,0-15.928,7.128-15.928,15.928h79.992c0-8.8-7.128-15.928-15.928-15.928
	C392.984,352.256,400.12,345.128,400.12,336.328z M352.12,281.576v22.68h-64v-92.472l43.528,30.464
	C344.464,251.232,352.12,265.928,352.12,281.576z M192.12,108.32c0-36.608,17.936-71.016,48-92.168
	c30.072,21.152,48,55.56,48,92.168v67.936c0-32.04-13.064-62.144-34.568-83.768c-0.08-0.08-0.152-0.176-0.232-0.264
	c-7.224-7.224-19.184-7.224-26.408,0c-0.08,0.08-0.152,0.176-0.232,0.264c-21.352,21.48-34.56,51.528-34.56,83.76
	C192.12,176.256,192.12,108.32,192.12,108.32z M240.12,224.056c-4.424,0-7.992,3.576-7.992,8v72.2H208.12v-128
	c0-9.136,1.288-18.056,3.584-26.656l8.2,6.08c0.08-0.104,7.832-10.096,20.216-10.096c13.184,0,19.704,9.36,19.936,9.688l8.512-5.536
	c2.272,8.56,3.56,17.432,3.56,26.52v128H248.12v-72.2C248.12,227.632,244.536,224.056,240.12,224.056z M215.456,138.104
	c3.696-9.256,8.752-17.944,15.064-25.848h19.2c6.2,7.768,11.208,16.288,14.888,25.368c-5.52-4.088-13.632-8.032-24.496-8.032
	C229.424,129.592,221.104,133.888,215.456,138.104z M148.592,242.256l43.536-30.472v92.472H128.12v-22.68
	C128.12,265.928,135.768,251.232,148.592,242.256z M144.368,336.256l-48.24,0.072V176.256c0-20.68,8.92-40.544,24.104-54.44
	c0.008,0,0.032-0.008,0.032-0.008c15.296,13.944,24.032,33.768,24.032,54.448l0.024,49.456l-4.904,3.432
	c-17.104,11.976-27.296,31.544-27.296,52.432v30.68c0,4.416,3.584,8,8,8h24.248L144.368,336.256z M192.12,336.256v-16
	c13.888,0,26.112,0,40,0v16C216.112,336.256,206.088,336.256,192.12,336.256z M213.048,368.256l7.976-16c13.32,0,24.928,0,38,0
	c1.168,2.312,4.992,9.888,8.08,16H213.048z M288.12,336.256c-14.936,0-25.064,0-40,0v-16c13.888,0,26.112,0,40,0V336.256z
	 M336.12,336.328v-16.072h24c4.416,0,8-3.584,8-8v-30.68c0-20.888-10.192-40.456-27.296-52.432l-4.704-3.288v-49.6
	c0-20.68,8.752-40.536,23.936-54.44c0.008,0,0.032-0.008,0.032-0.008c15.296,13.952,24.032,33.768,24.032,54.448l0.072,160
	L336.12,336.328z"/>
<path style="fill:#CDDBEC;" d="M140.12,464.16l8.064,4.704c16.424,9.568,35.92-3.32,35.936-20.608c0-13.216-10.752-23.992-23.968-24
	l-8-0.008l-0.032-39.992h-64v40h-8c-13.232,0-24,10.768-24,24c0,17.248,19.264,30.192,35.856,20.648l8.048-4.664
	c6.68,3.904,12.392,8.016,20.096,8.016C127.952,472.256,133.208,468.208,140.12,464.16z"/>
<path style="fill:#010101;" d="M160.128,416.256v-32h-16v36.536c-1.384,0.824-2.752,1.664-3.992,2.68
	c-3.488-2.824-7.528-4.92-12.008-6.08v-33.136h-16v33.128c-4.48,1.16-8.52,3.264-12.016,6.088c-1.2-0.976-2.656-1.8-3.984-2.6
	v-36.616H80.264v32.016l-0.136-0.016c-17.672,0-32,14.328-32,32s14.328,32,32,32c7.616,0,14.512-2.76,19.984-7.216
	c5.496,4.44,12.4,7.216,20.016,7.216s14.52-2.768,20.008-7.216c5.464,4.464,12.376,7.216,19.992,7.216c17.672,0,32-14.328,32-32
	S177.8,416.256,160.128,416.256z M64.128,448.256c0-8.824,7.176-16,16-16c4,0,7.552,1.616,10.36,4.048
	c-1.496,3.696-2.36,7.72-2.36,11.952s0.864,8.256,2.36,11.952c-2.808,2.432-6.36,4.048-10.36,4.048
	C71.304,464.256,64.128,457.08,64.128,448.256z M120.128,464.256c-8.824,0-16-7.176-16-16s7.176-16,16-16s16,7.176,16,16
	S128.952,464.256,120.128,464.256z M160.128,464.256c-4.008,0-7.576-1.6-10.36-4.048c1.496-3.696,2.36-7.72,2.36-11.952
	s-0.864-8.256-2.36-11.952c2.784-2.448,6.352-4.048,10.36-4.048c8.824,0,16,7.176,16,16S168.952,464.256,160.128,464.256z"/>
<path style="fill:#CDDBEC;" d="M380.152,464.16l8.064,4.704c16.424,9.568,35.92-3.32,35.936-20.608
	c0-13.216-10.752-23.992-23.968-24l-8-0.008l-0.032-39.992h-64v40h-8c-13.232,0-24,10.768-24,24
	c0,17.248,19.264,30.192,35.856,20.648l8.048-4.664c6.68,3.904,12.392,8.016,20.096,8.016
	C367.992,472.256,373.24,468.208,380.152,464.16z"/>
<path style="fill:#010101;" d="M400.128,416.256v-32h-16v36.536c-1.384,0.824-2.752,1.664-3.992,2.68
	c-3.488-2.824-7.528-4.92-12.008-6.08v-33.136h-16v33.128c-4.48,1.16-8.52,3.264-12.016,6.088c-1.2-0.976-2.656-1.8-3.984-2.6
	v-36.616h-15.856v32.016c0,0-0.096-0.016-0.144-0.016c-17.672,0-32,14.328-32,32s14.328,32,32,32c7.616,0,14.512-2.76,19.984-7.216
	c5.496,4.44,12.4,7.216,20.016,7.216s14.512-2.768,20.008-7.216c5.472,4.464,12.376,7.216,19.992,7.216c17.672,0,32-14.328,32-32
	S417.8,416.256,400.128,416.256z M304.128,448.256c0-8.824,7.176-16,16-16c4,0,7.552,1.616,10.36,4.048
	c-1.496,3.696-2.36,7.72-2.36,11.952s0.864,8.256,2.36,11.952c-2.808,2.432-6.36,4.048-10.36,4.048
	C311.304,464.256,304.128,457.08,304.128,448.256z M360.128,464.256c-8.824,0-16-7.176-16-16s7.176-16,16-16s16,7.176,16,16
	S368.952,464.256,360.128,464.256z M400.128,464.256c-4.008,0-7.576-1.6-10.36-4.048c1.496-3.696,2.36-7.72,2.36-11.952
	s-0.864-8.256-2.36-11.952c2.784-2.448,6.352-4.048,10.36-4.048c8.824,0,16,7.176,16,16S408.952,464.256,400.128,464.256z"/>
<g>
</g>
<g>
</g>
<g>
</g>
<g>
</g>
<g>
</g>
<g>
</g>
<g>
</g>
<g>
</g>
<g>
</g>
<g>
</g>
<g>
</g>
<g>
</g>
<g>
</g>
<g>
</g>
<g>
</g>
</svg>
