<?xml version="1.0" encoding="iso-8859-1"?>
<!-- Generator: Adobe Illustrator 19.0.0, SVG Export Plug-In . SVG Version: 6.00 Build 0)  -->
<svg version="1.1" id="Capa_1" xmlns="http://www.w3.org/2000/svg" xmlns:xlink="http://www.w3.org/1999/xlink" x="0px" y="0px"
	 viewBox="0 0 427.408 427.408" style="enable-background:new 0 0 427.408 427.408;" xml:space="preserve">
<path style="fill:#EEEDED;" d="M213.704,8.016c-1.456,0-2.904,0.416-4.112,1.232c-32.48,22.624-51.888,59.664-51.888,99.072v147.928
	c0,4.416,3.592,8,8,8h96c4.408,0,8-3.584,8-8V108.32c0-39.408-19.408-76.448-51.904-99.072
	C216.592,8.432,215.16,8.016,213.704,8.016z"/>
<path style="fill:#DFDCDC;" d="M261.704,264.248c4.408,0,8-3.584,8-8V108.32c0-39.408-19.408-76.448-51.904-99.072
	c-1.2-0.824-2.64-1.232-4.096-1.232v256.232H261.704z"/>
<path style="fill:#D0CCCC;" d="M219.992,195.192h-6.288v69.056h48c4.408,0,8-3.584,8-8v-11.336L219.992,195.192z"/>
<circle style="fill:#7F8EA0;" cx="213.704" cy="144.032" r="23.832"/>
<path style="fill:#CB5741;" d="M161.096,80.2H266.32c-6.856-28.424-23.904-53.824-48.512-70.944C216.648,8.448,215.192,8,213.704,8
	s-2.944,0.448-4.104,1.248C185,26.376,167.952,51.776,161.096,80.2z"/>
<g>
	<path style="fill:#115081;" d="M93.704,264.248v-10.744c0-6.408,2.496-12.44,7.032-16.976l57-56.984l-0.032,60.712
		c0,13.224-10.768,23.992-24,23.992H93.704z"/>
	<path style="fill:#115081;" d="M293.704,264.248c-13.232,0-24-10.768-24-23.992l-0.032-60.712l57,56.984
		c4.536,4.544,7.032,10.576,7.032,16.976v10.744H293.704z"/>
</g>
<path style="fill:#ECC02F;" d="M229.704,288.2h-32c-12.8,12.296-32,27.104-32,48c0,32.048,15.92,47.92,48,80
	c32.072-32.072,48-47.952,48-80C261.704,315.304,239.528,296.984,229.704,288.2z"/>
<polygon style="fill:#5C6976;" points="178.64,296.2 194.544,264.248 232.8,264.248 248.768,296.2 "/>
<path style="fill:#E4753B;" d="M197.832,304.248c0,0-12.168,24.152,0.368,42.752c9.376,13.912,15.424,21.136,15.504,21.248
	c0.08-0.112,6.128-7.344,15.504-21.248c12.536-18.6,0.376-42.752,0.376-42.752H197.832z"/>
<g>
	<path style="fill:#010101;" d="M213.704,112.2c-17.552,0-31.832,14.28-31.832,31.832s14.28,31.832,31.832,31.832
		s31.832-14.28,31.832-31.832S231.256,112.2,213.704,112.2z M213.704,159.864c-8.728,0-15.832-7.104-15.832-15.832
		s7.104-15.832,15.832-15.832s15.832,7.104,15.832,15.832S222.432,159.864,213.704,159.864z"/>
	<path style="fill:#010101;" d="M332.328,230.88l-54.624-54.632v-67.936c0-43.792-21.92-82.376-55.328-105.632
		C219.8,0.896,216.752,0,213.704,0s-6.096,0.896-8.672,2.688c-33.408,23.256-55.328,61.84-55.328,105.632v67.928L95.08,230.88
		c-6.008,6-9.376,14.136-9.376,22.624v18.744h48.008c7.304,0,13.96-2.544,19.344-6.664c2.912,3.944,7.368,6.664,12.648,6.664h15.936
		l-10.144,20.376c-1.592,3.184-0.672,6.552,1.456,8.864c-8.36,9.512-15.248,20.68-15.248,34.712c0,34.64,16.72,53.368,56,91.208
		c36.312-36.312,56-54.152,56-91.208c0-13.336-7.032-25.144-15.184-34.776c2.088-2.312,2.976-5.648,1.392-8.8l-10.168-20.376h15.96
		c5.28,0,9.736-2.72,12.648-6.664c5.384,4.12,12.04,6.664,19.344,6.664h48.008v-18.744
		C341.704,245.016,338.336,236.88,332.328,230.88z M149.704,240.288c-0.024,8.808-7.184,15.96-15.992,15.96h-32.008v-2.744
		c0-4.272,1.664-8.288,4.688-11.312l43.312-43.312V240.288z M213.704,16.152C235.888,31.76,251.4,54.648,258.04,80.248h-88.672
		C176.008,54.648,191.52,31.76,213.704,16.152z M253.704,336.2c0,26.912-12.56,41.144-40,68.68c-27.424-27.512-40-41.744-40-68.68
		c0-12.336,9.104-22.824,18.632-32h13.368v12.216c0,4.424,3.576,8,8,8s8-3.576,8-8V304.2h13.624
		C244.2,312.912,253.704,324.48,253.704,336.2z M191.568,288.2l7.944-15.952h28.352l7.968,15.952H191.568z M261.704,256.248
		c-13.888,0-26.112,0-40,0V200.2c0-4.424-3.576-8-8-8s-8,3.576-8,8v56.048c-13.888,0-26.112,0-40,0c0-39.512,0.048-50.848,0-147.928
		c0-4.08,0.304-8.112,0.736-12.12h94.52c0.44,4.008,0.744,8.04,0.744,12.12C261.704,133.128,261.704,244.4,261.704,256.248z
		 M325.704,256.248h-32.008c-8.808,0-15.968-7.16-15.992-15.96V198.88l43.312,43.312c3.024,3.024,4.688,7.04,4.688,11.312V256.248z"
		/>
	<circle style="fill:#010101;" cx="213.704" cy="340.408" r="8"/>
	<circle style="fill:#010101;" cx="213.704" cy="361.448" r="5"/>
</g>
<g>
</g>
<g>
</g>
<g>
</g>
<g>
</g>
<g>
</g>
<g>
</g>
<g>
</g>
<g>
</g>
<g>
</g>
<g>
</g>
<g>
</g>
<g>
</g>
<g>
</g>
<g>
</g>
<g>
</g>
</svg>
