<?xml version="1.0" encoding="iso-8859-1"?>
<!-- Generator: Adobe Illustrator 19.0.0, SVG Export Plug-In . SVG Version: 6.00 Build 0)  -->
<svg version="1.1" id="Capa_1" xmlns="http://www.w3.org/2000/svg" xmlns:xlink="http://www.w3.org/1999/xlink" x="0px" y="0px"
	 viewBox="0 0 464.008 464.008" style="enable-background:new 0 0 464.008 464.008;" xml:space="preserve">
<path style="fill:#F3F3F3;" d="M317.86,169.832c-3.544-2.472-8.264-2.432-11.72,0.008c-21.368,14.92-34.136,39.4-34.136,65.472
	v-51.408l16-31.24V105.44c0-33.864-13.184-65.712-37.144-89.672c-10-10.016-27.72-10.016-37.72,0
	c-23.952,23.952-37.136,55.792-37.136,89.672v47.224l16,31.24v51.408c0-26.08-12.768-50.56-34.144-65.488
	c-3.544-2.472-8.264-2.432-11.72,0.008c-21.368,14.928-34.136,39.4-34.136,65.48V440c181.344,0,61.016,0,240,0V235.312
	C352.004,209.24,339.236,184.752,317.86,169.832z"/>
<path style="fill:#CDCCCC;" d="M112.004,368c-9.832,11.256-16,25.808-16,41.928V440h32v-30.072
	C128.004,393.808,121.836,379.256,112.004,368z"/>
<rect x="120.004" y="240" style="fill:#DEDEDD;" width="64" height="16"/>
<path style="fill:#CDCCCC;" d="M352.004,368V235.312c0-35.184-20-53.984-40-67.312v264h24h16h16v-22.072
	C368.004,393.808,361.836,379.256,352.004,368z"/>
<g>
	<rect x="280.004" y="240" style="fill:#DEDEDD;" width="64" height="16"/>
	<rect x="120.004" y="336" style="fill:#DEDEDD;" width="64" height="16"/>
	<rect x="280.004" y="336" style="fill:#DEDEDD;" width="64" height="16"/>
</g>
<g>
	<path style="fill:#CDCCCC;" d="M288.004,152.664V105.44c0-33.864-13.184-65.72-37.128-89.68c-5.016-5-11.712-7.76-18.872-7.76
		v144.664h-52.656l16,32h36.656V432h24h16h16v-22.072c0-16.12-6.168-30.672-16-41.928V184.664L288.004,152.664z"/>
	<path style="fill:#CDCCCC;" d="M192.004,368V235.312c0-35.184-20-53.984-40-67.312v272h56v-30.072
		C208.004,393.808,201.836,379.256,192.004,368z"/>
</g>
<path style="fill:#010101;" d="M376.004,409.928c0-16.072-5.784-31.664-16-44.48c0-18.528,0-111.808,0-130.144
	c0-28.68-14.032-55.608-37.536-72.032c-3.08-2.136-6.688-3.272-10.464-3.272c-3.768,0-7.384,1.136-10.456,3.28
	c-8.512,5.944-15.736,13.304-21.552,21.584v-5.016l14.248-27.904l1.76-3.432v-3.848V105.44c0-36-14.016-69.856-39.472-95.328
	C250.012,3.592,241.3,0,232.004,0s-18.008,3.592-24.528,10.112c-25.456,25.464-39.472,59.32-39.472,95.32v39.232v3.848l1.752,3.424
	l14.248,27.912v5.016c-5.816-8.28-13.032-15.64-21.536-21.584c-3.08-2.144-6.688-3.28-10.464-3.28c-3.768,0-7.384,1.136-10.456,3.28
	c-23.504,16.416-37.544,43.344-37.544,72.032c0,48.6,0,81.352,0,130.144c-10.216,12.816-16,28.4-16,44.48
	c0,13.024,0,24.768,0,38.072h24l-8,16h32l-8-16h16l-8,16h32l-8-16h16l-8,16h32l-8-16h32l-8,16h32l-8-16h32l-8,16h32l-8-16h16l-8,16
	h32l-8-16h16l-8,16h32l-8-16h24C376.004,434.696,376.004,422.952,376.004,409.928z M310.716,176.392
	c0.376-0.264,0.832-0.392,1.288-0.392s0.912,0.136,1.296,0.4c19.216,13.416,30.704,35.4,30.704,58.912V240h-64v-4.688
	C280.004,211.8,291.492,189.816,310.716,176.392z M344.004,256v80h-64v-80H344.004z M184.004,105.432
	c0-31.512,12.52-61.728,34.792-84.016c3.608-3.608,8.408-5.416,13.208-5.416c4.8,0,9.6,1.808,13.208,5.424
	c22.272,22.28,34.792,52.504,34.792,84.016V144h-96V105.432z M272.172,160l-8.168,16h-64l-8.168-16H272.172z M120.004,235.312
	c0-23.504,11.488-45.488,30.712-58.912c0.376-0.272,0.832-0.4,1.288-0.4s0.912,0.136,1.296,0.4
	c19.216,13.416,30.704,35.4,30.704,58.912V240h-64V235.312z M120.004,256h64v80h-64V256z M104.004,432v-22.072
	c0-10.144,2.736-19.832,8-28.472c5.264,8.656,8,18.336,8,28.472V432H104.004z M168.004,409.928V432h-32v-22.072
	c0-16.056-5.792-31.656-16-44.488v-13.576c17.784-0.024,46.24,0.032,64,0.08v13.488
	C173.788,378.272,168.004,393.872,168.004,409.928z M200.004,432h-16v-22.072c0-10.136,2.736-19.816,8-28.472
	c5.264,8.64,8,18.328,8,28.472V432z M248.004,432h-32v-22.072c0-16.072-5.784-31.664-16-44.48c0-16.576,0-154.808,0-173.448h64
	c0,39.96,0,54.792,0,59.728c0,1.872,0,2.392,0,2.208c0,6.656,0,31.44,0,111.52c-10.216,12.816-16,28.4-16,44.48V432z M264.004,432
	v-22.072c0-10.144,2.736-19.832,8-28.472c5.264,8.656,8,18.336,8,28.472V432H264.004z M328.004,409.928V432h-32v-22.072
	c0-16.056-5.792-31.656-16-44.488V352h64v13.448C333.788,378.272,328.004,393.872,328.004,409.928z M360.004,432h-16v-22.072
	c0-10.136,2.736-19.816,8-28.472c5.264,8.64,8,18.328,8,28.472V432z"/>
<g>
	<circle style="fill:#7AA2CE;" cx="232.004" cy="216" r="8"/>
	<path style="fill:#7AA2CE;" d="M236.004,240h-12v16h16v-12C240.004,241.792,238.212,240,236.004,240z"/>
	<polygon style="fill:#7AA2CE;" points="224.004,288 240.004,288 232.004,272 	"/>
	<path style="fill:#7AA2CE;" d="M224.004,308v8c0,2.208,1.792,4,4,4h12v-16h-12C225.788,304,224.004,305.792,224.004,308z"/>
	<rect x="224.004" y="336" style="fill:#7AA2CE;" width="16" height="16"/>
	<rect x="224.004" y="368" style="fill:#7AA2CE;" width="16" height="16"/>
</g>
<g>
</g>
<g>
</g>
<g>
</g>
<g>
</g>
<g>
</g>
<g>
</g>
<g>
</g>
<g>
</g>
<g>
</g>
<g>
</g>
<g>
</g>
<g>
</g>
<g>
</g>
<g>
</g>
<g>
</g>
</svg>
