<?xml version="1.0" encoding="iso-8859-1"?>
<!-- Generator: Adobe Illustrator 19.0.0, SVG Export Plug-In . SVG Version: 6.00 Build 0)  -->
<svg version="1.1" id="Capa_1" xmlns="http://www.w3.org/2000/svg" xmlns:xlink="http://www.w3.org/1999/xlink" x="0px" y="0px"
	 viewBox="0 0 447.992 447.992" style="enable-background:new 0 0 447.992 447.992;" xml:space="preserve">
<path style="fill:#C23E28;" d="M40.223,168C45.143,81.872,128.895,8,223.991,8s178.84,73.872,183.768,160H40.223z"/>
<path style="fill:#F0EEEE;" d="M156.727,168c3.952-48.096,18.184-123.832,67.56-157.16c49.08,32.704,63.144,108.784,67.016,157.16
	H156.727z"/>
<path style="fill:#ABABAB;" d="M183.991,328v-40c0-4.416,3.592-8,8-8h64c4.408,0,8,3.584,8,8v40H183.991z"/>
<path style="fill:#F0EEEE;" d="M223.991,440c-81.264,0-88-11.352-88-24c0-27.496,29.672-70.328,43.8-88h88.376
	c9.36,11.84,43.832,57.56,43.832,88C311.991,428.64,305.255,440,223.991,440z"/>
<path style="fill:#ABABAB;" d="M223.991,440c-81.264,0-88-11.352-88-24c0-2.424,0.248-5.104,0.752-8h174.496
	c0.496,2.896,0.752,5.576,0.752,8C311.991,428.64,305.255,440,223.991,440z"/>
<g>
	<rect x="215.991" y="191.992" style="fill:#010101;" width="16" height="64"/>
	<path style="fill:#010101;" d="M223.991,0C125.351,0,38.687,75.424,32.407,165.544c-0.384,5.48,2.08,10.808,6.52,14.048
		L177.743,281.04c-1.048,2.12-1.752,4.432-1.752,6.952v32c-18.04,21.664-48,66.408-48,96c0,21.208,16,32,96,32
		c80.008,0,96-10.792,96-32c0-29.336-29.632-73.944-48-96v-32c0-2.528-0.704-4.832-1.752-6.952l138.432-100.648
		c4.704-3.424,7.312-9.024,6.912-14.832C409.311,75.432,322.639,0,223.991,0z M224.319,20.72
		c30.936,23.88,51.664,73.448,58.24,139.272H165.503C172.207,94.544,193.135,44.976,224.319,20.72z M204.231,17.224
		c-32.824,32.528-49.248,86.928-54.768,142.768H48.959C57.695,87.56,124.783,26.144,204.231,17.224z M223.991,431.992
		c-80,0-80-11.208-80-16h160C303.991,420.776,303.991,431.992,223.991,431.992z M300.911,399.992H147.023
		c7.024-22.4,25.304-49.328,36.656-64h80.616C275.327,350.312,293.791,377.528,300.911,399.992z M191.991,319.992v-32h64v32H191.991
		z M255.991,271.584v0.408h-0.56h-62.88h-0.56v-0.408L59.255,175.992h329.472L255.991,271.584z M298.599,159.992
		c-5.376-55.816-21.448-110.288-54.048-142.656c79.096,9.24,145.76,70.472,154.472,142.656H298.599z"/>
	<circle style="fill:#010101;" cx="223.991" cy="367.992" r="16"/>
</g>
<g>
</g>
<g>
</g>
<g>
</g>
<g>
</g>
<g>
</g>
<g>
</g>
<g>
</g>
<g>
</g>
<g>
</g>
<g>
</g>
<g>
</g>
<g>
</g>
<g>
</g>
<g>
</g>
<g>
</g>
</svg>
