<?xml version="1.0" encoding="iso-8859-1"?>
<!-- Generator: Adobe Illustrator 19.0.0, SVG Export Plug-In . SVG Version: 6.00 Build 0)  -->
<svg version="1.1" id="Capa_1" xmlns="http://www.w3.org/2000/svg" xmlns:xlink="http://www.w3.org/1999/xlink" x="0px" y="0px"
	 viewBox="0 0 464.52 464.52" style="enable-background:new 0 0 464.52 464.52;" xml:space="preserve">
<path style="fill:#367B49;" d="M121.676,351.72c-45.432,44.52-57.056,59.576-57.056,88.824c0,8.832,7.152,16,16,16
	c8.848,0,16-7.168,16-16c0-16.824,7.488-26.8,48-66.496C136.644,366.224,129.436,359.24,121.676,351.72z"/>
<path style="fill:#A0BBDC;" d="M162.66,392.016h-58.448c-8.84,0-16,7.168-16,16s7.152,16,16,16h84.64
	C184.892,416.096,177.084,406.752,162.66,392.016z"/>
<path style="fill:#CDDBEC;" d="M167.764,351.528C125.1,311.28,80.796,274.056,80.796,232.336c0-36.856,37.064-71.552,63.728-97.208
	c1.048,1.016,2.264,2.184,3.328,3.216c2.312-6.576,5.928-12.792,11.184-18.048l33.944-33.944l0.12,0.12
	c21.032-23.336,31.52-41.408,31.52-62.456c0-8.84-7.16-16-16-16s-16,7.168-16,16c0,16.104-13.448,32.448-48.008,66.528
	C108.052,54.64,96.62,40.592,96.62,24.016c0-8.832-7.152-16-16-16c-8.848,0-16,7.168-16,16c0,28.616,16.488,49.048,56.944,88.808
	c-28.736,27.632-72.768,68.96-72.768,119.512c0,91.44,143.832,156.872,143.832,208.208c0,8.832,7.16,16,16,16s16-7.168,16-16
	C224.628,409.376,198.052,380.392,167.764,351.528z"/>
<g>
	<path style="fill:#A0BBDC;" d="M203.196,207.352c-0.48-1.2-0.992-2.4-1.536-3.6c-0.336-0.752-0.648-1.496-1.008-2.248
		c-14.696,2.368-30.28-1.992-41.608-13.32c-3.64-3.64-6.36-7.808-8.584-12.16c-18.888,0-38.664,0-61.112,0c-8.848,0-16,7.168-16,16
		s7.152,16,16,16c42.36,0,74.824,0,110.56,0C201.076,208.016,202.108,207.608,203.196,207.352z"/>
	<path style="fill:#A0BBDC;" d="M203.748,256.016c-31.512,0-82.328,0-114.4,0c-8.848,0-16,7.168-16,16s7.152,16,16,16
		c36.112,0,65.048,0,94.944,0C192.428,278.096,199.42,267.48,203.748,256.016z"/>
	<path style="fill:#A0BBDC;" d="M126.156,72.016h58.136c8.84,0,16-7.168,16-16s-7.16-16-16-16H100.62
		C104.86,48.488,112.86,58.24,126.156,72.016z"/>
</g>
<path style="fill:#0B9156;" d="M376.652,270.032c-18.024-18.024-46.704-18.528-65.552-1.904
	c-15.56-7.808-30.928-11.704-46.568-11.712c-0.52,0-0.992,0.128-1.504,0.144l39.312-39.312c24.536,14.44,56.536,11.352,77.6-9.712
	c11.608-11.608,20.232-27.616,20.208-42.84v-67.88h-67.88c-15.224-0.024-31.224,8.6-42.84,20.208
	c-21.064,21.064-24.152,53.064-9.712,77.6l-39.408,39.408c0.008-0.576,0.16-1.112,0.16-1.696c-0.008-15.6-3.896-30.928-11.664-46.44
	c16.664-18.848,16.16-47.56-1.872-65.592L192.988,86.36l-33.944,33.944c-18.744,18.744-18.744,49.136,0,67.88
	c11.344,11.344,26.944,15.712,41.664,13.32c5.064,10.568,7.744,20.776,7.744,30.84c0.008,37.16-33.368,66.408-57.312,90.848
	c7.784,7.328,15.632,14.64,23.296,21.952c25.528-25.528,53.888-56.736,90.088-56.728c10.096,0,20.336,2.688,30.928,7.784
	c-2.408,14.728,1.952,30.352,13.312,41.712c18.744,18.744,49.136,18.744,67.88,0l33.944-33.944L376.652,270.032z"/>
<g>
	<path style="fill:#367B49;" d="M400.14,164.696v-67.88l-93.32,93.32c-10.408,10.408-6.248,28.288,7.728,32.904
		c22.232,7.344,47.696,2.176,65.384-15.512C391.548,195.92,400.164,179.92,400.14,164.696z"/>
	<path style="fill:#367B49;" d="M376.652,270.032c-18.024-18.024-46.704-18.528-65.552-1.904c-17.144-8.6-32.448-11.84-57.04-13.6
		l-66.016,66.016c28.728-16.272,51.296-32.128,76.48-32.128c10.096,0,20.336,2.688,30.928,7.784
		c-2.408,14.728,1.952,30.352,13.312,41.712c18.744,18.744,49.136,18.744,67.88,0l33.944-33.944L376.652,270.032z"/>
</g>
<path style="fill:#010101;" d="M382.316,264.376c-19.488-19.504-50.28-21.544-72.28-5.624c-9.688-4.424-19.264-7.4-28.904-8.984
	l22.688-22.688c27.344,13.088,60.184,7.728,81.784-13.888c28.168-28.152,22.544-46.76,22.544-124.376
	c-66.384,0-94.272-7.544-124.376,22.552c-21.624,21.624-26.952,54.456-13.904,81.776l-22.736,22.744
	c-1.56-9.64-4.528-19.216-8.952-28.912c15.968-22.008,13.92-52.816-5.592-72.328l-27.496-27.496
	c19.584-22.296,29.36-40.312,29.36-63.152c0-13.232-10.768-24-24-24s-24,10.768-24,24c0,2.592-0.488,5.224-1.432,8h-77.184
	c-0.912-2.752-1.384-5.376-1.384-8c0-13.232-10.768-24-24-24c-13.232,0-24,10.768-24,24c0,30.008,16.344,51.632,53.6,88.76
	c-29.4,28.216-69.432,66.824-69.432,119.544c0,46.688,33.48,85.432,69.08,119.832c-39.824,39.36-53.256,56.608-53.256,88.384
	c0,13.232,10.768,24,24,24c13.232,0,24-10.768,24-24c0-2.936,0.352-5.648,1.256-8.52h76.992c1.048,2.944,1.752,5.816,1.752,8.52
	c0,13.232,10.768,24,24,24s24-10.768,24-24c0-32.76-30.104-68.736-54.264-89.776c25.104-24.992,51.624-54.328,84.352-54.328
	c7.16,0.008,14.512,1.56,22.36,4.744c-0.8,15.736,5.048,31.224,16.216,42.416c10.92,10.912,25.264,16.376,39.592,16.376
	c14.344,0,28.688-5.464,39.608-16.376l39.592-39.592L382.316,264.376z M202.452,23.992c0-4.416,3.592-8,8-8s8,3.584,8,8
	c0,10.44-2.696,19.8-8.536,29.976c-0.608-7.096-4.232-13.296-9.672-17.28C201.58,32.496,202.452,28.336,202.452,23.992z
	 M186.124,47.992c4.408,0,8,3.584,8,8s-3.592,8-8,8h-54.76c-5.864-6.152-10.488-11.384-14.112-16H186.124z M188.252,79.776
	l-20.416,20.416c-5.656-5.472-5.4-5.256-9.976-9.712c3.8-3.768,7.2-7.216,10.376-10.488
	C171.628,79.992,185.02,80.104,188.252,79.776z M74.444,23.992c0-4.416,3.592-8,8-8c4.408,0,8,3.584,8,8
	c0,27.112,32.336,55.512,66.336,87.256c-4.48,4.48-7,6.816-10.616,12.312C110.268,89.832,74.444,57.592,74.444,23.992z
	 M91.5,279.992c-4.408,0-8-3.584-8-8s3.592-8,8-8c37.32,0,64.456,0,99.744,0c-3.12,5.704-6.72,11.064-10.528,16
	C150.212,279.992,125.772,279.992,91.5,279.992z M166.876,295.992c-6.464,6.08-14.528,14.496-21.464,21.592
	c-6.896-6.72-13.696-13.56-21.096-21.592C139.812,295.992,153.084,295.992,166.876,295.992z M93.252,247.992
	c-1.544-5.208-2.632-10.432-2.632-15.68c0-5.544,1.176-10.968,2.8-16.32h104.168c3.552,11.592,3.936,19.808,0.392,32
	C145.828,247.992,115.476,247.992,93.252,247.992z M91.164,199.992c-4.408,0-8-3.584-8-8c0-4.416,3.592-8,8-8h54.496
	c5.008,7.928,9.16,11.704,15.328,16H91.164z M124.82,167.992c4.088-4.336,8.184-8.28,12.296-12.376
	c0.104,4.24,0.752,8.352,1.768,12.376H124.82z M123.412,124.016c0.024,0.024,10.528,10.216,11.488,11.144
	c-10.36,9.952-21.56,20.936-31.56,32.832H91.164c-3.6,0-6.984,0.856-10.056,2.28C93.844,152.44,109.852,137.032,123.412,124.016z
	 M77.844,252.304c-5.776,4.024-9.624,10.528-10.168,17.952c-5.52-12.16-9.056-24.752-9.056-37.952
	c0-13.576,3.496-26.168,8.784-37.992c0.72,7.368,4.672,13.784,10.536,17.672c-1.928,6.576-3.32,13.296-3.32,20.328
	C74.62,239.112,75.852,245.752,77.844,252.304z M123.02,362.904c3.136,2.944,9.192,8.6,11.704,10.936
	c-3.376,3.384-6.712,6.848-9.824,10.152c-3.84,0-18.792-0.088-22.4,0.176C108.196,377.92,114.932,370.944,123.02,362.904z
	 M90.444,440.512c0,4.416-3.592,8-8,8c-4.408,0-8-3.584-8-8c0-9.88,1.704-18.192,6.36-27.336c1.464,6.592,5.664,12.104,11.32,15.432
	C91.092,432.432,90.444,436.304,90.444,440.512z M104.212,415.992c-4.408,0-8-3.584-8-8s3.592-8,8-8h57.544
	c5.288,5.52,9.912,10.856,13.776,16H104.212z M218.452,440.512c0,4.416-3.592,8-8,8s-8-3.584-8-8
	c0-42.912-81.344-89.4-121.68-147.176c3.24,1.648,6.856,2.656,10.728,2.656h11.24C145.044,346.928,218.452,392.608,218.452,440.512z
	 M371.004,332.256c-15.576,15.576-40.968,15.6-56.576,0c-12.304-12.328-12.64-25.232-10.112-40.672
	c-13.288-6.392-24.136-11.16-39.784-11.168c-41.488,0-74.56,37.992-95.888,59.264c-3.912-3.696-7.848-7.4-11.792-11.112
	c26.904-27.048,59.6-56.624,59.6-96.232c0-15.544-4.776-26.496-11.128-39.704c-36.92,6.008-52.344-18.472-52.344-38.4
	c0-20.752,11.288-27.856,40-56.568c25.232,25.232,60.024,48.752,26.232,86.968c7.904,15.768,13.24,29.104,13.216,47.528
	l-0.688,21.72l57.984-57.992c-17.368-29.504-12.296-55.576,5.344-73.216c24.384-24.368,47.512-17.864,97.064-17.864
	c0,60.648,4.624,74.576-17.856,97.064c-17.4,17.392-43.32,22.896-73.216,5.328l-43.688,43.696l-12.576,13.816l19.736-0.296
	c18.704,0.008,32,5.368,47.8,13.288c21.672-19.048,44.2-16.512,58.672-2.016l28.28,28.288L371.004,332.256z"/>
<g>
</g>
<g>
</g>
<g>
</g>
<g>
</g>
<g>
</g>
<g>
</g>
<g>
</g>
<g>
</g>
<g>
</g>
<g>
</g>
<g>
</g>
<g>
</g>
<g>
</g>
<g>
</g>
<g>
</g>
</svg>
