<?xml version="1.0" encoding="iso-8859-1"?>
<!-- Generator: Adobe Illustrator 19.0.0, SVG Export Plug-In . SVG Version: 6.00 Build 0)  -->
<svg version="1.1" id="Capa_1" xmlns="http://www.w3.org/2000/svg" xmlns:xlink="http://www.w3.org/1999/xlink" x="0px" y="0px"
	 viewBox="0 0 418 418" style="enable-background:new 0 0 418 418;" xml:space="preserve">
<circle style="fill:#CDDCF0;" cx="210" cy="209" r="200"/>
<g>
	<circle style="fill:#A5BEE2;" cx="98" cy="209" r="48"/>
	<circle style="fill:#A5BEE2;" cx="210" cy="209" r="104"/>
</g>
<path style="fill:#85A4D4;" d="M146,209c0-22.944-16.128-42.072-37.648-46.816C101.768,176.44,98,192.264,98,209
	s3.768,32.552,10.352,46.816C129.872,251.072,146,231.944,146,209z"/>
<circle style="fill:#FDDA5F;" cx="210" cy="209" r="40"/>
<circle style="fill:#CDDCF0;" cx="354" cy="65" r="56"/>
<path style="fill:#A5BEE2;" d="M354,129c15.616,0,29.736-5.816,40.84-15.104C375,75.424,343.576,43.992,305.104,24.16
	C295.816,35.264,290,49.384,290,65C290,100.344,318.656,129,354,129z"/>
<circle style="fill:#EA7A26;" cx="354" cy="65" r="24"/>
<circle style="fill:#3A71B2;" cx="98" cy="209" r="24"/>
<g>
	<path style="fill:#010101;" d="M418,65c0-35.344-28.656-64-64-64c-20.112,0-37.84,9.472-49.576,23.976C275.584,9.8,242.864,1,208,1
		C93.12,1,0,94.128,0,209s93.12,208,208,208c114.872,0,208-93.128,208-208c0-33.84-8.24-65.688-22.592-93.92
		C408.28,103.36,418,85.4,418,65z M354,17c26.464,0,48,21.528,48,48c0,26.464-21.536,48-48,48c-10.352,0-19.88-3.368-27.728-8.96
		l11.568-11.568C342.6,95.28,348.08,97,354,97c17.672,0,32-14.328,32-32s-14.328-32-32-32s-32,14.328-32,32
		c0,5.92,1.72,11.4,4.528,16.16L314.96,92.728C309.368,84.88,306,75.352,306,65C306,38.528,327.536,17,354,17z M338,65
		c0-8.824,7.176-16,16-16s16,7.176,16,16s-7.176,16-16,16S338,73.824,338,65z M400,209c0,105.872-86.128,192-192,192
		S16,314.872,16,209S102.128,17,208,17c31.688,0,61.368,8.136,87.728,21.808C292.12,46.816,290,55.64,290,65
		c0,14.784,5.216,28.224,13.632,39.056l-20.36,20.36C263.624,107.384,238.048,97,210,97c-50.856,0-93.376,34.072-107.04,80.504
		C101.336,177.248,99.704,177,98,177c-17.672,0-32,14.328-32,32s14.328,32,32,32c1.696,0,3.336-0.248,4.968-0.504
		C116.624,286.936,159.152,321,210,321c61.856,0,112-50.144,112-112c0-28.048-10.384-53.624-27.416-73.272l20.36-20.36
		C325.776,123.784,339.224,129,354,129c9.08,0,17.68-1.944,25.504-5.352C392.4,149.416,400,178.28,400,209z M114,209
		c0,8.824-7.176,16-16,16s-16-7.176-16-16s7.176-16,16-16S114,200.176,114,209z M117.664,183.928
		C128.768,143.176,165.784,113,210,113c23.592,0,45.192,8.592,61.928,22.76l-34.184,34.184C229.896,164.36,220.368,161,210,161
		c-26.512,0-48,21.488-48,48s21.488,48,48,48s48-21.488,48-48c0-10.36-3.36-19.896-8.944-27.744l34.184-34.184
		C297.408,163.808,306,185.408,306,209c0,52.936-43.064,96-96,96c-44.216,0-81.24-30.176-92.336-70.928
		C125.12,228.216,130,219.216,130,209S125.12,189.784,117.664,183.928z M242,209c0,17.648-14.352,32-32,32s-32-14.352-32-32
		s14.352-32,32-32S242,191.352,242,209z"/>
	<circle style="fill:#010101;" cx="210" cy="209" r="16"/>
</g>
<g>
</g>
<g>
</g>
<g>
</g>
<g>
</g>
<g>
</g>
<g>
</g>
<g>
</g>
<g>
</g>
<g>
</g>
<g>
</g>
<g>
</g>
<g>
</g>
<g>
</g>
<g>
</g>
<g>
</g>
</svg>
