<?xml version="1.0" encoding="iso-8859-1"?>
<!-- Generator: Adobe Illustrator 19.0.0, SVG Export Plug-In . SVG Version: 6.00 Build 0)  -->
<svg version="1.1" id="Capa_1" xmlns="http://www.w3.org/2000/svg" xmlns:xlink="http://www.w3.org/1999/xlink" x="0px" y="0px"
	 viewBox="0 0 480 480" style="enable-background:new 0 0 480 480;" xml:space="preserve">
<path id="SVGCleanerId_0" style="fill:#C64047;" d="M300.971,137.84c7.648,28.544,12.616,62.912,12.608,102.184
	c-0.032,87.008-33.024,192.088-73.984,192.088c-14.544,0-32.144-18.144-45.92-47.352c-17.736-37.6-27.888-90.376-27.864-144.784
	c0.032-87.008,33.016-192.096,73.928-192.096c14.992,0,33.288,18.896,47.952,52.032c10.544-2.904,21.056-5.24,31.456-7.144
	C299.779,45.904,271.491,16.008,239.763,16c-0.008,0-0.016,0-0.024,0c-76.544,0-105.776,145.168-105.808,223.968
	C133.875,363.656,181.195,464,239.595,464c0.016,0,0.04,0,0.056,0c76.536,0,105.784-145.168,105.816-223.96
	c0.008-39.528-4.856-76.608-13.336-108.848C321.995,132.808,311.595,135,300.971,137.84z"/>
<path id="SVGCleanerId_1" style="fill:#3A71B2;" d="M198.555,339.6c-28.344,9.208-57.376,15.368-81.456,15.368
	c-23.616,0-38.8-5.568-45.144-16.568c-15.024-26.048,28.48-101.584,130.864-160.664c11.008-6.352,23.784-12.704,37.464-18.656
	c-13.584-6.24-27.144-11.608-40.472-16.056c-4.496,2.344-9.008,4.696-12.984,6.992c-35.056,20.232-65.352,43.552-89.432,67.552
	c0.016,0.024,0.032,0.04,0.048,0.064c-7.992,7.96-15.168,15.976-21.712,23.992c-0.04-0.056-0.072-0.104-0.112-0.152
	C41.155,283.744,27.667,325.664,44.243,354.4c13.616,23.624,40.68,32.568,72.856,32.568c37.968,0,82.928-12.504,121.512-28
	C225.355,353.352,211.971,346.864,198.555,339.6z"/>
<path style="fill:#ECF5E9;" d="M423.963,241.736c1.456-1.96,3.056-3.912,4.432-5.88c30.688-43.984,38.016-84.808,20.608-114.928
	c-10.656-18.52-34.36-40.608-86.736-40.608c-9.584,0-19.72,0.976-30.032,2.352C310.083,31.84,277.171,0.008,239.739,0
	c-27.136,0-64.552,14.672-92.32,82c-9-1.024-17.824-1.728-26.232-1.728c-43.424,0-75.656,14.376-90.736,40.472
	c-17.416,30.136-10.104,70.984,20.584,115c1.384,1.992,3,3.96,4.472,5.944c-32.656,44.424-43.688,88.528-25.128,120.704
	c10.672,18.512,34.392,40.576,86.72,40.576c9.96,0,20.504-1.056,31.232-2.528c0.696,1.56,1.32,3.232,2.04,4.76
	c22.744,48.232,54.448,74.8,89.272,74.8c26.728,0,63.424-14.136,91.064-78.888c9.44,1.12,18.704,1.896,27.504,1.896
	c43.424,0,75.64-14.376,90.688-40.464C462.475,339.096,468.443,299.464,423.963,241.736z M117.099,338.968
	c-16.496,0-28.184-3.2-31.28-8.568c-2.12-3.672-0.928-17.952,13.728-40.728c7.432,6.728,15.16,13.36,23.384,19.784
	c1.456,9.88,3.312,19.448,5.384,28.832C124.523,338.568,120.643,338.968,117.099,338.968z M123.259,173.608
	c-8.256,6.448-16.152,13-23.528,19.672c-14.424-22.656-15.76-37.192-13.832-40.528c1.528-2.656,12.544-8.48,35.296-8.48
	c2.36,0,4.92,0.264,7.368,0.376C126.475,154.424,124.675,164.12,123.259,173.608z M239.739,63.88c6.4,0,18.032,11.304,29.184,33.328
	c-9.552,3.032-18.984,6.304-28.144,9.832c-9.912-4.024-19.776-7.696-29.536-10.848C220.955,76.024,231.395,63.88,239.739,63.88z
	 M239.603,416.12c-3.792,0-15.384-7.984-27.52-30.528c9.008-2.896,17.88-6.024,26.536-9.36c9.432,3.832,18.816,7.328,28.128,10.368
	C257.419,405.072,247.555,416.12,239.603,416.12z M362.275,144.312c16.496,0,28.2,3.2,31.296,8.592
	c1.936,3.352,0.528,18.16-14.352,41.224c-7.344-6.64-14.768-13.048-22.208-18.992c-1.424-10.352-3.08-20.48-5.152-30.184
	C355.363,144.704,358.979,144.312,362.275,144.312z M393.491,330.536c-1.528,2.656-12.544,8.48-35.296,8.48
	c-2.592,0-5.392-0.272-8.088-0.416c2.112-9.56,3.984-19.08,5.448-28.408c8.512-6.608,16.536-13.424,24.216-20.368
	C391.987,307.904,397.547,323.528,393.491,330.536z"/>
<path style="fill:#3A71B2;" d="M279.563,340.24c4.496-2.344,9-4.696,12.976-6.992c35.008-20.192,65.272-43.472,89.336-67.424
	c-0.84-1.04-1.656-2.024-2.4-2.912c-6-7.144-12.568-14.024-19.32-20.72c-22.848,22.88-51.672,44.928-83.6,63.344
	c-11.008,6.352-23.776,12.696-37.448,18.656C252.683,330.424,266.243,335.8,279.563,340.24z"/>
<g>
	<path id="SVGCleanerId_1_1_" style="fill:#3A71B2;" d="M198.555,339.6c-28.344,9.208-57.376,15.368-81.456,15.368
		c-23.616,0-38.8-5.568-45.144-16.568c-15.024-26.048,28.48-101.584,130.864-160.664c11.008-6.352,23.784-12.704,37.464-18.656
		c-13.584-6.24-27.144-11.608-40.472-16.056c-4.496,2.344-9.008,4.696-12.984,6.992c-35.056,20.232-65.352,43.552-89.432,67.552
		c0.016,0.024,0.032,0.04,0.048,0.064c-7.992,7.96-15.168,15.976-21.712,23.992c-0.04-0.056-0.072-0.104-0.112-0.152
		C41.155,283.744,27.667,325.664,44.243,354.4c13.616,23.624,40.68,32.568,72.856,32.568c37.968,0,82.928-12.504,121.512-28
		C225.355,353.352,211.971,346.864,198.555,339.6z"/>
</g>
<path style="fill:#3A71B2;" d="M280.851,143.664c28.336-9.2,57.352-15.36,81.424-15.36c23.624,0,38.808,5.576,45.16,16.592
	c7.232,12.528,0.176,36.848-18.408,63.48c-2.296,3.296-4.888,6.6-7.496,9.912c7.8,7.672,15.296,15.568,22.112,23.664
	c34.552-42.32,48.104-84.304,31.504-113.056c-13.616-23.64-40.68-32.592-72.872-32.592c-37.96,0-82.912,12.504-121.496,27.992
	C254.043,129.912,267.427,136.4,280.851,143.664z"/>
<g>
	<path id="SVGCleanerId_0_1_" style="fill:#C64047;" d="M300.971,137.84c7.648,28.544,12.616,62.912,12.608,102.184
		c-0.032,87.008-33.024,192.088-73.984,192.088c-14.544,0-32.144-18.144-45.92-47.352c-17.736-37.6-27.888-90.376-27.864-144.784
		c0.032-87.008,33.016-192.096,73.928-192.096c14.992,0,33.288,18.896,47.952,52.032c10.544-2.904,21.056-5.24,31.456-7.144
		C299.779,45.904,271.491,16.008,239.763,16c-0.008,0-0.016,0-0.024,0c-76.544,0-105.776,145.168-105.808,223.968
		C133.875,363.656,181.195,464,239.595,464c0.016,0,0.04,0,0.056,0c76.536,0,105.784-145.168,105.816-223.96
		c0.008-39.528-4.856-76.608-13.336-108.848C321.995,132.808,311.595,135,300.971,137.84z"/>
</g>
<g>
	<path style="fill:#7BC24D;" d="M118.643,241.448c-8.152,8.208-15.072,16.248-21.2,24.096c12.128,12.088,25.808,24.016,40.92,35.456
		c-1.912-14.312-3.232-29.072-3.76-44.4C128.971,251.608,123.715,246.536,118.643,241.448z"/>
	<path style="fill:#7BC24D;" d="M292.619,150.048c-61.28-35.4-123.632-53.776-171.416-53.776c-36.336,0-64.248,10.624-76.872,32.48
		c-16.6,28.72-3.048,70.616,31.416,112.88c6.544-8.024,13.72-16.032,21.712-23.992c-2.44-3.112-4.872-6.232-7.04-9.336
		c-18.584-26.656-25.632-51-18.376-63.536c5.96-10.32,24.336-16.48,49.168-16.48c43.664,0,101.768,18.504,155.408,49.488
		c28.096,16.232,71.896,48.28,102.872,85.16c12.752,15.184,41,52.936,27.872,75.616c-5.952,10.312-24.328,16.472-49.144,16.472
		c-43.672,0-101.768-18.504-155.408-49.504c-11.936-6.896-23.456-14.304-34.4-22.064c1.504,14.696,3.6,28.96,6.52,42.536
		c3.936,2.432,7.808,4.896,11.872,7.24c61.272,35.416,123.632,53.8,171.416,53.8c36.336,0,64.24-10.624,76.856-32.472
		C473.403,288.28,361.315,189.752,292.619,150.048z"/>
</g>
<path style="fill:#231F20;" d="M413.715,241.848c2.768-3.52,5.648-7.032,8.12-10.576c28.816-41.288,36-79.072,20.248-106.36
	c-13.984-24.288-40.84-36.6-79.816-36.6c-11.152,0-22.976,1.128-35.08,3.024C305.723,38.432,274.155,8.008,239.739,8
	c-41.504,0-69.416,36.496-87.232,82.728c-10.808-1.48-21.36-2.456-31.32-2.456c-40.456,0-70.216,12.952-83.8,36.48
	c-17.064,29.536-6.608,71.824,28.184,116.664C31.939,284.72,19.579,327.656,37.315,358.4c14,24.264,40.848,36.568,79.784,36.568
	c11.448,0,23.68-1.4,36.128-3.408c1.44,3.432,2.824,6.944,4.376,10.216c21.352,45.288,50.48,70.224,82.04,70.224
	c40.568,0,68.176-34.856,86.04-79.608c11.24,1.592,22.192,2.616,32.528,2.616c40.456,0,70.2-12.952,83.768-36.472
	C460.051,327.32,450.091,287.016,413.715,241.848z M428.227,132.904c12.488,21.616,5.544,53.296-19.512,89.208
	c-1.712,2.448-3.672,4.888-5.52,7.328c-3.608-4.032-7.288-7.992-11.088-11.88c1.16-1.536,2.416-3.08,3.488-4.608
	c20.688-29.64,27.72-56.576,18.784-72.048c-7.872-13.672-25.392-20.6-52.096-20.6c-7.64,0-15.824,0.744-24.248,1.856l-7.16,1.12
	c-0.112,0.016-0.224,0.048-0.336,0.064l-0.224,0.096c-9.4,1.544-19,3.56-28.792,6.128l-0.112-0.056
	c-0.824,0.216-1.664,0.376-2.488,0.6l-7.736,2.072l0.048,0.168c-3.064,0.888-6.104,1.896-9.16,2.864
	c-6.824-3.64-13.656-7.064-20.512-10.312c33.664-11.984,69.888-20.584,100.728-20.584
	C395.115,104.312,417.283,113.928,428.227,132.904z M312.659,153.024c-0.656-3.136-1.208-6.328-1.952-9.4
	c5.16-1.232,10.328-2.336,15.472-3.296c1.96,8.152,3.52,16.672,4.928,25.296C324.763,161.08,318.579,156.848,312.659,153.024z
	 M349.131,179.152c-1.84-14.248-4.272-28.088-7.392-41.352c7.112-0.88,14.048-1.488,20.528-1.488
	c14.144,0,32.232,2.176,38.232,12.592c4.56,7.912,0.768,27.96-18.048,54.896c-0.56,0.808-1.232,1.616-1.832,2.424
	C370.323,196.52,359.691,187.464,349.131,179.152z M200.131,101.144c11.648-27.336,25.768-45.264,39.608-45.264
	c9.792,0.008,26.032,14.72,40.2,46.288c-13.296,3.952-26.4,8.592-39.016,13.56C227.179,110.032,213.539,105.12,200.131,101.144z
	 M239.771,24c26.528,0.008,52.736,26.232,71.328,70.272c-5.176,1.088-10.368,2.272-15.568,3.6
	c-15.808-36.328-36.36-57.984-55.784-57.992c-22.704,0-41.376,23.592-55.2,56.912c-5.24-1.304-10.36-2.312-15.48-3.32
	C184.883,53.976,207.987,24,239.771,24z M118.091,253.624c0.232-0.248,0.504-0.496,0.744-0.744c2.448,2.368,4.96,4.736,7.544,7.072
	c0.304,7.552,0.784,15.024,1.432,22.4c-6.784-5.656-13.312-11.464-19.528-17.416c0.608-0.736,1.192-1.472,1.816-2.208
	C112.731,259.624,115.371,256.56,118.091,253.624z M98.363,277.296c10.016,9.512,20.656,18.736,31.976,27.48
	c1.944,14.016,4.544,27.568,7.736,40.528c-7.272,0.952-14.384,1.664-20.968,1.664c-14.128,0-32.216-2.176-38.216-12.568
	C74.035,325.992,78.347,305.144,98.363,277.296z M130.739,178.224c-11.664,8.896-22.528,18-32.4,27.296
	c-0.44-0.6-0.944-1.208-1.36-1.808c-18.8-26.976-22.592-47.04-18-54.96c3.312-5.76,16.36-12.48,42.216-12.48
	c5.52,0,11.304,0.344,17.264,0.944C135.227,151,132.659,164.824,130.739,178.224z M117.099,378.968
	c-32.816,0-55-9.608-65.936-28.568c-14.704-25.496-1.48-64.168,30.696-103.616l0.088-0.112c6.288-7.72,13.096-15.168,20.168-22.272
	c7.928-7.984,16.616-15.88,25.888-23.632c-0.76,7.8-1.272,15.224-1.608,22.288c-2.616,2.36-5.208,4.712-7.696,7.096l-5.728,5.656
	c-0.032,0.032-0.056,0.064-0.088,0.088c-9.752,9.808-18.552,19.784-25.96,29.816c-23.248,31.496-31.44,60.16-21.904,76.688
	c7.872,13.648,25.408,20.568,52.08,20.568c7.888,0,16.456-0.952,25.208-2.216c1.584,5.352,3.28,10.544,5.08,15.632
	C136.955,377.912,126.715,378.968,117.099,378.968z M239.603,456c-24.984,0-48.952-21.68-67.528-61.048
	c-10.368-21.976-18.16-47.928-23.256-76.184l-2.504-18.832c-2-14.944-3.2-29.216-3.704-43.616l-0.128-3.44l-0.264-0.232
	c-0.112-4.224-0.288-8.416-0.28-12.68c0.008-28.008,4.136-65,12.704-100.488c5,0.88,10.144,2.04,15.336,3.272
	c-7.76,32.008-12.144,66.728-12.16,97.224c0,9,0.368,17.92,0.896,26.776l0.112,1.616c2.896,45.232,12.536,87.824,27.624,119.808
	c15.344,32.52,35.216,51.936,53.152,51.936c22.048,0,40.28-22.24,53.992-53.984c5.232,1.32,10.352,2.376,15.464,3.4
	C293.259,427.512,270.579,456,239.603,456z M348.147,305.288c11.68-8.936,22.664-18.16,32.744-27.688
	c15.376,20.544,26.992,44.032,19.544,56.928c-3.328,5.76-16.376,12.48-42.216,12.48c-5.752,0-11.808-0.4-18.04-1.048
	C343.475,332.336,346.139,318.624,348.147,305.288z M351.019,282.656c0.832-8.008,1.432-15.672,1.824-22.952
	c2.392-2.144,4.768-4.296,7.064-6.464c3.768,3.912,7.376,7.912,10.88,11.968C364.547,271.128,357.947,276.944,351.019,282.656z
	 M337.227,231.672c0.08,2.792,0.232,5.568,0.232,8.368c-0.008,28.848-4.384,67.208-13.48,103.648c-5-0.896-10.152-2.08-15.336-3.328
	c8.256-32.856,12.936-68.832,12.944-100.328c0-7.536-0.48-14.824-0.88-22.152C326.219,222.24,331.739,226.856,337.227,231.672z
	 M296.851,321.184c-2.76,1.72-5.456,3.496-8.312,5.136c-2.992,1.728-6.488,3.464-9.752,5.192c-6.704-2.312-13.448-4.856-20.24-7.64
	c7.8-3.76,15.336-7.568,22.008-11.416c6.976-4.024,13.528-8.456,20.144-12.824C299.555,306.944,298.331,314.176,296.851,321.184z
	 M303.955,205.248c0.952,11.36,1.624,22.88,1.624,34.776c-0.008,12.928-0.936,25.88-2.264,38.704
	c-9.864,6.936-20.032,13.68-30.768,19.872c-9.872,5.696-21.464,11.28-33.592,16.656c-10.784-5.08-21.56-10.56-32.16-16.688
	c-10.656-6.152-21-12.896-31-19.872c-1.184-12.696-2-25.592-2-38.712c0.008-11.784,0.792-23.592,1.896-35.32
	c9.944-6.936,20.224-13.696,31.136-19.992c9.872-5.696,21.472-11.28,33.6-16.664c10.784,5.08,21.56,10.552,32.168,16.68
	C281.683,189.944,292.523,197.008,303.955,205.248z M277.995,381.784c-11.408,25.68-25.04,42.336-38.392,42.336
	c-9.216,0-24.752-13.224-38.688-42.768c-0.128-0.264-0.216-0.592-0.344-0.864c12.872-3.856,25.464-8.248,37.688-13.04
	C251.635,373.016,264.923,377.848,277.995,381.784z M194.715,365.808c-1.88-4.976-3.648-10.064-5.28-15.416
	c2.608-0.76,5.216-1.576,7.824-2.392c6.816,3.64,13.632,7.064,20.48,10.312C210.147,361.016,202.483,363.512,194.715,365.808z
	 M198.835,170.816c-7.184,4.144-13.928,8.64-20.72,13.088c1.056-7.248,2.216-14.44,3.616-21.408c3.032-1.848,6-3.752,9.112-5.544
	c2.992-1.728,6.488-3.464,9.752-5.192c6.704,2.312,13.456,4.856,20.264,7.64C213.043,163.152,205.507,166.96,198.835,170.816z
	 M428.131,350.536c-10.608,18.368-35.44,28.48-69.92,28.48c-48.44,0-109.456-19.216-167.424-52.72
	c-2.984-1.736-5.856-3.52-8.752-5.312l-3.592-21.04c6.656,4.328,13.472,8.504,20.36,12.496
	c54.784,31.672,114.376,50.576,159.408,50.576c28.128,0,48.56-7.464,56.064-20.472c15.096-26.088-11.488-64.304-28.672-84.776
	c-31.656-37.68-76.344-70.384-105-86.936c-54.8-31.656-114.392-50.552-159.408-50.552c-28.144,0-48.576,7.472-56.08,20.48
	c-8.952,15.48-1.952,42.44,18.736,72.12c0.968,1.384,1.968,2.76,3.016,4.144c-3.736,3.88-7.392,7.872-10.92,11.936
	c-29.016-38.352-38.048-73.096-24.704-96.192c10.608-18.36,35.456-28.48,69.952-28.48c48.408,0,109.424,19.208,167.424,52.704
	c31.2,18.032,76.296,51.28,109.232,90.496C422.131,276.392,447.099,317.736,428.131,350.536z"/>
<circle style="fill:#EA7A26;" cx="239.675" cy="240" r="40"/>
<path style="fill:#231F20;" d="M239.643,208c17.648,0,32,14.352,32,32s-14.352,32-32,32s-32-14.352-32-32S222.003,208,239.643,208
	 M239.643,192c-26.512,0-48,21.488-48,48s21.488,48,48,48c26.504,0,48-21.488,48-48S266.155,192,239.643,192z"/>
<g>
</g>
<g>
</g>
<g>
</g>
<g>
</g>
<g>
</g>
<g>
</g>
<g>
</g>
<g>
</g>
<g>
</g>
<g>
</g>
<g>
</g>
<g>
</g>
<g>
</g>
<g>
</g>
<g>
</g>
</svg>
