<?xml version="1.0" encoding="iso-8859-1"?>
<!-- Generator: Adobe Illustrator 19.0.0, SVG Export Plug-In . SVG Version: 6.00 Build 0)  -->
<svg version="1.1" id="Capa_1" xmlns="http://www.w3.org/2000/svg" xmlns:xlink="http://www.w3.org/1999/xlink" x="0px" y="0px"
	 viewBox="0 0 436.688 436.688" style="enable-background:new 0 0 436.688 436.688;" xml:space="preserve">
<path style="fill:#ECF5E9;" d="M206.292,20.688c-106.04,0-192,85.96-192,192s85.96,192,192,192s192-85.96,192-192
	S312.332,20.688,206.292,20.688z"/>
<rect id="SVGCleanerId_0" x="111.9" y="246.497" transform="matrix(-0.7073 0.7069 -0.7069 -0.7073 434.5482 393.0686)" style="fill:#C0CED8;" width="48" height="79.999"/>
<path id="SVGCleanerId_1" style="fill:#C0CED8;" d="M166.684,380.688l49.064-49.072c5.872-5.88,13.704-9.12,22.016-9.12
	c8.296,0,16.128,3.232,22,9.12l49.08,49.072H166.684z"/>
<path id="SVGCleanerId_2" style="fill:#2D3F50;" d="M377.236,201.736c3.136-6.384,5.056-13.464,5.056-21.048
	c0-16.688-8.528-31.36-21.448-39.96l21.888-21.872c1.512-1.52,2.36-3.552,2.376-5.72c0.016-2.152-0.816-4.16-2.312-5.648
	l-67.872-67.896c-3.128-3.128-8.2-3.104-11.328,0.008L196.124,147.08l79.184,79.192l19.04-19.016
	c8.6,12.904,23.272,21.432,39.944,21.432c1,0,1.928-0.232,2.904-0.296c21.504,40.72,14.88,88.888-17.608,121.36
	c-7.352,7.352-15.704,13.528-24.696,18.392l4.48,4.544h-14.016c-12.472,5.208-25.848,8-39.296,8H142.292c-13.232,0-24,10.768-24,24
	v24h240v-24c-0.64-15.256,3.408-28.96,11.704-40.68C404.508,315.32,406.884,253.776,377.236,201.736z"/>
<rect id="SVGCleanerId_3" x="342.544" y="32.292" transform="matrix(-0.7071 0.7071 -0.7071 -0.7071 664.7548 -162.9026)" style="fill:#C0CED8;" width="47.144" height="47.864"/>
<path id="SVGCleanerId_4" style="fill:#C0CED8;" d="M196.404,146.792l-13.08,13.08c-1.168,1.176-1.832,2.752-1.832,4.424v33.448
	c0,1.672,0.656,3.24,1.832,4.424l36.904,36.904c1.168,1.168,2.784,1.832,4.424,1.832h33.44c1.64,0,3.248-0.672,4.424-1.832
	l13.08-13.08L196.404,146.792z"/>
<path id="SVGCleanerId_5" style="fill:#3D586D;" d="M196.124,147.104l39.704,39.688L348.972,73.656L314.9,39.6
	c-3.128-3.112-8.184-3.12-11.312,0.008L196.124,147.104z"/>
<polygon style="fill:#92A2B3;" points="399.372,57.32 365.82,23.768 365.82,90.864 "/>
<path id="SVGCleanerId_6" style="fill:#92A2B3;" d="M201.772,220.616l18.456,18.456c1.168,1.168,2.784,1.832,4.424,1.832h33.44
	c1.64,0,3.248-0.672,4.424-1.832l12.8-12.8l-39.592-39.592L201.772,220.616z"/>
<path id="SVGCleanerId_7" style="fill:#1B2735;" d="M346.06,249.016l50.016,50.024c4.544-30.464-0.312-61.872-13.832-89.576
	c-8.688,14.376-23.624,24.432-40.56,26.728C343.42,240.376,344.868,244.664,346.06,249.016z"/>
<path id="SVGCleanerId_8" style="fill:#C0CED8;" d="M334.292,196.688c-8.84,0-16-7.168-16-16c0-8.84,7.16-16,16-16s16,7.16,16,16
	C350.292,189.52,343.132,196.688,334.292,196.688z"/>
<g>
	
		<rect id="SVGCleanerId_0_1_" x="111.9" y="246.497" transform="matrix(-0.7073 0.7069 -0.7069 -0.7073 434.5482 393.0686)" style="fill:#C0CED8;" width="48" height="79.999"/>
</g>
<g>
	<path id="SVGCleanerId_1_1_" style="fill:#C0CED8;" d="M166.684,380.688l49.064-49.072c5.872-5.88,13.704-9.12,22.016-9.12
		c8.296,0,16.128,3.232,22,9.12l49.08,49.072H166.684z"/>
</g>
<g>
	<path id="SVGCleanerId_2_1_" style="fill:#2D3F50;" d="M377.236,201.736c3.136-6.384,5.056-13.464,5.056-21.048
		c0-16.688-8.528-31.36-21.448-39.96l21.888-21.872c1.512-1.52,2.36-3.552,2.376-5.72c0.016-2.152-0.816-4.16-2.312-5.648
		l-67.872-67.896c-3.128-3.128-8.2-3.104-11.328,0.008L196.124,147.08l79.184,79.192l19.04-19.016
		c8.6,12.904,23.272,21.432,39.944,21.432c1,0,1.928-0.232,2.904-0.296c21.504,40.72,14.88,88.888-17.608,121.36
		c-7.352,7.352-15.704,13.528-24.696,18.392l4.48,4.544h-14.016c-12.472,5.208-25.848,8-39.296,8H142.292c-13.232,0-24,10.768-24,24
		v24h240v-24c-0.64-15.256,3.408-28.96,11.704-40.68C404.508,315.32,406.884,253.776,377.236,201.736z"/>
</g>
<g>
	
		<rect id="SVGCleanerId_3_1_" x="342.544" y="32.292" transform="matrix(-0.7071 0.7071 -0.7071 -0.7071 664.7548 -162.9026)" style="fill:#C0CED8;" width="47.144" height="47.864"/>
</g>
<g>
	<path id="SVGCleanerId_4_1_" style="fill:#C0CED8;" d="M196.404,146.792l-13.08,13.08c-1.168,1.176-1.832,2.752-1.832,4.424v33.448
		c0,1.672,0.656,3.24,1.832,4.424l36.904,36.904c1.168,1.168,2.784,1.832,4.424,1.832h33.44c1.64,0,3.248-0.672,4.424-1.832
		l13.08-13.08L196.404,146.792z"/>
</g>
<g>
	<path id="SVGCleanerId_5_1_" style="fill:#3D586D;" d="M196.124,147.104l39.704,39.688L348.972,73.656L314.9,39.6
		c-3.128-3.112-8.184-3.12-11.312,0.008L196.124,147.104z"/>
</g>
<polygon style="fill:#92A2B3;" points="399.372,57.32 365.82,23.768 365.82,90.864 "/>
<g>
	<path id="SVGCleanerId_6_1_" style="fill:#92A2B3;" d="M201.772,220.616l18.456,18.456c1.168,1.168,2.784,1.832,4.424,1.832h33.44
		c1.64,0,3.248-0.672,4.424-1.832l12.8-12.8l-39.592-39.592L201.772,220.616z"/>
</g>
<g>
	<path id="SVGCleanerId_7_1_" style="fill:#1B2735;" d="M346.06,249.016l50.016,50.024c4.544-30.464-0.312-61.872-13.832-89.576
		c-8.688,14.376-23.624,24.432-40.56,26.728C343.42,240.376,344.868,244.664,346.06,249.016z"/>
</g>
<g>
	<path id="SVGCleanerId_8_1_" style="fill:#C0CED8;" d="M334.292,196.688c-8.84,0-16-7.168-16-16c0-8.84,7.16-16,16-16
		s16,7.16,16,16C350.292,189.52,343.132,196.688,334.292,196.688z"/>
</g>
<path style="fill:#010101;" d="M411.084,79.2l11.312-11.312L354.508,0l-11.312,11.312l11.312,11.312l-22.632,22.632l-11.312-11.312
	c-6.248-6.248-16.376-6.248-22.624,0c-70.384,70.384-50.288,50.288-120.28,120.28c-2.672,2.672-4.176,6.296-4.176,10.08v33.448
	c0,3.776,1.504,7.408,4.176,10.08l36.904,36.904c2.672,2.672,6.296,4.176,10.08,4.176h33.448c3.784,0,7.408-1.504,10.08-4.176
	c13.752-13.752,23.352-23.352,25.584-25.584c10.752,11.32,24.112,16.824,38.448,17.336c18.584,39.4,8.176,81.168-18.272,107.616
	c-5.216,5.216-11.024,9.464-17.032,13.264L135.932,195.944l-11.312,11.312l107.76,107.76c-8.144,1.128-16.016,4.68-22.28,10.944
	l-11.672,11.672l-22.888-22.888l16.976-16.968l-67.88-67.88L79.38,275.152l67.88,67.88l16.968-16.968l22.888,22.888l-23.744,23.744
	h-21.08c-8.832,0-16.84,3.584-22.624,9.376c-5.792,5.776-9.376,13.776-9.376,22.616v32h256c0-40.096-1.808-51.072,10.24-68.056
	c33.12-46.728,40.032-110.264,9.664-166.952c2.664-6.584,4.096-13.68,4.096-20.992c0.016-15.448-7.032-29.808-17.92-40.152
	c4.152-4.152,8.456-8.456,16.016-16.016c6.248-6.248,6.312-16.448,0.064-22.696L377.14,90.512l-0.096-0.104l22.632-22.632
	L411.084,79.2z M147.244,320.4l-45.256-45.256l22.624-22.624l45.256,45.256l-5.656,5.656l-22.632-22.624
	c-3.128-3.128-8.184-3.128-11.312,0c-3.128,3.128-3.128,8.184,0,11.312l22.632,22.624L147.244,320.4z M257.372,232.904h-32
	l-35.88-35.88v-32l6.624-6.624l67.88,67.88L257.372,232.904z M221.404,337.272c4.368-4.368,10.176-6.768,16.352-6.768
	s11.984,2.4,16.352,6.768l35.416,35.416h-83.232h-20.296L221.404,337.272z M350.292,420.688h-224v-16c0-8.84,7.16-16,16-16h192
	c8.84,0,16,7.16,16,16V420.688z M363.476,359.376c-4.384,6.184-7.616,12.896-9.84,19.976c-5.384-4.12-12.04-6.664-19.344-6.664
	h-22.104l-3.72-3.728c5.904-3.992,11.6-8.368,16.784-13.544c36.4-36.4,39.032-82.464,23.216-120.76
	c12.664-3.312,20.8-9.216,27.928-17.408C400.044,268.296,389.98,321.984,363.476,359.376z M374.292,180.68
	c0.008,22.088-17.88,40.016-40,40c-21.344,0.024-39.984-18.592-39.992-39.992c-0.008-22.088,17.88-40.016,40-40
	C356.42,140.696,374.3,158.608,374.292,180.68z M377.068,113.2c-1.824,1.824-15.984,15.984-17.96,17.96
	c-7.592-3.976-15.976-6.464-24.816-6.472c-30.952-0.008-56.008,25.056-56,56c0,8.904,2.296,17.376,6.192,25.096l-0.8,0.8
	l-8.376,8.376l-67.88-67.88L309.252,45.256C374.276,110.28,361.244,97.2,377.068,113.2z M365.724,79.096l-22.528-22.528
	l22.624-22.624l22.528,22.528L365.724,79.096z"/>
<g>
</g>
<g>
</g>
<g>
</g>
<g>
</g>
<g>
</g>
<g>
</g>
<g>
</g>
<g>
</g>
<g>
</g>
<g>
</g>
<g>
</g>
<g>
</g>
<g>
</g>
<g>
</g>
<g>
</g>
</svg>
