<?xml version="1.0" encoding="iso-8859-1"?>
<!-- Generator: Adobe Illustrator 19.0.0, SVG Export Plug-In . SVG Version: 6.00 Build 0)  -->
<svg version="1.1" id="Capa_1" xmlns="http://www.w3.org/2000/svg" xmlns:xlink="http://www.w3.org/1999/xlink" x="0px" y="0px"
	 viewBox="0 0 480.008 480.008" style="enable-background:new 0 0 480.008 480.008;" xml:space="preserve">
<polygon style="fill:#92A2B3;" points="248.392,368.004 184,368.004 184,336.068 280.328,336.068 "/>
<rect x="215.776" y="31.78" style="fill:#C0CED8;" width="48.4" height="48.576"/>
<path style="fill:#2D3F50;" d="M439.624,285.332c-3.784-54.432-37.768-101.928-88.92-125.744
	c-3.984-22.232-23.328-39.136-46.704-39.136c-2.736,0-5.384,0.36-8,0.808V88.1c0-4.464-3.592-8.096-8-8.096h-96
	c-4.408,0-8,3.584-8,8v152h112v-25.256c2.616,0.448,5.264,0.808,8,0.808c11.56,0,22.024-4.296,30.264-11.152
	c31.384,15.816,52.592,44.6,56.864,77.952c4.888,38.136-11.456,75.728-42.624,98.12l-5.528,3.96l-43.504-43.504
	c-3.08-3.08-7.2-4.824-11.64-4.912l-7.504,0.056l-63.936,63.928H176c-13.232,0-24,10.768-24,24v24h256v-8.344
	c0-26.312,6.424-54.16,19.112-82.752C437.144,334.284,441.36,310.204,439.624,285.332z"/>
<path style="fill:#3D586D;" d="M240,80.004l-48,0.008c-4.408,0-8,3.584-8,8l0.016,152L240,240.004V80.004z"/>
<path style="fill:#C0CED8;" d="M184,240.004V258.1c0,1.672,0.656,3.24,1.832,4.424l23.656,23.656
	c1.184,1.176,2.744,1.824,4.416,1.824h52.184c1.672,0,3.232-0.648,4.424-1.832l23.656-23.656c1.176-1.176,1.832-2.744,1.832-4.416
	v-18.096H184z"/>
<g>
	<polygon style="fill:#92A2B3;" points="215.776,31.78 264.208,80.356 264.208,31.78 	"/>
	<path style="fill:#92A2B3;" d="M240,288.004h26.096c1.672,0,3.232-0.648,4.424-1.832l23.656-23.656
		c1.168-1.176,1.824-2.744,1.824-4.416v-18.096h-56V288.004z"/>
</g>
<g>
	<path style="fill:#1B2735;" d="M390.92,310.404l39.2,39.2c7.856-20.48,11.048-42.056,9.504-64.272
		c0-54.664-39.776-100.288-85.888-125.328c0.112,1.424,0.16,2.848,0.16,4.288c0,15.52-6.576,30.192-17.768,40.648
		c27.032,16.496,51.088,46.968,55,77.416C392.312,291.652,392.248,301.068,390.92,310.404z"/>
	<path style="fill:#1B2735;" d="M342.968,384.436l13.336,13.232L384,398.964c11.632,0,19.232,4.824,24.84,14.104
		c1.152-6.208,5.12-17.976,6.92-24.296l-38.928-38.928C369.88,361.3,354.112,376.22,342.968,384.436z"/>
</g>
<g>
	<circle style="fill:#010101;" cx="288" cy="376.004" r="12"/>
	<circle style="fill:#010101;" cx="304" cy="168.004" r="12"/>
	<path style="fill:#010101;" d="M367.32,285.412c-0.544-4.232-1.696-8.304-2.952-12.328c-6.992-5.488-11.6-13.744-12.176-23.16
		c-4.584-6.016-9.848-11.592-16.192-16.288v14.36c0,20.816,13.328,38.368,31.848,45.024
		C367.768,290.484,367.648,287.948,367.32,285.412z"/>
	<path style="fill:#010101;" d="M432,104.004v-32h-96v31.656c8.104,4.056,15.384,9.584,21.424,16.344h58.592v57.552
		c5.808,6.072,11.152,12.456,15.984,19.216v-76.768h16c0,58.072,0,82.424,0,103.912c8.144,17.48,13.32,36.352,15.144,56.088h0.784
		l0.072-160h16v-16C462.192,104.004,449.84,104.004,432,104.004z M416.016,104.004H352v-16h64.016V104.004z"/>
	<path style="fill:#010101;" d="M160,328.004H32v-208h16v127.992c0,26.512,21.48,48.008,47.992,48.008S144,274.508,144,247.996
		V120.004h16v-16h-16v-32H48v32c-18.648,0-32,0-48,0v16h16v208H0v16c77.744,0,88.448,0,160,0V328.004z M63.984,88.004H128v16H63.984
		V88.004z M63.984,120.004H128v127.992c0,17.648-14.36,32.008-32.008,32.008s-32.008-14.36-32.008-32.008
		C63.984,247.996,63.984,120.004,63.984,120.004z"/>
	<path style="fill:#010101;" d="M447.608,284.772c-4.032-57.984-40.12-105.872-89.584-130.568
		c-6.176-24.184-27.92-42.144-54.024-42.144c0-15.496,0-25.32,0-23.968c0-8.832-7.168-16.088-16-16.088h-16h-0.144v-32H296v-16H192
		v16h16v32h-16c-8.84,0-16,7.168-16,16c0,99.544,0,71.12,0,170.096c0,3.776,1.504,7.408,4.176,10.08l23.648,23.648
		c2.672,2.672,6.296,4.176,10.08,4.176h52.192c3.776,0,7.408-1.504,10.08-4.176l23.648-23.648c2.672-2.672,4.176-6.304,4.176-10.08
		c0-1.424,0-15.136,0-34.152c11.728,0,22.584-3.632,31.576-9.8c25.152,14.464,43.744,39.048,47.608,69.224
		c2.032,15.824-0.04,30.904-4.976,44.632H320.48l16,16h34.304c-6.88,11.72-16.064,21.944-27.088,29.848l-38.576-38.584
		c-4.736-4.736-10.912-7.128-17.128-7.264l-111.992,0v48h53.072l-16,16H176c-17.672,0-32,14.328-32,32v32h264h8V439.66
		c0-27.56,7.256-54.312,18.424-79.504c2.32-5.232,4.288-10.648,6.048-16.152c14.552,0,24.424,0,39.536,0v-16h-35.456
		C447.408,314.148,448.648,299.708,447.608,284.772z M256,40.004v32h-32v-32H256z M288,257.372l-22.632,22.632h-50.744L192,257.372
		v-9.368h96V257.372z M192,232.004v-144l96,0.096c0,1.392,0,14.424,0,26.568c-23.048,6.92-39.944,28.04-39.944,53.344
		s16.896,46.424,39.944,53.344v10.648H192z M304,207.948c-22.024,0-39.944-17.92-39.944-39.944S281.976,128.06,304,128.06
		s39.944,17.92,39.944,39.944S326.024,207.948,304,207.948z M192,360.004V344.06h69.016l-15.944,15.944H192z M400,440.004H160v-16
		c0-8.824,7.176-16,16-16c16.352,0,27.28,0,43.704,0c6-6,57.432-57.432,64-64h7.528c12.52,12.52,56.92,56.92,64,64
		c10.88,0,17.752,0,28.776,0c8.824,0,16,7.176,16,16v16H400z M419.792,353.668c-6.944,15.656-11.768,31.064-14.992,46.2
		c-5.608-4.832-12.816-7.864-20.8-7.864h-22.144l-6.808-6.808c6.104-4.536,11.936-9.464,17.04-15.272
		c21.264-24.16,31.088-56.448,26.968-88.584c-4.272-33.32-23.864-61.496-51.304-78.864c6.56-8.312,10.72-18.456,11.696-29.608
		c40.456,23.504,68.84,64.752,72.192,113.024C433.288,309.436,429.296,332.236,419.792,353.668z"/>
</g>
<g>
</g>
<g>
</g>
<g>
</g>
<g>
</g>
<g>
</g>
<g>
</g>
<g>
</g>
<g>
</g>
<g>
</g>
<g>
</g>
<g>
</g>
<g>
</g>
<g>
</g>
<g>
</g>
<g>
</g>
</svg>
