<?xml version="1.0" encoding="iso-8859-1"?>
<!-- Generator: Adobe Illustrator 19.0.0, SVG Export Plug-In . SVG Version: 6.00 Build 0)  -->
<svg version="1.1" id="Capa_1" xmlns="http://www.w3.org/2000/svg" xmlns:xlink="http://www.w3.org/1999/xlink" x="0px" y="0px"
	 viewBox="0 0 449.24 449.24" style="enable-background:new 0 0 449.24 449.24;" xml:space="preserve">
<g>
	
		<rect x="118.148" y="259.03" transform="matrix(-0.7073 0.7069 -0.7069 -0.7073 454.0761 410.0504)" style="fill:#C0CED8;" width="48" height="79.999"/>
	<path style="fill:#C0CED8;" d="M172.952,393.24l49.064-49.072c5.872-5.88,13.704-9.12,22.016-9.12c8.296,0,16.128,3.232,22,9.12
		l49.072,49.072H172.952z"/>
</g>
<path style="fill:#2D3F50;" d="M383.504,214.288c3.136-6.376,5.056-13.456,5.056-21.048c0-16.688-8.528-31.36-21.448-39.96
	L389,131.408c1.512-1.52,2.36-3.552,2.376-5.72c0.016-2.152-0.816-4.16-2.312-5.648l-67.872-67.896
	c-3.128-3.128-8.2-3.104-11.328,0.008l-107.472,107.48l79.184,79.192l19.04-19.016c8.6,12.912,23.272,21.432,39.944,21.432
	c1,0,1.928-0.232,2.904-0.296c21.504,40.72,14.88,88.888-17.608,121.36c-7.352,7.352-15.704,13.528-24.696,18.392l4.48,4.544
	h-14.016c-12.472,5.208-25.848,8-39.296,8H148.56c-13.232,0-24,10.768-24,24v24h240v-24c-0.64-15.256,3.408-28.96,11.704-40.68
	C410.784,327.872,413.152,266.328,383.504,214.288z"/>
<g>
	
		<rect x="348.787" y="44.819" transform="matrix(-0.7071 0.7071 -0.7071 -0.7071 684.2709 -145.9318)" style="fill:#C0CED8;" width="47.144" height="47.864"/>
	<path style="fill:#C0CED8;" d="M202.672,159.352l-13.08,13.08c-1.168,1.176-1.832,2.752-1.832,4.424v33.448
		c0,1.672,0.656,3.24,1.832,4.424l36.904,36.904c1.168,1.168,2.784,1.832,4.424,1.832h33.44c1.64,0,3.248-0.672,4.424-1.832
		l13.08-13.08L202.672,159.352z"/>
</g>
<path style="fill:#3D586D;" d="M202.392,159.656l39.704,39.688L355.24,86.208l-34.064-34.056c-3.128-3.112-8.184-3.12-11.312,0.008
	L202.392,159.656z"/>
<g>
	<polygon style="fill:#92A2B3;" points="405.64,69.872 372.088,36.32 372.088,103.424 	"/>
	<path style="fill:#92A2B3;" d="M208.048,233.168l18.456,18.456c1.168,1.168,2.784,1.832,4.424,1.832h33.44
		c1.64,0,3.248-0.672,4.424-1.832l12.8-12.8L242,199.232L208.048,233.168z"/>
</g>
<path style="fill:#1B2735;" d="M352.328,261.568l50.016,50.024c4.544-30.464-0.312-61.872-13.832-89.576
	c-8.688,14.376-23.624,24.432-40.56,26.728C349.688,252.928,351.136,257.216,352.328,261.568z"/>
<path style="fill:#C0CED8;" d="M340.56,209.24c-8.84,0-16-7.168-16-16c0-8.84,7.16-16,16-16s16,7.16,16,16
	S349.4,209.24,340.56,209.24z"/>
<g>
	<path style="fill:#010101;" d="M417.352,91.752l11.312-11.312l-67.888-67.888l-11.312,11.312l11.312,11.312L338.144,57.8
		l-11.312-11.312c-6.248-6.248-16.376-6.248-22.624,0c-70.384,70.384-50.288,50.288-120.272,120.272
		c-2.672,2.672-4.176,6.296-4.176,10.08v33.448c0,3.776,1.504,7.408,4.176,10.08l36.904,36.904c2.672,2.672,6.296,4.176,10.08,4.176
		h33.448c3.784,0,7.408-1.504,10.08-4.176c13.752-13.752,23.352-23.352,25.584-25.584c10.752,11.32,24.112,16.824,38.448,17.336
		c18.584,39.4,8.176,81.168-18.272,107.616c-5.216,5.216-11.024,9.456-17.032,13.264L142.2,208.496l-11.312,11.312l107.76,107.76
		c-8.144,1.128-16.016,4.68-22.28,10.944l-11.672,11.672l-22.888-22.888l16.976-16.976l-67.88-67.88l-45.256,45.256l67.88,67.88
		l16.968-16.968l22.888,22.888L169.64,385.24h-21.08c-8.832,0-16.84,3.584-22.624,9.376c-5.792,5.784-9.376,13.784-9.376,22.624v32
		h256c0-40.096-1.8-51.072,10.24-68.056c33.12-46.728,40.032-110.264,9.664-166.952c2.656-6.592,4.096-13.68,4.096-20.992
		c0.016-15.448-7.032-29.808-17.92-40.152c4.152-4.152,8.456-8.456,16.016-16.016c6.248-6.248,6.312-16.448,0.064-22.696
		l-11.312-11.312l-0.096-0.104l22.632-22.632L417.352,91.752z M170.488,315.984l-22.632-22.624c-3.128-3.128-8.184-3.128-11.312,0
		s-3.128,8.184,0,11.312l22.632,22.624l-5.656,5.656l-45.256-45.256l22.624-22.624l45.256,45.256L170.488,315.984z M263.64,245.456
		h-32l-35.88-35.88v-32l6.624-6.624l67.88,67.88L263.64,245.456z M227.68,349.824c4.368-4.368,10.176-6.768,16.352-6.768
		s11.984,2.4,16.352,6.768l35.408,35.416H212.56h-20.296L227.68,349.824z M356.56,433.24h-224v-16c0-8.84,7.16-16,16-16h192
		c8.84,0,16,7.16,16,16V433.24z M369.744,371.928c-4.384,6.184-7.616,12.896-9.84,19.976c-5.384-4.12-12.04-6.664-19.344-6.664
		h-22.104l-3.72-3.728c5.904-3.992,11.6-8.368,16.784-13.544c36.4-36.4,39.032-82.464,23.216-120.76
		c12.664-3.312,20.8-9.216,27.928-17.408C406.312,280.856,396.248,334.536,369.744,371.928z M380.56,193.24
		c0.008,22.088-17.88,40.016-40,40c-21.344,0.016-39.984-18.6-40-40c-0.008-22.088,17.88-40.016,40-40
		C362.688,153.248,380.568,171.16,380.56,193.24z M383.336,125.752c-1.824,1.824-15.984,15.984-17.96,17.96
		c-7.592-3.976-15.976-6.464-24.816-6.472c-30.952-0.008-56.008,25.056-56,56c0,8.904,2.296,17.376,6.192,25.096l-0.8,0.8
		l-8.376,8.376l-67.88-67.88L315.52,57.808C380.552,122.832,367.52,109.752,383.336,125.752z M371.992,91.648L349.464,69.12
		l22.624-22.624l22.528,22.528L371.992,91.648z"/>
	<path style="fill:#010101;" d="M103.976,246.728l11.712-11.712l-15.128-8.72V161.64l28.016-16.168l28-16.16l26.744,15.44
		l11.712-11.712l-2.456-1.416l-28.016-16.168V50.8l56.016-32.328l56,32.328v0.696l12.152-12.152L220.576,0l-64,36.944L92.576,0
		l-72,41.56v83.128l64,36.944v73.888L103.976,246.728z M36.56,115.456V50.8l56.016-32.328l56,32.328v64.656l-28,16.168l-28,16.168
		L36.56,115.456z"/>
</g>
<g>
</g>
<g>
</g>
<g>
</g>
<g>
</g>
<g>
</g>
<g>
</g>
<g>
</g>
<g>
</g>
<g>
</g>
<g>
</g>
<g>
</g>
<g>
</g>
<g>
</g>
<g>
</g>
<g>
</g>
</svg>
