<?xml version="1.0" encoding="iso-8859-1"?>
<!-- Generator: Adobe Illustrator 19.0.0, SVG Export Plug-In . SVG Version: 6.00 Build 0)  -->
<svg version="1.1" id="Capa_1" xmlns="http://www.w3.org/2000/svg" xmlns:xlink="http://www.w3.org/1999/xlink" x="0px" y="0px"
	 viewBox="0 0 464.528 464.528" style="enable-background:new 0 0 464.528 464.528;" xml:space="preserve">
<path style="fill:#CDCCCC;" d="M252.496,112.848c-65.808,0-119.16,53.352-119.16,119.152s53.344,119.16,119.16,119.16
	S371.648,297.808,371.648,232S318.304,112.848,252.496,112.848z"/>
<path style="fill:#FFFFFF;" d="M335.336,262.656c-8.184,22.128-24.504,39.744-45.944,49.6c-11.72,5.392-24.096,8.12-36.792,8.12
	c-34.44,0-65.992-20.208-80.368-51.48c-9.856-21.44-10.776-45.432-2.584-67.56c8.184-22.128,24.504-39.744,45.944-49.6
	c11.72-5.392,24.104-8.12,36.816-8.12c34.432,0,65.968,20.208,80.344,51.472C342.608,216.536,343.528,240.528,335.336,262.656z"/>
<path style="fill:#565656;" d="M407.496,418.552c-3.56,0-6.904-1.392-9.424-3.904l-80.36-80.84l33.968-33.76l80.296,80.768
	c5.184,5.192,5.168,13.632-0.032,18.816l-15.08,15.04C414.368,417.168,411.024,418.552,407.496,418.552z"/>
<polygon style="fill:#454545;" points="364.496,312.936 351.68,300.048 317.712,333.808 364.496,380.864 "/>
<polygon style="fill:#83A6D0;" points="197.224,231.496 197.224,199.584 224.864,183.632 252.496,199.584 252.496,231.496 
	224.864,247.456 "/>
<polygon style="fill:#3A71B2;" points="252.496,231.496 252.496,199.584 280.12,183.632 307.76,199.584 307.76,231.496 
	280.12,247.456 "/>
<polygon style="fill:#A0BCDD;" points="224.864,278.808 224.864,246.896 252.496,230.952 280.12,246.896 280.12,278.808 
	252.496,294.76 "/>
<path style="fill:#CDDCF0;" d="M101.544,351.704c-45.432,44.52-57.056,59.584-57.056,88.824c0,8.832,7.152,16,16,16s16-7.168,16-16
	c0-16.824,7.488-26.8,48-66.496C116.512,366.208,109.296,359.224,101.544,351.704z"/>
<g>
	<path style="fill:#3A71B2;" d="M147.432,112.848c39.936-39.2,57.064-59.88,57.064-88.848c0-8.832-7.16-16-16-16s-16,7.168-16,16
		c0,16.512-11.472,30.648-48.016,66.52C131.224,97.144,138.88,104.568,147.432,112.848z"/>
	<path style="fill:#3A71B2;" d="M60.664,232.32c0-38.64,37.016-71.184,63.8-97.144c-8.384-8.088-16.032-15.496-22.96-22.304
		c-28.456,27.576-72.84,66.616-72.84,119.44c0,91.44,143.832,156.872,143.832,208.208c0,8.832,7.16,16,16,16s16-7.168,16-16
		C204.496,367.968,60.664,307.28,60.664,232.32z"/>
</g>
<g>
	<path style="fill:#CDDCF0;" d="M154.264,164.6c6.08-8.84,13.32-16.808,21.504-23.712c-3.224-3.424-6.472-6.856-10.064-10.352
		C95.888,62.888,76.496,45.672,76.496,24c0-8.832-7.152-16-16-16s-16,7.168-16,16c0,37.024,27.416,60.192,98.904,129.48
		C147.288,157.264,150.904,160.96,154.264,164.6z"/>
	<path style="fill:#CDDCF0;" d="M154.392,299.568c-9.856,10.688-20.472,20.664-29.904,29.816c7.88,7.648,14.696,14.224,22.944,22.32
		c8.648-8.392,18.736-17.824,28.6-28.352C167.8,316.448,160.52,308.44,154.392,299.568z"/>
</g>
<path style="fill:#7BC24D;" d="M147.336,176c-24,0-48.88,0-78.12,0c-8.848,0-16,7.168-16,16s7.152,16,16,16
	c24.68,0,45.976,0,66.544,0C138.072,196.656,142.04,185.92,147.336,176z"/>
<path style="fill:#5886C5;" d="M135.752,256H65.384c3.856,10.2,10.128,20.784,19.096,32c6.96,0,37.52,0,62.848,0
	C142.04,278.08,138.072,267.344,135.752,256z"/>
<path style="fill:#C64047;" d="M140.704,392H82.256c-8.848,0-16,7.168-16,16s7.152,16,16,16h84.64
	C162.944,416.08,155.128,406.736,140.704,392z"/>
<path style="fill:#FDDA5F;" d="M109.088,72h55.072c8.84,0,16-7.168,16-16s-7.16-16-16-16H81.576
	C86.448,48.04,95.144,57.896,109.088,72z"/>
<g>
	<path style="fill:#010101;" d="M437.64,375.168L361.6,298.68c11.904-19.44,18.888-42.216,18.888-66.68c0-70.696-57.312-128-128-128
		c-28.744,0-55.192,9.592-76.552,25.592c-1.552-1.592-2.992-3.176-4.648-4.784l-12.44-12.04
		C195.112,76.752,212.496,54.944,212.496,24c0-13.232-10.768-24-24-24s-24,10.768-24,24c0,2.592-0.488,5.224-1.432,8H85.88
		c-0.912-2.752-1.384-5.376-1.384-8c0-13.232-10.768-24-24-24s-24,10.768-24,24c0,30.008,16.344,51.632,53.6,88.76
		c-29.4,28.224-69.432,66.832-69.432,119.552c0,46.688,33.48,85.432,69.08,119.832c-39.824,39.36-53.256,56.608-53.256,88.384
		c0,13.232,10.768,24,24,24s24-10.768,24-24c0-2.936,0.352-5.648,1.256-8.52h76.992c1.048,2.944,1.752,5.816,1.752,8.52
		c0,13.232,10.768,24,24,24s24-10.768,24-24c0-32.04-24.728-61.088-53.36-88.984c5.44-5.232,11.256-10.944,17.096-16.912
		C197.544,350.496,223.872,360,252.496,360c23.032,0,44.592-6.168,63.264-16.816l76.656,77.104c4.16,4.168,9.616,6.256,15.072,6.256
		c5.44,0,10.88-2.072,15.04-6.216l15.08-15.04C445.936,396.984,445.952,383.496,437.64,375.168z M147.384,101.656
		c-7.608-7.36-6.464-6.28-11.48-11.168c3.8-3.768,7.2-7.216,10.376-10.488h17.888c1.52,0,3-0.176,4.44-0.448
		C162.624,86.192,155.68,93.408,147.384,101.656z M180.496,24c0-4.416,3.592-8,8-8s8,3.584,8,8c0,10.44-2.696,19.8-8.536,29.976
		c-0.608-7.096-4.232-13.296-9.672-17.28C179.624,32.504,180.496,28.352,180.496,24z M164.168,48c4.408,0,8,3.584,8,8s-3.592,8-8,8
		h-54.752c-5.864-6.152-10.488-11.384-14.112-16H164.168z M52.496,24c0-4.416,3.592-8,8-8s8,3.584,8,8
		c0,34.968,53.648,72.016,95.432,115.728c-3.912,3.752-7.6,7.712-11.008,11.936C110.56,107.392,52.496,66.808,52.496,24z
		 M88.632,280c-4.04-5.312-7.688-10.64-10.648-16h50.704c1.416,5.48,3.104,10.832,5.2,16H88.632z M141.76,296
		c0.6,1.032,1.232,2.04,1.856,3.056c-6.64,6.976-12.48,12.792-19.328,19.424c-7.784-7.44-15.312-14.936-22.248-22.48H141.76z
		 M71.464,216H125.6c-0.656,5.256-1.104,10.568-1.104,16s0.448,10.744,1.104,16H71.304c-1.552-5.208-2.64-10.432-2.64-15.68
		C68.664,226.776,69.84,221.36,71.464,216z M61.208,192c0-4.416,3.592-8,8-8h64.672c-2.096,5.168-3.784,10.528-5.192,16h-59.48
		C64.808,200,61.208,196.416,61.208,192z M102.864,168c7.032-7.472,14.272-14.68,21.176-21.304l0.416-0.4
		c7.352,7.104,13.152,12.664,19.088,18.768c-0.6,0.976-1.208,1.944-1.784,2.936C141.76,168,102.864,168,102.864,168z
		 M101.456,124.024c0.024,0.024,10.528,10.216,11.488,11.144c-10.36,9.96-21.56,20.944-31.56,32.832H69.208
		c-3.6,0-6.984,0.856-10.056,2.28C71.888,152.448,87.896,137.04,101.456,124.024z M101.064,362.912
		c3.136,2.944,9.192,8.6,11.704,10.936c-3.376,3.384-6.712,6.848-9.824,10.152c-3.84,0-18.792-0.088-22.4,0.176
		C86.24,377.928,92.976,370.96,101.064,362.912z M68.496,440.52c0,4.416-3.592,8-8,8s-8-3.584-8-8c0-9.88,1.704-18.192,6.36-27.336
		c1.464,6.592,5.664,12.104,11.32,15.432C69.136,432.44,68.496,436.312,68.496,440.52z M82.256,416c-4.408,0-8-3.584-8-8
		s3.592-8,8-8H139.8c5.288,5.52,9.912,10.856,13.776,16H82.256z M196.496,440.52c0,4.416-3.592,8-8,8s-8-3.584-8-8
		c0-57.048-143.832-120.4-143.832-208.208c0-13.576,3.496-26.168,8.784-37.992c0.72,7.368,4.672,13.784,10.536,17.672
		c-1.928,6.576-3.32,13.296-3.32,20.328C52.664,311.584,196.496,373.416,196.496,440.52z M147.592,340.456
		c-7.976-7.512-5.184-4.832-11.568-11.072c5.536-5.32,11.224-11.104,16.888-17.048c3.408,4.216,7.096,8.176,11,11.928
		C158.328,329.976,152.784,335.464,147.592,340.456z M252.496,344c-61.76,0-112-50.24-112-112s50.24-112,112-112s112,50.24,112,112
		S314.248,344,252.496,344z M426.304,393.96L411.224,409c-1.352,1.344-2.92,1.544-3.736,1.544c-0.824,0-2.4-0.2-3.728-1.536
		l-74.424-74.816c8.528-6.424,16.264-13.824,22.952-22.144l74.032,74.416c1.344,1.352,1.544,2.928,1.544,3.744
		C427.864,391.04,427.656,392.608,426.304,393.96z"/>
	<path style="fill:#010101;" d="M252.392,136.008c-69.24,0.008-116.48,72.136-87.072,136.08C180.936,306.048,215.2,328,252.608,328
		c38.352,0,75.36-23.496,89.864-62.696C365.784,202.32,318.744,136.008,252.392,136.008z M327.472,259.744
		C315.408,292.352,284.576,312,252.608,312c-31.184,0-59.744-18.288-72.76-46.6c-24.56-53.4,15.024-113.384,72.544-113.392
		C307.776,152.008,346.864,207.352,327.472,259.744z"/>
	<path style="fill:#010101;" d="M252.496,190.352l-27.64-15.952l-35.632,20.568v41.144l27.632,15.952v31.36L252.496,304
		l35.632-20.576v-31.36l27.632-15.952v-41.144L280.128,174.4L252.496,190.352z M205.224,226.872v-22.664l19.632-11.336
		l19.632,11.336v22.128l-20.104,11.6L205.224,226.872z M272.128,274.184l-19.632,11.336l-19.632-11.336v-22.12l19.632-11.336
		l19.632,11.336V274.184z M299.76,226.872l-19.168,11.064l-20.104-11.6v-22.128l19.632-11.336l19.632,11.336
		C299.76,204.208,299.76,226.872,299.76,226.872z"/>
</g>
<g>
</g>
<g>
</g>
<g>
</g>
<g>
</g>
<g>
</g>
<g>
</g>
<g>
</g>
<g>
</g>
<g>
</g>
<g>
</g>
<g>
</g>
<g>
</g>
<g>
</g>
<g>
</g>
<g>
</g>
</svg>
