<?xml version="1.0" encoding="iso-8859-1"?>
<!-- Generator: Adobe Illustrator 19.0.0, SVG Export Plug-In . SVG Version: 6.00 Build 0)  -->
<svg version="1.1" id="Capa_1" xmlns="http://www.w3.org/2000/svg" xmlns:xlink="http://www.w3.org/1999/xlink" x="0px" y="0px"
	 viewBox="0 0 458.496 458.496" style="enable-background:new 0 0 458.496 458.496;" xml:space="preserve">
<g>
	<path style="fill:#CDDCF0;" d="M287.608,205.248c-3.96-95.384-30.976-160-55.456-160s-51.488,64.616-55.456,160H287.608z"/>
	<path style="fill:#CDDCF0;" d="M176.288,221.248c-0.032,2.68-0.136,5.28-0.136,8c0,108.44,29.52,184,56,184
		c26.48,0,56-75.56,56-184c0-2.72-0.104-5.32-0.136-8C288.016,221.248,176.288,221.248,176.288,221.248z"/>
</g>
<g>
	<path style="fill:#A5BEE2;" d="M232.152,413.248c26.488,0,56-75.56,56-184h-56V413.248z"/>
	<path style="fill:#A5BEE2;" d="M287.608,205.248c-3.96-95.384-30.976-160-55.456-160v160H287.608z"/>
</g>
<polygon style="fill:#3C97D3;" points="85.384,379.312 111.336,405.248 29.96,405.248 29.96,421.248 111.336,421.248 
	85.384,447.184 96.712,458.496 141.96,413.248 96.712,368 "/>
<path style="fill:#010101;" d="M252.696,47.576C246.24,41,239.352,37.248,232.152,37.248h-80v16h54.56
	c-20.312,26.512-35.16,83.592-38.008,152h15.984c4.056-98.52,32.36-152,47.464-152s43.408,53.48,47.464,152H295.6
	c-1.768-42.472-8.176-80.56-17.624-109.744L403.72,221.248H168.152v16h0.136c1.04,75.32,16.472,139.416,38.32,168h-54.456v16h80
	c7.592,0,14.84-4.176,21.6-11.448l0.064,0.136l180.528-180.688L252.696,47.576z M232.152,405.248c-15.896,0-46.4-59.312-47.864-168
	h95.72C278.544,345.936,248.048,405.248,232.152,405.248z M277.976,363.136c10.648-32.8,17.368-76.976,18.04-125.888H403.72
	L277.976,363.136z"/>
<polygon style="fill:#6CC073;" points="79.576,195.312 105.528,221.248 24.152,221.248 24.152,237.248 105.528,237.248 
	79.576,263.184 90.904,274.496 136.152,229.248 90.904,184 "/>
<polygon style="fill:#E64D3C;" points="79.576,11.312 105.528,37.248 24.152,37.248 24.152,53.248 105.528,53.248 79.576,79.184 
	90.904,90.496 136.152,45.248 90.904,0 "/>
<g>
</g>
<g>
</g>
<g>
</g>
<g>
</g>
<g>
</g>
<g>
</g>
<g>
</g>
<g>
</g>
<g>
</g>
<g>
</g>
<g>
</g>
<g>
</g>
<g>
</g>
<g>
</g>
<g>
</g>
</svg>
