<?xml version="1.0" encoding="iso-8859-1"?>
<!-- Generator: Adobe Illustrator 19.0.0, SVG Export Plug-In . SVG Version: 6.00 Build 0)  -->
<svg version="1.1" id="Capa_1" xmlns="http://www.w3.org/2000/svg" xmlns:xlink="http://www.w3.org/1999/xlink" x="0px" y="0px"
	 viewBox="0 0 431.304 431.304" style="enable-background:new 0 0 431.304 431.304;" xml:space="preserve">
<rect x="238.537" y="100.474" transform="matrix(-0.7071 0.7071 -0.7071 -0.7071 563.5076 15.5341)" style="fill:#97AECC;" width="79.999" height="48"/>
<rect x="297.471" y="49.523" transform="matrix(-0.7071 0.7071 -0.7071 -0.7071 614.431 -107.4599)" style="fill:#CED8DF;" width="63.999" height="48"/>
<rect x="183.934" y="75.044" transform="matrix(-0.7071 0.7071 -0.7071 -0.7071 540.8799 70.0466)" style="opacity:0.5;fill:#CDDCF0;enable-background:new    ;" width="143.999" height="143.999"/>
<rect x="222.993" y="124.019" transform="matrix(-0.7071 0.7071 -0.7071 -0.7071 523.9658 111.0043)" style="fill:#97AECC;" width="32" height="79.999"/>
<path style="fill:#7BC24D;" d="M131.487,305.472l-33.944-33.944l23.544-23.544c-13.232-16.344-20.328-30-23.512-37.08l-2.264-5.04
	l59.256-59.256L256.4,248.44l-59.248,59.248l-5.032-2.256c-7.072-3.184-20.704-10.256-37.088-23.504L131.487,305.472z"/>
<path style="fill:#9ECD54;" d="M40.975,418.608c-6.224-6.224-6.24-16.376,0-22.616l11.312-11.312l11.304,11.312
	c3.024,3.024,4.688,7.04,4.688,11.312c0.008,4.28-1.656,8.288-4.68,11.312c-3.024,3.024-7.04,4.696-11.304,4.696
	C48.031,423.304,44.007,421.632,40.975,418.608z"/>
<g>
	<path style="fill:#010101;" d="M52.287,395.992l5.664,5.672c3.112,3.112,3.104,8.176-0.024,11.304
		c-2.024,2.032-4.4,2.336-5.64,2.336s-3.616-0.304-5.672-2.36c-3.112-3.112-3.104-8.176,0.016-11.296L52.287,395.992 M52.295,373.36
		l-16.976,16.976c-9.368,9.368-9.376,24.56-0.016,33.92c4.688,4.688,10.848,7.048,16.992,7.048s12.28-2.344,16.96-7.032
		c9.368-9.368,9.376-24.56,0.016-33.92L52.295,373.36z"/>
	<path style="fill:#010101;" d="M391.703,169.704c-19.648-19.648-36.856-36.856-56.568-56.568l33.944-33.944l22.624,22.624
		l11.312-11.312C382.112,69.608,359.44,46.928,312.504,0l-11.312,11.312l22.624,22.624L289.871,67.88
		c-19.688-19.688-36.944-36.944-56.568-56.568l-11.312,11.312l22.624,22.624c-154.2,154.208-30.256,30.264-158.384,158.384
		c0,0,5.04,18.384,24.184,43.704l-24.192,24.192l16.968,16.968L52.287,339.4v22.624l62.216-62.216l16.968,16.968l24.192-24.192
		c25.312,19.144,43.696,24.192,43.696,24.192l158.392-158.392l22.624,22.624L391.703,169.704z M335.135,45.256l22.624,22.624
		l-33.944,33.944L301.191,79.2L335.135,45.256z M255.936,192.336L210.68,147.08l11.312-11.312
		c21.696,21.696,23.56,23.56,45.256,45.256L255.936,192.336z M244.623,135.768l45.256-45.256l22.624,22.624l-45.256,45.256
		L244.623,135.768z M154.551,271.088l-23.064,23.072l-22.624-22.624l23.064-23.064c-15-17.312-23.152-32.184-27.048-40.84
		l49.696-49.696l90.512,90.512l-49.696,49.696C186.703,294.224,171.839,286.08,154.551,271.088z M255.936,237.592l-90.512-90.52
		l90.512-90.512l22.632,22.632l-45.256,45.256l-11.312-11.312l-11.312,11.312l-11.312,11.312l-11.312,11.312l11.312,11.312
		l45.256,45.256l11.312,11.312l11.312-11.312l11.312-11.312l11.312-11.312l-11.312-11.312l45.256-45.256l22.632,22.632
		L255.936,237.592z"/>
</g>
<g>
</g>
<g>
</g>
<g>
</g>
<g>
</g>
<g>
</g>
<g>
</g>
<g>
</g>
<g>
</g>
<g>
</g>
<g>
</g>
<g>
</g>
<g>
</g>
<g>
</g>
<g>
</g>
<g>
</g>
</svg>
