<?xml version="1.0" encoding="iso-8859-1"?>
<!-- Generator: Adobe Illustrator 19.0.0, SVG Export Plug-In . SVG Version: 6.00 Build 0)  -->
<svg version="1.1" id="Capa_1" xmlns="http://www.w3.org/2000/svg" xmlns:xlink="http://www.w3.org/1999/xlink" x="0px" y="0px"
	 viewBox="0 0 464.528 464.528" style="enable-background:new 0 0 464.528 464.528;" xml:space="preserve">
<path style="fill:#7BC24D;" d="M363.904,295.488l-72.472-41.824v-82.6l72-41.552l72,41.552v83.128L363.904,295.488z"/>
<path style="fill:#B8DCA6;" d="M218.968,295.488l-71.536-41.304v-83.12l72-41.552l72,41.552v82.6L218.968,295.488z"/>
<path style="fill:#DBEDD2;" d="M291.432,419.92l-72-41.568v-82.584l72-41.568l72,41.568v82.584L291.432,419.92z"/>
<polygon style="opacity:0.5;fill:#ABABAB;enable-background:new    ;" points="291.032,254.056 290.856,254 185.856,148.888 
	147.432,171.064 147.432,254.184 218.968,295.488 219.504,295.176 219.432,295.768 219.432,378.352 291.432,419.92 363.432,378.352 
	363.432,326.464 "/>
<path style="fill:#CDDCF0;" d="M101.976,351.704c-45.432,44.52-57.056,59.576-57.056,88.824c0,8.832,7.152,16,16,16s16-7.168,16-16
	c0-16.824,7.488-26.8,48-66.496C116.944,366.208,109.728,359.224,101.976,351.704z"/>
<g>
	<path style="fill:#3A71B2;" d="M147.856,112.848c39.936-39.2,57.064-59.88,57.064-88.848c0-8.832-7.16-16-16-16s-16,7.168-16,16
		c0,16.512-11.472,30.648-48.016,66.52C131.656,97.144,139.312,104.568,147.856,112.848z"/>
	<path style="fill:#3A71B2;" d="M61.096,232.32c0-38.64,37.016-71.184,63.8-97.144c-8.384-8.088-16.032-15.496-22.96-22.304
		c-28.464,27.576-72.84,66.608-72.84,119.44c0,91.44,143.832,156.872,143.832,208.208c0,8.832,7.16,16,16,16s16-7.168,16-16
		C204.92,367.968,61.096,307.28,61.096,232.32z"/>
</g>
<path style="fill:#CDDCF0;" d="M166.144,130.544C96.32,62.888,76.92,45.68,76.92,24c0-8.832-7.152-16-16-16s-16,7.168-16,16
	c0,37.024,27.416,60.192,98.904,129.48c30.64,29.808,44.92,54.856,44.92,78.84c0,38.456-36.88,70.92-63.832,97.064
	c7.88,7.648,14.696,14.224,22.944,22.32c28.568-27.712,72.88-66.696,72.88-119.392C220.752,199.12,203.392,166.776,166.144,130.544z
	"/>
<path style="fill:#7BC24D;" d="M183.576,207.32c-3.96-10-10.208-20.352-19.04-31.32c-29.304,0-58.808,0-94.896,0
	c-8.848,0-16,7.168-16,16s7.152,16,16,16c42.36,0,74.824,0,110.56,0C181.4,208,182.456,207.568,183.576,207.32z"/>
<path style="fill:#5886C5;" d="M84.912,288c11.424,0,86.624,0,97.528,0c8.84,0,16-7.168,16-16s-7.16-16-16-16H65.816
	C69.672,266.2,75.936,276.784,84.912,288z"/>
<path style="fill:#C64047;" d="M141.136,392H82.688c-8.848,0-16,7.168-16,16s7.152,16,16,16h84.64
	C163.368,416.08,155.56,406.736,141.136,392z"/>
<path style="fill:#FDDA5F;" d="M109.52,72h55.072c8.84,0,16-7.168,16-16s-7.16-16-16-16H82.008C86.88,48.04,95.576,57.896,109.52,72
	z"/>
<path style="fill:#010101;" d="M363.432,120.264c-13.936,8.048-51.728,29.864-71.992,41.568l-72.008-41.568l-33.464,19.312
	c-4.408-4.872-9.128-9.784-14.256-14.776l-12.44-12.04C195.536,76.752,212.92,54.944,212.92,24c0-13.232-10.768-24-24-24
	s-24,10.768-24,24c0,2.592-0.488,5.224-1.424,8H86.312c-0.912-2.752-1.384-5.376-1.384-8c0-13.232-10.768-24-24-24s-24,10.768-24,24
	c0,30.008,16.344,51.632,53.6,88.76c-29.392,28.224-69.432,66.832-69.432,119.552c0,46.688,33.48,85.432,69.08,119.832
	c-39.824,39.36-53.256,56.608-53.256,88.384c0,13.232,10.768,24,24,24s24-10.768,24-24c0-2.936,0.352-5.648,1.256-8.52h76.992
	c1.048,2.944,1.752,5.816,1.752,8.52c0,13.232,10.768,24,24,24s24-10.768,24-24c0-32.04-24.728-61.088-53.36-88.984
	c15.432-14.832,33.704-32.552,47.616-53.608l4.256,2.448v82.584l80,46.192l80-46.072v-83.232c29.632-17.112,49.648-28.664,72-41.576
	c0-85.88,0-2.272,0-91.824C427.552,157.288,380.144,129.912,363.432,120.264z M147.816,101.656c-7.608-7.36-6.464-6.28-11.48-11.168
	c3.8-3.768,7.2-7.216,10.376-10.488H164.6c1.52,0,3-0.176,4.44-0.448C163.056,86.192,156.112,93.408,147.816,101.656z M180.92,24
	c0-4.416,3.592-8,8-8s8,3.584,8,8c0,10.44-2.696,19.8-8.536,29.976c-0.608-7.096-4.232-13.296-9.672-17.28
	C180.056,32.512,180.92,28.352,180.92,24z M164.592,48c4.408,0,8,3.584,8,8s-3.592,8-8,8H109.84
	c-5.864-6.152-10.488-11.384-14.112-16H164.592z M101.888,124.032c0.024,0.024,10.528,10.216,11.488,11.144
	c-10.36,9.952-21.56,20.936-31.56,32.832H69.64c-3.6,0-6.984,0.856-10.056,2.28C72.312,152.456,88.328,137.04,101.888,124.032z
	 M71.728,248c-1.544-5.208-2.632-10.432-2.632-15.68c0-5.544,1.176-10.968,2.8-16.32h67.536v32H71.728z M155.432,248v-32h22.816
	c1.664,5.568,2.496,10.992,2.496,16.32c0,5.32-1.08,10.528-2.584,15.68H155.432z M69.64,200c-4.408,0-8-3.584-8-8s3.592-8,8-8
	h90.952c4.232,5.496,7.84,10.832,10.704,16H69.64z M103.296,168c7.032-7.472,14.28-14.68,21.168-21.304l0.416-0.4
	c8.544,8.256,14.984,14.304,21.992,21.704H103.296z M101.496,362.912c3.136,2.944,9.192,8.6,11.704,10.936
	c-3.368,3.384-6.712,6.848-9.824,10.152c-3.84,0-18.792-0.088-22.4,0.176C86.672,377.928,93.408,370.96,101.496,362.912z
	 M68.92,440.528c0,4.416-3.592,8-8,8s-8-3.584-8-8c0-9.88,1.704-18.192,6.36-27.336c1.464,6.592,5.664,12.104,11.32,15.432
	C69.568,432.44,68.92,436.312,68.92,440.528z M82.688,416c-4.408,0-8-3.584-8-8s3.592-8,8-8h57.544
	c5.288,5.52,9.912,10.856,13.776,16H82.688z M196.92,440.528c0,4.416-3.592,8-8,8s-8-3.584-8-8
	c0-57.048-143.832-120.408-143.832-208.208c0-13.576,3.496-26.168,8.784-37.992c0.72,7.368,4.672,13.784,10.536,17.672
	c-1.928,6.576-3.32,13.296-3.32,20.328C53.096,311.584,196.92,373.416,196.92,440.528z M102.464,296h44.528
	c-8.032,8.584-14.392,14.84-22.28,22.48C116.928,311.048,109.4,303.552,102.464,296z M148.024,340.456
	c-7.976-7.512-5.184-4.832-11.568-11.072c10.52-10.112,21.904-21.28,32.016-33.384h13.968c2.616,0,5.088-0.528,7.448-1.304
	C177.232,312.296,161.432,327.56,148.024,340.456z M182.44,280H89.056c-4.04-5.312-7.688-10.64-10.648-16h104.024
	c4.408,0,8,3.584,8,8S186.848,280,182.44,280z M193.864,251.024c1.672-6.072,2.888-12.256,2.888-18.704
	C196.752,152.992,52.92,91.288,52.92,24c0-4.416,3.592-8,8-8s8,3.584,8,8c0,57.184,143.832,119.808,143.832,208.312
	c0,12.088-2.696,23.44-7.016,34.152C204.144,259.784,199.744,254.248,193.864,251.024z M215.336,284.16
	c8.112-15.568,13.416-32.776,13.416-51.848c0-26.824-10.392-52.888-32.232-80.352l22.912-13.224l64,36.944v73.36l-64.472,37.216
	L215.336,284.16z M355.432,373.728l-64,36.952l-64-36.952v-73.344l64-36.952l64,36.952V373.728z M427.432,249.04L364.2,285.552
	l-64.768-36.512v-73.344l64-36.952l64,36.952V249.04z"/>
<g>
</g>
<g>
</g>
<g>
</g>
<g>
</g>
<g>
</g>
<g>
</g>
<g>
</g>
<g>
</g>
<g>
</g>
<g>
</g>
<g>
</g>
<g>
</g>
<g>
</g>
<g>
</g>
<g>
</g>
</svg>
