<?xml version="1.0" encoding="iso-8859-1"?>
<!-- Generator: Adobe Illustrator 19.0.0, SVG Export Plug-In . SVG Version: 6.00 Build 0)  -->
<svg version="1.1" id="Capa_1" xmlns="http://www.w3.org/2000/svg" xmlns:xlink="http://www.w3.org/1999/xlink" x="0px" y="0px"
	 viewBox="0 0 416 416" style="enable-background:new 0 0 416 416;" xml:space="preserve">
<g>
	<path style="fill:#010101;" d="M208,23.944c6.944,0,15.328,8.048,22.36,22.392c4.8-1.248,11.096-2.824,15.736-3.88
		C236.48,21.256,222.992,8,208.016,8c0,0-0.008,0-0.016,0c-17.144,0-29.512,14.608-37.976,34.232
		c5.2,0.904,10.504,2.048,15.936,3.552C192.112,32.64,199.72,23.944,208,23.944z"/>
	<path style="fill:#010101;" d="M259.008,91.8c-1.144-9.264-2.808-18.032-4.968-26.192c5.32-0.856,10.496-1.448,15.232-1.448
		c11.808,0,19.408,2.784,22.576,8.296c3.472,6.016,0.296,17.504-8.208,30.208c3.896,3.792,7.672,7.712,11.208,11.816
		c13.544-18.888,18.304-37.12,10.856-50.024C298.896,52.64,285.36,48.16,269.272,48.16c-18.984,0-41.456,6.248-60.752,13.992
		c-21.744-9.208-42.648-14.016-59.792-14.016c-18.168,0-32.128,5.312-38.44,16.24c-7.448,12.88-2.768,31.064,10.672,49.928
		c3.384-4.04,7.128-8.056,11.16-12.016c-8.336-12.584-11.432-23.936-7.976-29.912c2.984-5.16,12.168-8.24,24.584-8.24
		c4.24,0,8.824,0.448,13.536,1.128c-2.224,8.592-3.88,17.408-5.048,25.92c-38.696,29.288-59.2,64.824-46.968,86.016
		c6.808,11.808,20.344,16.288,36.432,16.288c4.016,0,8.224-0.36,12.488-0.88c-1.864-4.944-3.552-10.168-5.016-15.656
		c-2.528,0.224-5.12,0.536-7.48,0.536c-11.808,0-19.4-2.784-22.568-8.28c-3.976-6.888,0.32-20.704,12.736-36.552
		c6.016,6.016,12.752,11.912,20.248,17.608c6.224,47.12,26.6,81.736,50.84,81.736c0.008,0,0.016,0,0.024,0
		c18.832,0,31.888-17.624,40.336-40.184c6.68,1.112,13.032,1.68,18.936,1.68c18.168,0,32.12-5.312,38.424-16.24
		C320.648,151.36,289.664,115.656,259.008,91.8z M268.112,120.992c-2.392,2.4-4.856,4.768-7.504,7.12
		c0.128-2.776,0.256-5.56,0.256-8.088c0-2.064-0.176-4.024-0.224-6.056C263.184,116.232,265.672,118.576,268.112,120.992z
		 M238.592,68.864c0.872,3.24,1.68,6.608,2.4,10.144c-2.248-1.432-4.44-2.76-6.552-3.984c-1.96-1.136-3.92-2.128-5.88-3.192
		C231.896,70.752,235.248,69.76,238.592,68.864z M178.04,68.504c3.288,0.88,6.624,1.88,10,3.008
		c-2.248,1.176-4.504,2.352-6.488,3.496c-2.048,1.184-4,2.424-5.992,3.648C176.296,75.168,177.144,71.832,178.04,68.504z
		 M147.544,120.624c2.4-2.408,4.944-4.832,7.688-7.264c-0.088,2.288-0.136,4.504-0.136,6.624c0,2.704,0.104,5.36,0.184,8.016
		C152.552,125.56,150,123.112,147.544,120.624z M175.432,162.784c2.048,1.264,3.976,2.592,6.088,3.816
		c1.912,1.104,3.832,2.08,5.752,3.12c-3.168,1.016-6.304,1.904-9.472,2.752C176.936,169.344,176.144,166.112,175.432,162.784z
		 M207.928,216.056c-7.272,0-16.072-9.072-22.96-23.672c-0.696-1.48-1.336-3.088-1.984-4.664c8.384-2.32,16.672-5.12,24.448-8.24
		c8.576,3.632,16.992,6.544,25.128,8.768C226.04,204.712,217.424,216.056,207.928,216.056z M291.808,169.264
		c-2.976,5.16-12.16,8.232-24.576,8.232c-21.84,0-50.888-9.256-77.704-24.752c-6.096-3.52-11.856-7.376-17.416-11.352
		c-0.696-7-1.08-14.168-1.072-21.416c0-6.56,0.504-13.32,1.216-20.08c5.336-3.76,11.088-7.464,17.288-11.04
		c5.504-3.176,11.896-6.352,18.728-9.328c6.096,2.8,12.184,5.888,18.16,9.336c5.072,2.928,11.176,6.92,17.624,11.648
		c0.544,6.2,0.864,12.68,0.856,19.48c0,7.048-0.48,14.328-1.296,21.576c-5.504,3.912-11.192,7.704-17.216,11.176
		c-2.808,1.616-5.856,3.232-9.056,4.832c6.848,2.872,13.608,5.264,20.176,7.128c0.872-0.52,1.648-1.088,2.512-1.616
		c-0.16,0.728-0.28,1.488-0.448,2.208c5.4,1.456,10.592,2.504,15.568,3.2c1.36-6.024,2.376-12.048,3.24-17.984
		c7.6-5.744,14.464-11.688,20.56-17.76C285.696,141.048,298.016,158.528,291.808,169.264z"/>
	<circle style="fill:#010101;" cx="207.952" cy="120" r="16"/>
</g>
<path style="fill:#7E4E2C;" d="M327.984,400H248v-81.552c0.096-12.896,5.616-25.216,15.152-33.888l80.992-75.44
	c3.664-3.664,9.104-5.44,14.528-5.024c4.064,0.368,7.76,1.984,10.704,4.688c-1.552-1.44-3.296-2.544-5.2-3.344l-5.488-2.304
	l10.704-105.744C370.384,87.472,378.672,80,388.64,80c10.672,0,19.344,8.672,19.344,19.344v159.488
	c0,8.496-3.296,16.496-9.264,22.528l-60.528,61.088c-6.544,6.224-10.208,14.672-10.208,23.376V400z"/>
<path style="fill:#010101;" d="M336,408h-96v-89.616c0.112-15.104,6.56-29.552,17.68-39.68l80.816-75.232
	c3.472-3.472,7.952-5.84,12.832-6.88l10.128-100.016C362.864,82.56,374.56,72,388.656,72C403.728,72,416,84.272,416,99.344v159.488
	c0,10.608-4.112,20.608-11.584,28.16l-60.72,61.28c-4.96,4.704-7.696,11.04-7.696,17.552V408z M256,392h64v-26.176
	c0-10.912,4.56-21.472,12.512-28.992l60.528-61.088c4.496-4.544,6.96-10.544,6.96-16.912V99.344C400,93.088,394.912,88,388.656,88
	c-5.84,0-10.704,4.384-11.296,10.208l-10.096,99.84c3.104,1.296,5.936,3.184,8.368,5.648c4.992,4.976,7.728,11.6,7.728,18.656
	s-2.752,13.68-7.744,18.672l-62.704,56.88l-10.752-11.84l62.416-56.608c1.68-1.696,2.784-4.32,2.784-7.088s-1.088-5.392-3.056-7.36
	c-2.144-2.144-4.656-2.768-6.4-2.928c-3.152-0.32-6.128,0.752-8.304,2.928l-81.072,75.504c-7.92,7.2-12.448,17.36-12.528,27.968V392
	z"/>
<path style="fill:#7E4E2C;" d="M87.984,365.824c0-8.704-3.648-17.152-10.192-23.376L17.264,281.36
	C11.296,275.328,8,267.328,8,258.832V99.344C8,88.672,16.672,80,27.344,80c9.968,0,18.256,7.472,19.248,17.392l10.704,105.744
	l-5.488,2.304c-1.904,0.8-3.664,1.904-5.2,3.344c2.944-2.704,6.64-4.32,10.704-4.688c5.424-0.4,10.88,1.376,14.528,5.024
	l80.992,75.44c9.552,8.672,15.056,20.992,15.152,33.888V400h-80C87.984,400,87.984,365.824,87.984,365.824z"/>
<path style="fill:#010101;" d="M80,365.824c0-6.512-2.736-12.864-7.696-17.568l-60.72-61.28C4.112,279.44,0,269.44,0,258.832V99.344
	C0,84.272,12.272,72,27.344,72c14.096,0,25.792,10.56,27.2,24.576l10.128,100.016c4.88,1.024,9.36,3.408,12.832,6.88l80.816,75.232
	c11.12,10.144,17.584,24.576,17.68,39.68V408H80V365.824z M160,318.448c-0.08-10.608-4.608-20.768-12.528-27.968L66.4,214.976
	c-2.176-2.176-5.136-3.232-8.304-2.928c-1.744,0.16-4.272,0.784-6.4,2.928c-1.968,1.968-3.056,4.576-3.056,7.36
	s1.088,5.392,2.784,7.088l62.416,56.608l-10.752,11.84l-62.704-56.88C35.392,236,32.64,229.376,32.64,222.32
	s2.752-13.68,7.728-18.656c2.432-2.448,5.264-4.336,8.368-5.648L38.64,98.176C38.048,92.384,33.184,88,27.344,88
	C21.088,88,16,93.088,16,99.344v159.488c0,6.368,2.464,12.368,6.96,16.912l60.528,61.088C91.44,344.352,96,354.928,96,365.824V392
	h64V318.448z"/>
<path id="SVGCleanerId_0" style="fill:#C64047;" d="M235.888,76.92c3.824,14.272,6.304,31.456,6.304,51.096
	c-0.016,43.504-16.512,96.048-36.992,96.048c-7.272,0-16.072-9.072-22.96-23.672c-8.864-18.8-13.944-45.184-13.936-72.392
	c0.016-43.504,16.504-96.048,36.96-96.048c7.496,0,16.648,9.448,23.976,26.016c5.272-1.456,10.528-2.624,15.728-3.568
	c-9.68-23.432-23.832-38.384-39.688-38.384c0,0-0.008,0-0.016,0c-38.272,0-52.888,72.584-52.904,111.984
	c-0.024,61.832,23.64,112,52.84,112c0.008,0,0.016,0,0.024,0c38.264,0,52.888-72.584,52.904-111.984
	c0.008-19.76-2.424-38.304-6.664-54.424C246.4,74.4,241.2,75.504,235.888,76.92z"/>
<path id="SVGCleanerId_1" style="fill:#3A71B2;" d="M184.68,177.8c-14.168,4.6-28.688,7.688-40.728,7.688
	c-11.808,0-19.4-2.784-22.568-8.28c-7.512-13.024,14.24-50.792,65.432-80.328c5.504-3.176,11.896-6.352,18.728-9.328
	c-6.792-3.12-13.576-5.808-20.232-8.024c-2.248,1.176-4.504,2.352-6.488,3.496c-17.528,10.112-32.68,21.776-44.72,33.776
	c0.008,0.008,0.016,0.024,0.024,0.032c-4,3.976-7.584,7.984-10.856,12c-0.024-0.024-0.04-0.048-0.056-0.08
	c-17.232,21.136-23.976,42.096-15.688,56.464c6.808,11.808,20.344,16.288,36.432,16.288c18.984,0,41.464-6.248,60.76-14
	C198.08,184.68,191.392,181.432,184.68,177.8z"/>
<path style="fill:#ECF5E9;" d="M297.384,128.864c0.728-0.984,1.528-1.96,2.216-2.944c15.344-21.992,19.008-42.4,10.304-57.464
	c-5.328-9.264-17.176-20.304-43.368-20.304c-4.792,0-9.864,0.488-15.016,1.176C240.44,23.92,223.992,8,205.272,8
	c-13.568,0-32.28,7.336-46.16,41c-4.496-0.512-8.912-0.864-13.112-0.864c-21.712,0-37.832,7.184-45.368,20.232
	c-8.712,15.072-5.056,35.488,10.288,57.496c0.696,0.992,1.504,1.976,2.232,2.968c-16.328,22.216-21.84,44.264-12.56,60.352
	c5.336,9.256,17.192,20.288,43.36,20.288c4.976,0,10.248-0.528,15.616-1.264c0.352,0.776,0.656,1.616,1.016,2.376
	C171.96,234.712,187.816,248,205.224,248c13.36,0,31.712-7.072,45.528-39.448c4.72,0.56,9.352,0.944,13.752,0.944
	c21.712,0,37.824-7.184,45.344-20.232C316.64,177.552,319.624,157.736,297.384,128.864z M143.952,177.488
	c-8.248,0-14.096-1.6-15.64-4.288c-1.056-1.84-0.464-8.976,6.864-20.368c3.72,3.368,7.584,6.68,11.688,9.888
	c0.728,4.936,1.656,9.728,2.688,14.416C147.664,177.288,145.728,177.488,143.952,177.488z M147.032,94.8
	c-4.128,3.224-8.08,6.496-11.76,9.84c-7.216-11.328-7.88-18.6-6.92-20.264c0.768-1.328,6.272-4.24,17.648-4.24
	c1.184,0,2.464,0.128,3.688,0.192C148.64,85.216,147.744,90.056,147.032,94.8z M205.272,39.944c3.2,0,9.016,5.656,14.592,16.664
	c-4.776,1.512-9.488,3.152-14.072,4.912c-4.952-2.008-9.888-3.848-14.768-5.424C195.88,46.016,201.096,39.944,205.272,39.944z
	 M205.2,216.056c-1.896,0-7.696-3.992-13.76-15.264c4.504-1.448,8.944-3.016,13.264-4.68c4.72,1.912,9.408,3.664,14.064,5.184
	C214.112,210.536,209.184,216.056,205.2,216.056z M266.536,80.152c8.248,0,14.104,1.6,15.648,4.296
	c0.968,1.68,0.264,9.08-7.176,20.608c-3.672-3.32-7.384-6.52-11.104-9.496c-0.712-5.176-1.536-10.24-2.576-15.096
	C263.08,80.352,264.896,80.152,266.536,80.152z M282.152,173.264c-0.768,1.328-6.272,4.24-17.648,4.24
	c-1.296,0-2.696-0.136-4.04-0.208c1.056-4.776,1.992-9.544,2.728-14.208c4.256-3.304,8.264-6.712,12.104-10.184
	C281.392,161.952,284.176,169.768,282.152,173.264z"/>
<path style="fill:#3A71B2;" d="M225.184,178.12c2.248-1.168,4.504-2.352,6.488-3.496c17.504-10.096,32.632-21.736,44.664-33.712
	c-0.424-0.52-0.824-1.008-1.2-1.456c-3-3.568-6.28-7.008-9.664-10.36c-11.424,11.44-25.84,22.464-41.8,31.672
	c-5.504,3.176-11.888,6.352-18.72,9.328C211.744,173.216,218.528,175.896,225.184,178.12z"/>
<g>
	<path id="SVGCleanerId_1_1_" style="fill:#3A71B2;" d="M184.68,177.8c-14.168,4.6-28.688,7.688-40.728,7.688
		c-11.808,0-19.4-2.784-22.568-8.28c-7.512-13.024,14.24-50.792,65.432-80.328c5.504-3.176,11.896-6.352,18.728-9.328
		c-6.792-3.12-13.576-5.808-20.232-8.024c-2.248,1.176-4.504,2.352-6.488,3.496c-17.528,10.112-32.68,21.776-44.72,33.776
		c0.008,0.008,0.016,0.024,0.024,0.032c-4,3.976-7.584,7.984-10.856,12c-0.024-0.024-0.04-0.048-0.056-0.08
		c-17.232,21.136-23.976,42.096-15.688,56.464c6.808,11.808,20.344,16.288,36.432,16.288c18.984,0,41.464-6.248,60.76-14
		C198.08,184.68,191.392,181.432,184.68,177.8z"/>
</g>
<path style="fill:#3A71B2;" d="M225.824,79.832c14.168-4.6,28.68-7.68,40.712-7.68c11.808,0,19.408,2.784,22.576,8.296
	c3.616,6.264,0.088,18.424-9.208,31.744c-1.152,1.648-2.448,3.304-3.744,4.952c3.904,3.84,7.648,7.784,11.056,11.832
	c17.28-21.16,24.048-42.152,15.752-56.528c-6.808-11.816-20.344-16.296-36.432-16.296c-18.984,0-41.456,6.248-60.752,13.992
	C212.424,72.96,219.12,76.2,225.824,79.832z"/>
<g>
	<path id="SVGCleanerId_0_1_" style="fill:#C64047;" d="M235.888,76.92c3.824,14.272,6.304,31.456,6.304,51.096
		c-0.016,43.504-16.512,96.048-36.992,96.048c-7.272,0-16.072-9.072-22.96-23.672c-8.864-18.8-13.944-45.184-13.936-72.392
		c0.016-43.504,16.504-96.048,36.96-96.048c7.496,0,16.648,9.448,23.976,26.016c5.272-1.456,10.528-2.624,15.728-3.568
		c-9.68-23.432-23.832-38.384-39.688-38.384c0,0-0.008,0-0.016,0c-38.272,0-52.888,72.584-52.904,111.984
		c-0.024,61.832,23.64,112,52.84,112c0.008,0,0.016,0,0.024,0c38.264,0,52.888-72.584,52.904-111.984
		c0.008-19.76-2.424-38.304-6.664-54.424C246.4,74.4,241.2,75.504,235.888,76.92z"/>
</g>
<g>
	<path style="fill:#7BC24D;" d="M144.728,128.72c-4.08,4.104-7.536,8.12-10.6,12.048c6.064,6.048,12.904,12.008,20.456,17.728
		c-0.952-7.16-1.616-14.536-1.88-22.2C149.888,133.808,147.264,131.272,144.728,128.72z"/>
	<path style="fill:#7BC24D;" d="M231.712,83.024C201.072,65.328,169.896,56.136,146,56.136c-18.168,0-32.128,5.312-38.44,16.24
		c-8.304,14.36-1.52,35.312,15.704,56.44c3.272-4.008,6.864-8.016,10.856-12c-1.224-1.56-2.44-3.12-3.52-4.672
		c-9.296-13.328-12.816-25.496-9.192-31.768c2.984-5.16,12.168-8.24,24.584-8.24c21.832,0,50.88,9.248,77.704,24.744
		c14.048,8.12,35.944,24.136,51.432,42.576c6.376,7.592,20.496,26.472,13.936,37.808c-2.976,5.16-12.16,8.232-24.568,8.232
		c-21.84,0-50.888-9.256-77.704-24.752c-5.968-3.448-11.728-7.152-17.2-11.032c0.752,7.344,1.8,14.48,3.256,21.264
		c1.968,1.216,3.904,2.448,5.936,3.616c30.64,17.704,61.816,26.896,85.712,26.896c18.168,0,32.12-5.312,38.432-16.232
		C322.104,152.136,266.056,102.872,231.712,83.024z"/>
</g>
<path style="fill:#231F20;" d="M292.256,128.92c1.384-1.76,2.824-3.512,4.064-5.288c14.408-20.648,18-39.536,10.128-53.184
	c-6.992-12.144-20.424-18.304-39.904-18.304c-5.576,0-11.488,0.568-17.536,1.512C238.264,27.216,222.48,12,205.272,12
	c-20.752,0-34.704,18.248-43.616,41.368c-5.4-0.736-10.68-1.224-15.656-1.224c-20.224,0-35.112,6.48-41.896,18.24
	c-8.528,14.768-3.304,35.912,14.096,58.328c-16.824,21.656-23,43.12-14.136,58.496c7,12.136,20.424,18.288,39.888,18.288
	c5.728,0,11.84-0.696,18.064-1.704c0.72,1.72,1.416,3.472,2.184,5.112c10.68,22.64,25.24,35.112,41.024,35.112
	c20.288,0,34.088-17.432,43.016-39.808c5.616,0.792,11.096,1.312,16.264,1.312c20.224,0,35.104-6.48,41.88-18.232
	C315.432,171.656,310.448,151.504,292.256,128.92z M299.512,74.456c6.24,10.808,2.776,26.648-9.76,44.608
	c-0.856,1.224-1.832,2.44-2.76,3.664c-1.808-2.016-3.64-4-5.544-5.936c0.576-0.768,1.208-1.536,1.744-2.304
	c10.344-14.816,13.856-28.288,9.392-36.024c-3.936-6.832-12.696-10.304-26.048-10.304c-3.824,0-7.912,0.368-12.12,0.928l-3.584,0.56
	c-0.056,0.008-0.112,0.024-0.168,0.032l-0.112,0.048c-4.704,0.776-9.504,1.784-14.4,3.064c-0.416,0.104-0.888,0.16-1.296,0.272
	l-3.864,1.032c-1.528,0.448-3.032,1.032-4.56,1.512c-3.408-1.824-6.832-3.536-10.256-5.16c16.832-5.992,34.944-10.296,50.36-10.296
	C282.96,60.152,294.048,64.968,299.512,74.456z M241.736,84.512c-0.328-1.568-0.608-3.168-0.976-4.696
	c2.576-0.616,5.168-1.168,7.736-1.648c0.984,4.08,1.76,8.336,2.464,12.648C247.784,88.536,244.696,86.424,241.736,84.512z
	 M259.968,97.576c-0.92-7.128-2.136-14.04-3.696-20.672c3.56-0.44,7.024-0.744,10.264-0.744c7.072,0,16.12,1.088,19.12,6.296
	c2.28,3.96,0.384,13.984-9.024,27.448c-0.28,0.4-0.616,0.808-0.92,1.216C270.56,106.256,265.248,101.736,259.968,97.576z
	 M185.472,58.576c5.824-13.664,12.888-22.632,19.8-22.632c4.896,0,13.016,7.36,20.104,23.144c-6.648,1.976-13.2,4.296-19.512,6.776
	C198.992,63.016,192.176,60.56,185.472,58.576z M205.288,20c13.264,0,26.368,13.112,35.664,35.136
	c-2.584,0.544-5.184,1.136-7.784,1.8c-7.904-18.16-18.184-28.992-27.896-29c-11.352,0-20.688,11.8-27.6,28.456
	c-2.616-0.648-5.176-1.152-7.744-1.656C177.848,34.984,189.392,20,205.288,20z M144.448,134.808c0.12-0.128,0.256-0.248,0.376-0.376
	c1.224,1.184,2.48,2.368,3.768,3.536c0.152,3.776,0.392,7.512,0.72,11.2c-3.392-2.832-6.656-5.736-9.76-8.704
	c0.304-0.368,0.6-0.736,0.912-1.104C141.768,137.808,143.088,136.28,144.448,134.808z M134.584,146.648
	c5.008,4.76,10.328,9.368,15.984,13.736c0.976,7.008,2.272,13.784,3.864,20.264c-3.632,0.48-7.192,0.832-10.48,0.832
	c-7.064,0-16.112-1.088-19.112-6.288C122.424,170.992,124.576,160.568,134.584,146.648z M150.776,97.112
	c-5.832,4.448-11.264,9-16.2,13.648c-0.216-0.304-0.472-0.6-0.68-0.904c-9.4-13.488-11.296-23.52-9-27.48
	c1.656-2.88,8.176-6.24,21.112-6.24c2.76,0,5.648,0.168,8.632,0.472C153.016,83.496,151.736,90.416,150.776,97.112z
	 M143.952,197.488c-16.408,0-27.504-4.808-32.968-14.288c-7.352-12.744-0.744-32.08,15.344-51.808
	c3.144-3.856,6.592-7.64,10.128-11.192c3.96-3.992,8.304-7.944,12.944-11.816c-0.376,3.896-0.632,7.608-0.8,11.144
	c-1.304,1.176-2.6,2.36-3.848,3.552l-2.864,2.832c-0.016,0.016-0.024,0.032-0.04,0.048c-4.872,4.904-9.28,9.888-12.984,14.904
	c-11.624,15.744-15.72,30.08-10.952,38.344c3.936,6.824,12.704,10.288,26.04,10.288c3.944,0,8.232-0.48,12.608-1.104
	c0.792,2.672,1.64,5.272,2.536,7.816C153.88,196.952,148.76,197.488,143.952,197.488z M205.2,236
	c-12.496,0-24.48-10.84-33.768-30.52c-5.184-10.992-9.08-23.968-11.632-38.088l-1.256-9.416c-1-7.472-1.6-14.608-1.848-21.808
	l-0.064-1.72l-0.136-0.12c-0.056-2.112-0.144-4.208-0.144-6.336c0.008-14.008,2.072-32.504,6.352-50.248
	c2.496,0.44,5.072,1.024,7.664,1.64c-3.88,16-6.072,33.36-6.08,48.608c0,4.496,0.184,8.96,0.448,13.384l0.056,0.808
	c1.448,22.616,6.272,43.912,13.816,59.904c7.672,16.264,17.608,25.968,26.576,25.968c11.024,0,20.144-11.12,26.992-26.992
	c2.616,0.664,5.176,1.184,7.736,1.704C232.032,221.752,220.688,236,205.2,236z M259.472,160.64c5.84-4.464,11.328-9.08,16.368-13.84
	c7.688,10.272,13.496,22.016,9.768,28.464c-1.664,2.88-8.184,6.24-21.112,6.24c-2.88,0-5.904-0.2-9.024-0.528
	C257.144,174.168,258.472,167.312,259.472,160.64z M260.912,149.328c0.416-4,0.72-7.832,0.912-11.472
	c1.192-1.072,2.384-2.144,3.528-3.232c1.88,1.952,3.688,3.952,5.44,5.984C267.68,143.568,264.376,146.472,260.912,149.328z
	 M254.016,123.832c0.04,1.392,0.12,2.784,0.12,4.184c-0.008,14.424-2.192,33.6-6.744,51.824c-2.496-0.448-5.08-1.04-7.672-1.664
	c4.128-16.424,6.464-34.416,6.472-50.168c0-3.768-0.24-7.416-0.44-11.08C248.512,119.12,251.272,121.432,254.016,123.832z
	 M233.824,168.592c-1.384,0.864-2.728,1.744-4.16,2.568c-1.496,0.864-3.24,1.728-4.872,2.6c-3.352-1.152-6.72-2.424-10.12-3.816
	c3.904-1.88,7.664-3.784,11.008-5.704c3.488-2.008,6.76-4.224,10.072-6.408C235.184,161.472,234.568,165.088,233.824,168.592z
	 M237.384,110.624c0.48,5.68,0.816,11.44,0.816,17.384c0,6.464-0.472,12.936-1.128,19.352c-4.936,3.464-10.016,6.84-15.384,9.936
	c-4.936,2.848-10.728,5.64-16.792,8.328c-5.392-2.544-10.776-5.28-16.08-8.344c-5.328-3.08-10.496-6.448-15.504-9.936
	c-0.592-6.352-1-12.792-1-19.36c0-5.896,0.392-11.8,0.952-17.664c4.976-3.472,10.112-6.848,15.568-10
	c4.936-2.848,10.736-5.64,16.8-8.328c5.392,2.536,10.784,5.28,16.08,8.336C226.248,102.968,231.664,106.504,237.384,110.624z
	 M224.4,198.888c-5.704,12.84-12.52,21.168-19.192,21.168c-4.608,0-12.376-6.616-19.344-21.384
	c-0.064-0.136-0.112-0.296-0.168-0.432c6.432-1.928,12.736-4.12,18.84-6.52C211.216,194.504,217.864,196.928,224.4,198.888z
	 M182.76,190.904c-0.936-2.488-1.824-5.032-2.64-7.712c1.304-0.376,2.608-0.792,3.912-1.192c3.408,1.816,6.816,3.536,10.24,5.16
	C190.472,188.504,186.64,189.76,182.76,190.904z M184.824,93.408c-3.592,2.072-6.96,4.32-10.36,6.544
	c0.528-3.624,1.104-7.216,1.808-10.704c1.52-0.928,3-1.872,4.552-2.776c1.496-0.864,3.24-1.728,4.872-2.6
	c3.352,1.152,6.728,2.424,10.128,3.824C191.92,89.576,188.16,91.48,184.824,93.408z M299.472,183.264
	c-5.304,9.184-17.72,14.24-34.96,14.24c-24.216,0-54.728-9.608-83.712-26.36c-1.496-0.864-2.928-1.76-4.376-2.656l-1.8-10.52
	c3.328,2.168,6.736,4.256,10.184,6.248c27.392,15.832,57.184,25.288,79.704,25.288c14.064,0,24.28-3.728,28.032-10.232
	c7.544-13.04-5.744-32.152-14.336-42.384c-15.832-18.84-38.168-35.192-52.496-43.472c-27.4-15.832-57.192-25.28-79.704-25.28
	c-14.072,0-24.288,3.736-28.04,10.24c-4.48,7.744-0.976,21.216,9.368,36.056c0.48,0.688,0.984,1.376,1.504,2.072
	c-1.864,1.944-3.696,3.936-5.464,5.968c-14.504-19.176-19.024-36.544-12.352-48.096c5.304-9.184,17.728-14.24,34.976-14.24
	c24.2,0,54.712,9.608,83.712,26.352c15.6,9.016,38.152,25.64,54.616,45.248C296.472,146.192,308.952,166.864,299.472,183.264z"/>
<circle style="fill:#EA7A26;" cx="205.224" cy="128" r="20"/>
<path style="fill:#231F20;" d="M205.224,112c8.824,0,16,7.176,16,16s-7.176,16-16,16s-16-7.176-16-16S196.408,112,205.224,112
	 M205.224,104c-13.256,0-24,10.744-24,24s10.744,24,24,24c13.256,0,24-10.744,24-24S218.48,104,205.224,104z"/>
<g>
</g>
<g>
</g>
<g>
</g>
<g>
</g>
<g>
</g>
<g>
</g>
<g>
</g>
<g>
</g>
<g>
</g>
<g>
</g>
<g>
</g>
<g>
</g>
<g>
</g>
<g>
</g>
<g>
</g>
</svg>
