<?xml version="1.0" encoding="iso-8859-1"?>
<!-- Generator: Adobe Illustrator 19.0.0, SVG Export Plug-In . SVG Version: 6.00 Build 0)  -->
<svg version="1.1" id="Capa_1" xmlns="http://www.w3.org/2000/svg" xmlns:xlink="http://www.w3.org/1999/xlink" x="0px" y="0px"
	 viewBox="0 0 472 472" style="enable-background:new 0 0 472 472;" xml:space="preserve">
<path style="fill:#F5DDCF;" d="M23.235,376.032l80.416-79.168C119.107,281.024,141.203,272,164.355,272
	c13.936,0,27.664,3.232,39.664,9.36c16,8.552,35.096,6.624,74.624,6.624c10.192,0,29.472,5.008,29.472,24.016
	c0,16.544-17.232,24-29.472,24h-50.768c-8.832,0-16,7.16-16,16s7.168,16,16,16l85.664-0.016c0,0,96.544-79.52,100.688-81.792
	s12.08-5.84,20.496-5.84c6.04,0,17.104,2.928,17.376,8.864c0.28,4.232-109.248,125.304-112.064,128.464
	c-10.336,9.152-23.968,14.336-38.16,14.336H135.587l-28.96,27.408L23.235,376.032z"/>
<path style="fill:#010101;" d="M164.355,280c12.672,0,25.136,2.928,35.744,8.336c17.832,9.544,36.456,7.648,78.544,7.648
	c0.208,0,21.472,0.176,21.472,16c0,10.912-12.816,16-21.472,16h-51.84c-11.152,0-22.928,8.08-22.928,25.072
	c0,12.64,10.224,22.928,22.928,22.928l89.568-0.016c0,0,94.24-78.56,101.84-82.72s16.864-6.912,24.704-3.056l-108.544,121.76
	c-9.04,7.76-20.544,12.032-32.464,12.032l-169.776,0.032l-24.256,25.344l-73.28-73.28l74.896-73.744
	C123.331,288.144,143.331,280,164.355,280 M164.355,264c-26.432,0-50.096,10.544-66.32,27.168L11.875,376l96,96l32-32h162.032
	c16.128,0,31.696-5.92,43.744-16.624l109.712-123.072c6.704-5.952,6.32-16.896-1.088-21.936c-14-9.488-30.496-6.8-45.104,1.632
	c-14.608,8.432-98.48,80.144-98.48,80.144l-82.56,0.016c-3.84,0-8-4.32-8-8.144c0-4.496,3.92-8,8-8h50.512
	c17.68,0,37.472-11.52,37.472-32c0-21.76-19.792-32-37.472-32c-33.632,0-56.024,2.264-70.992-5.744
	C194.851,267.712,180.099,264,164.355,264z"/>
<path id="SVGCleanerId_0" style="fill:#C64047;" d="M346.483,68.92c3.824,14.272,6.304,31.456,6.304,51.096
	c-0.016,43.504-16.512,96.048-36.992,96.048c-7.272,0-16.072-9.072-22.96-23.672c-8.864-18.8-13.944-45.184-13.936-72.392
	c0.016-43.504,16.504-96.048,36.96-96.048c7.496,0,16.648,9.448,23.976,26.016c5.272-1.448,10.528-2.624,15.728-3.568
	c-9.68-23.448-23.824-38.392-39.688-38.4c0,0-0.008,0-0.016,0c-38.272,0-52.888,72.584-52.904,111.984
	C262.931,181.832,286.595,232,315.795,232c0.008,0,0.016,0,0.024,0c38.264,0,52.888-72.584,52.904-111.984
	c0-19.76-2.432-38.304-6.664-54.424C356.995,66.4,351.787,67.504,346.483,68.92z"/>
<path id="SVGCleanerId_1" style="fill:#3A71B2;" d="M295.275,169.8c-14.168,4.6-28.688,7.688-40.728,7.688
	c-11.808,0-19.4-2.784-22.568-8.28c-7.512-13.024,14.24-50.792,65.432-80.328c5.504-3.176,11.896-6.352,18.728-9.328
	c-6.792-3.12-13.568-5.808-20.232-8.024c-2.248,1.176-4.504,2.352-6.488,3.496c-17.528,10.112-32.68,21.776-44.72,33.776
	c0.008,0.008,0.016,0.024,0.024,0.032c-4,3.976-7.584,7.984-10.856,12c-0.024-0.024-0.04-0.048-0.056-0.08
	c-17.232,21.136-23.976,42.096-15.688,56.464c6.808,11.808,20.344,16.288,36.432,16.288c18.984,0,41.464-6.248,60.76-14
	C308.675,176.68,301.979,173.432,295.275,169.8z"/>
<path style="fill:#ECF5E9;" d="M407.979,120.864c0.728-0.984,1.528-1.96,2.216-2.944c15.344-21.992,19.008-42.4,10.304-57.464
	c-5.328-9.256-17.184-20.296-43.368-20.296c-4.792,0-9.864,0.488-15.016,1.176C351.035,15.92,334.579,0.008,315.867,0
	c-13.568,0-32.28,7.336-46.16,41c-4.496-0.512-8.912-0.864-13.112-0.864c-21.712,0-37.832,7.184-45.368,20.232
	c-8.712,15.072-5.056,35.496,10.288,57.504c0.696,0.992,1.504,1.976,2.232,2.968c-16.328,22.216-21.84,44.264-12.56,60.352
	c5.336,9.256,17.192,20.288,43.36,20.288c4.976,0,10.256-0.528,15.616-1.264c0.352,0.776,0.656,1.616,1.016,2.376
	c11.376,24.12,27.224,37.408,44.64,37.408c13.36,0,31.712-7.072,45.528-39.448c4.72,0.56,9.352,0.944,13.752,0.944
	c21.712,0,37.824-7.184,45.344-20.232C427.227,169.552,430.211,149.736,407.979,120.864z M254.539,169.48
	c-8.248,0-14.096-1.6-15.64-4.288c-1.056-1.84-0.464-8.976,6.864-20.368c3.72,3.368,7.584,6.68,11.688,9.888
	c0.728,4.936,1.656,9.728,2.688,14.416C258.251,169.288,256.315,169.48,254.539,169.48z M257.619,86.8
	c-4.128,3.224-8.072,6.496-11.768,9.84c-7.216-11.328-7.88-18.6-6.912-20.264c0.768-1.328,6.272-4.24,17.648-4.24
	c1.184,0,2.464,0.128,3.688,0.192C259.235,77.216,258.331,82.056,257.619,86.8z M315.867,31.944c3.2,0,9.016,5.656,14.592,16.664
	c-4.776,1.512-9.488,3.152-14.072,4.912c-4.952-2.008-9.888-3.848-14.768-5.424C306.467,38.016,311.691,31.944,315.867,31.944z
	 M315.795,208.056c-1.896,0-7.688-3.992-13.76-15.264c4.504-1.448,8.944-3.016,13.264-4.68c4.72,1.912,9.408,3.664,14.064,5.184
	C324.699,202.536,319.771,208.056,315.795,208.056z M377.131,72.16c8.248,0,14.104,1.6,15.648,4.296
	c0.968,1.68,0.264,9.08-7.176,20.608c-3.672-3.32-7.384-6.52-11.104-9.496c-0.712-5.176-1.544-10.24-2.576-15.096
	C373.675,72.352,375.483,72.16,377.131,72.16z M392.739,165.264c-0.768,1.328-6.272,4.24-17.648,4.24
	c-1.296,0-2.696-0.136-4.04-0.208c1.056-4.776,1.992-9.544,2.728-14.208c4.256-3.304,8.264-6.712,12.104-10.184
	C391.987,153.952,394.763,161.768,392.739,165.264z"/>
<path style="fill:#3A71B2;" d="M335.779,170.12c2.248-1.168,4.504-2.352,6.488-3.496c17.504-10.096,32.632-21.736,44.664-33.712
	c-0.424-0.52-0.824-1.008-1.2-1.456c-3-3.568-6.28-7.008-9.664-10.36c-11.424,11.44-25.84,22.464-41.8,31.672
	c-5.504,3.176-11.888,6.352-18.72,9.328C322.339,165.216,329.115,167.896,335.779,170.12z"/>
<g>
	<path id="SVGCleanerId_1_1_" style="fill:#3A71B2;" d="M295.275,169.8c-14.168,4.6-28.688,7.688-40.728,7.688
		c-11.808,0-19.4-2.784-22.568-8.28c-7.512-13.024,14.24-50.792,65.432-80.328c5.504-3.176,11.896-6.352,18.728-9.328
		c-6.792-3.12-13.568-5.808-20.232-8.024c-2.248,1.176-4.504,2.352-6.488,3.496c-17.528,10.112-32.68,21.776-44.72,33.776
		c0.008,0.008,0.016,0.024,0.024,0.032c-4,3.976-7.584,7.984-10.856,12c-0.024-0.024-0.04-0.048-0.056-0.08
		c-17.232,21.136-23.976,42.096-15.688,56.464c6.808,11.808,20.344,16.288,36.432,16.288c18.984,0,41.464-6.248,60.76-14
		C308.675,176.68,301.979,173.432,295.275,169.8z"/>
</g>
<path style="fill:#3A71B2;" d="M336.419,71.832c14.168-4.6,28.68-7.68,40.712-7.68c11.808,0,19.408,2.784,22.576,8.296
	c3.616,6.264,0.088,18.424-9.208,31.744c-1.152,1.648-2.448,3.304-3.744,4.952c3.896,3.84,7.648,7.784,11.056,11.832
	c17.28-21.16,24.048-42.152,15.752-56.528c-6.808-11.816-20.344-16.296-36.432-16.296c-18.984,0-41.456,6.248-60.752,13.992
	C323.011,64.96,329.707,68.2,336.419,71.832z"/>
<g>
	<path id="SVGCleanerId_0_1_" style="fill:#C64047;" d="M346.483,68.92c3.824,14.272,6.304,31.456,6.304,51.096
		c-0.016,43.504-16.512,96.048-36.992,96.048c-7.272,0-16.072-9.072-22.96-23.672c-8.864-18.8-13.944-45.184-13.936-72.392
		c0.016-43.504,16.504-96.048,36.96-96.048c7.496,0,16.648,9.448,23.976,26.016c5.272-1.448,10.528-2.624,15.728-3.568
		c-9.68-23.448-23.824-38.392-39.688-38.4c0,0-0.008,0-0.016,0c-38.272,0-52.888,72.584-52.904,111.984
		C262.931,181.832,286.595,232,315.795,232c0.008,0,0.016,0,0.024,0c38.264,0,52.888-72.584,52.904-111.984
		c0-19.76-2.432-38.304-6.664-54.424C356.995,66.4,351.787,67.504,346.483,68.92z"/>
</g>
<g>
	<path style="fill:#7BC24D;" d="M255.315,120.72c-4.072,4.104-7.536,8.12-10.6,12.048c6.064,6.048,12.904,12.008,20.456,17.728
		c-0.952-7.16-1.616-14.536-1.88-22.2C260.483,125.808,257.851,123.272,255.315,120.72z"/>
	<path style="fill:#7BC24D;" d="M342.299,75.024c-30.64-17.696-61.816-26.888-85.712-26.888c-18.168,0-32.128,5.312-38.44,16.24
		c-8.304,14.36-1.52,35.312,15.704,56.44c3.272-4.008,6.856-8.016,10.856-12c-1.224-1.56-2.44-3.12-3.52-4.672
		c-9.288-13.328-12.816-25.496-9.192-31.768c2.984-5.16,12.168-8.24,24.584-8.24c21.832,0,50.88,9.248,77.704,24.744
		c14.048,8.12,35.944,24.136,51.432,42.576c6.376,7.592,20.496,26.472,13.936,37.808c-2.976,5.16-12.16,8.232-24.568,8.232
		c-21.84,0-50.888-9.256-77.704-24.752c-5.968-3.448-11.728-7.152-17.2-11.032c0.752,7.344,1.8,14.48,3.264,21.264
		c1.968,1.216,3.904,2.448,5.936,3.616c30.64,17.704,61.816,26.896,85.712,26.896c18.168,0,32.12-5.312,38.432-16.232
		C432.699,144.136,376.651,94.872,342.299,75.024z"/>
</g>
<path style="fill:#231F20;" d="M402.851,120.92c1.384-1.76,2.824-3.512,4.064-5.288c14.408-20.648,18-39.536,10.128-53.176
	c-6.992-12.144-20.424-18.304-39.904-18.304c-5.576,0-11.488,0.568-17.536,1.512C348.867,19.216,333.083,4,315.875,4
	c-20.752,0-34.712,18.248-43.616,41.368c-5.4-0.736-10.68-1.224-15.656-1.224c-20.224,0-35.112,6.48-41.896,18.24
	c-8.528,14.768-3.304,35.912,14.096,58.328c-16.824,21.656-23,43.12-14.136,58.496c7,12.136,20.424,18.288,39.888,18.288
	c5.728,0,11.84-0.696,18.064-1.704c0.72,1.72,1.416,3.472,2.184,5.112c10.68,22.64,25.24,35.112,41.024,35.112
	c20.288,0,34.088-17.432,43.016-39.808c5.616,0.792,11.096,1.304,16.264,1.304c20.224,0,35.104-6.48,41.88-18.232
	C426.019,163.656,421.035,143.504,402.851,120.92z M410.107,66.456c6.24,10.808,2.776,26.648-9.76,44.608
	c-0.856,1.224-1.832,2.44-2.76,3.664c-1.808-2.016-3.64-4-5.544-5.936c0.576-0.768,1.208-1.536,1.744-2.304
	c10.344-14.824,13.856-28.288,9.392-36.024c-3.944-6.84-12.696-10.304-26.048-10.304c-3.824,0-7.912,0.368-12.12,0.928l-3.584,0.56
	c-0.056,0.008-0.112,0.024-0.168,0.032l-0.112,0.048c-4.704,0.776-9.504,1.784-14.4,3.064c-0.416,0.104-0.888,0.16-1.296,0.272
	l-3.864,1.032c-1.528,0.448-3.032,1.032-4.56,1.512c-3.408-1.824-6.832-3.536-10.256-5.16c16.832-5.992,34.944-10.296,50.36-10.296
	C393.547,52.16,404.635,56.968,410.107,66.456z M352.323,76.512c-0.328-1.568-0.608-3.168-0.976-4.696
	c2.576-0.616,5.168-1.168,7.736-1.648c0.984,4.08,1.76,8.336,2.464,12.648C358.371,80.536,355.283,78.424,352.323,76.512z
	 M370.563,89.576c-0.92-7.128-2.136-14.04-3.696-20.672c3.552-0.44,7.024-0.744,10.264-0.744c7.072,0,16.12,1.088,19.12,6.296
	c2.28,3.96,0.384,13.984-9.024,27.448c-0.28,0.4-0.616,0.808-0.92,1.216C381.155,98.256,375.835,93.736,370.563,89.576z
	 M296.059,50.576c5.824-13.664,12.888-22.632,19.8-22.632c4.896,0,13.016,7.36,20.104,23.144c-6.648,1.976-13.2,4.296-19.512,6.776
	C309.587,55.016,302.763,52.56,296.059,50.576z M315.875,12c13.264,0,26.368,13.12,35.664,35.136
	c-2.584,0.544-5.184,1.136-7.784,1.8c-7.904-18.16-18.184-28.992-27.896-29c-11.352,0-20.688,11.8-27.6,28.456
	c-2.616-0.648-5.176-1.152-7.744-1.656C288.435,26.992,299.987,12,315.875,12z M255.043,126.808c0.12-0.128,0.256-0.248,0.376-0.376
	c1.224,1.184,2.48,2.368,3.768,3.536c0.152,3.776,0.392,7.512,0.72,11.2c-3.392-2.832-6.656-5.736-9.76-8.704
	c0.304-0.368,0.6-0.736,0.912-1.104C252.363,129.808,253.683,128.28,255.043,126.808z M245.171,138.648
	c5.008,4.76,10.328,9.368,15.984,13.736c0.976,7.008,2.272,13.784,3.864,20.264c-3.632,0.48-7.192,0.832-10.488,0.832
	c-7.064,0-16.112-1.088-19.112-6.288C233.011,162.992,235.171,152.576,245.171,138.648z M261.363,89.112
	c-5.832,4.448-11.264,9-16.2,13.648c-0.216-0.304-0.472-0.6-0.68-0.904c-9.4-13.488-11.296-23.52-9-27.48
	c1.656-2.88,8.176-6.24,21.112-6.24c2.76,0,5.656,0.168,8.632,0.472C263.603,75.496,262.323,82.416,261.363,89.112z M254.539,189.48
	c-16.408,0-27.504-4.808-32.968-14.288c-7.352-12.744-0.744-32.08,15.344-51.808c3.144-3.856,6.592-7.64,10.128-11.192
	c3.96-3.992,8.312-7.944,12.944-11.816c-0.376,3.896-0.632,7.608-0.8,11.144c-1.304,1.176-2.6,2.36-3.848,3.552l-2.864,2.832
	c-0.016,0.016-0.032,0.032-0.04,0.048c-4.872,4.904-9.28,9.888-12.984,14.904c-11.624,15.744-15.72,30.08-10.952,38.344
	c3.936,6.824,12.704,10.288,26.04,10.288c3.944,0,8.232-0.48,12.608-1.104c0.792,2.672,1.64,5.272,2.536,7.816
	C264.475,188.952,259.355,189.48,254.539,189.48z M315.795,228c-12.496,0-24.48-10.84-33.768-30.52
	c-5.184-10.992-9.08-23.968-11.632-38.088l-1.256-9.416c-1-7.472-1.6-14.608-1.848-21.808l-0.064-1.72l-0.128-0.12
	c-0.056-2.112-0.144-4.208-0.144-6.336c0.008-14.008,2.072-32.504,6.352-50.248c2.496,0.44,5.072,1.024,7.664,1.64
	c-3.88,16-6.072,33.36-6.08,48.608c0,4.496,0.184,8.96,0.448,13.384l0.056,0.808c1.448,22.616,6.272,43.912,13.816,59.904
	c7.672,16.264,17.608,25.968,26.576,25.968c11.024,0,20.144-11.12,26.992-26.992c2.616,0.664,5.176,1.184,7.736,1.704
	C342.627,213.752,331.283,228,315.795,228z M370.067,152.64c5.84-4.464,11.336-9.08,16.368-13.84
	c7.688,10.272,13.496,22.016,9.768,28.464c-1.664,2.88-8.184,6.24-21.112,6.24c-2.88,0-5.904-0.2-9.024-0.528
	C367.731,166.168,369.059,159.312,370.067,152.64z M371.507,141.328c0.416-4,0.72-7.832,0.912-11.472
	c1.2-1.072,2.384-2.144,3.528-3.232c1.888,1.952,3.688,3.952,5.44,5.984C378.267,135.568,374.963,138.472,371.507,141.328z
	 M364.611,115.832c0.04,1.392,0.112,2.784,0.112,4.184c-0.008,14.424-2.192,33.6-6.744,51.824c-2.496-0.448-5.08-1.04-7.672-1.664
	c4.128-16.424,6.464-34.416,6.472-50.168c0-3.768-0.24-7.416-0.44-11.08C359.099,111.12,361.859,113.432,364.611,115.832z
	 M344.419,160.592c-1.384,0.864-2.728,1.744-4.16,2.568c-1.496,0.864-3.24,1.728-4.872,2.6c-3.352-1.152-6.72-2.424-10.12-3.816
	c3.904-1.88,7.664-3.784,11-5.704c3.488-2.008,6.76-4.224,10.072-6.408C345.771,153.472,345.163,157.088,344.419,160.592z
	 M347.971,102.624c0.48,5.68,0.816,11.44,0.816,17.384c0,6.464-0.472,12.936-1.128,19.352c-4.936,3.464-10.016,6.84-15.384,9.936
	c-4.936,2.848-10.728,5.64-16.792,8.328c-5.392-2.544-10.776-5.28-16.08-8.344c-5.328-3.08-10.496-6.448-15.504-9.936
	c-0.592-6.352-1-12.792-1-19.36c0-5.896,0.392-11.8,0.952-17.664c4.976-3.472,10.112-6.848,15.568-10
	c4.936-2.848,10.736-5.64,16.8-8.328c5.392,2.536,10.784,5.28,16.08,8.336C336.835,94.968,342.251,98.504,347.971,102.624z
	 M334.987,190.888c-5.704,12.84-12.52,21.168-19.192,21.168c-4.608,0-12.376-6.616-19.344-21.384
	c-0.064-0.136-0.112-0.296-0.168-0.432c6.432-1.928,12.736-4.12,18.84-6.52C321.811,186.504,328.451,188.928,334.987,190.888z
	 M293.355,182.904c-0.936-2.488-1.824-5.032-2.64-7.712c1.304-0.376,2.608-0.792,3.912-1.192c3.408,1.816,6.816,3.536,10.24,5.16
	C301.067,180.504,297.235,181.76,293.355,182.904z M295.411,85.408c-3.592,2.072-6.96,4.32-10.36,6.544
	c0.528-3.624,1.104-7.216,1.808-10.704c1.52-0.928,3-1.872,4.552-2.776c1.496-0.864,3.24-1.728,4.872-2.6
	c3.352,1.152,6.728,2.424,10.128,3.816C302.515,81.576,298.747,83.48,295.411,85.408z M410.059,175.264
	c-5.304,9.184-17.72,14.24-34.96,14.24c-24.216,0-54.728-9.608-83.712-26.36c-1.496-0.864-2.928-1.76-4.376-2.656l-1.8-10.52
	c3.328,2.168,6.736,4.256,10.176,6.248c27.392,15.832,57.184,25.288,79.704,25.288c14.064,0,24.28-3.728,28.032-10.232
	c7.544-13.04-5.744-32.152-14.336-42.384c-15.832-18.84-38.168-35.192-52.496-43.472c-27.4-15.832-57.192-25.28-79.704-25.28
	c-14.072,0-24.288,3.736-28.04,10.24c-4.48,7.744-0.976,21.216,9.368,36.056c0.488,0.688,0.984,1.376,1.504,2.072
	c-1.864,1.944-3.696,3.936-5.464,5.968c-14.512-19.176-19.024-36.544-12.352-48.096c5.304-9.176,17.728-14.24,34.976-14.24
	c24.2,0,54.712,9.608,83.712,26.352c15.6,9.016,38.152,25.64,54.616,45.248C407.059,138.192,419.539,158.864,410.059,175.264z"/>
<circle style="fill:#EA7A26;" cx="315.819" cy="120" r="20"/>
<path style="fill:#231F20;" d="M315.819,104c8.824,0,16,7.176,16,16s-7.176,16-16,16s-16-7.176-16-16S306.995,104,315.819,104
	 M315.819,96c-13.256,0-24,10.744-24,24s10.744,24,24,24s24-10.744,24-24S329.067,96,315.819,96z"/>
<g>
</g>
<g>
</g>
<g>
</g>
<g>
</g>
<g>
</g>
<g>
</g>
<g>
</g>
<g>
</g>
<g>
</g>
<g>
</g>
<g>
</g>
<g>
</g>
<g>
</g>
<g>
</g>
<g>
</g>
</svg>
