<?xml version="1.0" encoding="iso-8859-1"?>
<!-- Generator: Adobe Illustrator 19.0.0, SVG Export Plug-In . SVG Version: 6.00 Build 0)  -->
<svg version="1.1" id="Capa_1" xmlns="http://www.w3.org/2000/svg" xmlns:xlink="http://www.w3.org/1999/xlink" x="0px" y="0px"
	 viewBox="0 0 484 484" style="enable-background:new 0 0 484 484;" xml:space="preserve">
<path style="fill:#B8DCA6;" d="M193.996,98.472c-9.904-5.72-16-16.28-16-27.712c0-10.16,2.064-20.104,6.08-29.432
	c6.696-15.552-4.768-33.32-22.08-33.32s-28.776,17.768-22.08,33.32c3.976,9.248,6.08,19.312,6.08,29.384
	c0,11.432-6.104,22.048-16,27.76l-16.256,9.384c-9.904,5.712-22.096,5.712-32,0C73.004,102.816,65.444,96.08,59.42,88
	c-4.376-5.864-11.36-9.664-19.248-9.664c-13.256,0-24,10.744-24,24s10.744,24,24,24c6.304,0,12.408,1.648,17.864,4.8l7.96,4.592
	c9.904,5.72,16,16.28,16,27.712v18.456c0,11.432-6.096,22-16,27.712l-7.96,4.592c-5.424,3.128-11.6,4.8-17.864,4.8
	c-13.256,0-24,10.744-24,24c0,13.256,10.744,24,24,24c8.88,0,16.632-4.824,20.784-12c3.128-5.408,7.632-9.928,13.048-13.056
	l8.264-4.768c9.904-5.72,22.104-5.72,32,0l47.728,27.568l80-46.192v-92.368L193.996,98.472z"/>
<path style="fill:#DBEDD2;" d="M363.812,360c-5.312,0.536-10.608-0.608-15.224-3.272l-10.592-6.112c-9.904-5.72-16-16.28-16-27.712
	v-58.16l-80-46.176l-80,46.176v58.16c0,11.432-6.096,22-16,27.712l-7.976,4.608c-5.408,3.12-11.568,4.784-17.808,4.784
	c-0.008,0-0.024,0-0.032,0c-13.256,0-24,10.744-24,24s10.744,24,24,24c5.648,0,15.936-5.296,20.928-13.04
	c3.072-4.76,7.24-8.752,12.144-11.584l11.128-6.424c9.904-5.72,22.104-5.72,32,0l13.616,7.864c9.896,5.72,16,16.28,16,27.712
	c9.76,0.304,17.44,8.424,17.2,18.184c-0.232,9.76-8.304,17.496-18.056,17.328c-4.736-0.08-7.144-0.096-7.144-0.048
	c0,13.256,10.744,24,24,24c13.256,0,24-10.744,24-24c0,0-0.056,11.8-0.176,32.112c-0.016,2.152-1.768,3.896-3.92,3.888
	s-3.904-1.744-3.904-3.904v-67.56c0-11.432,6.096-21.992,16-27.712l13.616-7.864c9.904-5.72,22.104-5.72,32,0l11.128,6.424
	c4.936,2.848,9.056,6.792,12.144,11.584c4.992,7.744,15.28,13.04,20.928,13.04c13.256,0,24-10.744,24-24S377.068,360,363.812,360z"
	/>
<path style="fill:#7BC24D;" d="M443.812,219c-6.304,0-12.408-1.648-17.864-4.8l-7.952-4.584c-9.904-5.72-16-16.28-16-27.712V163.44
	c0-11.432,6.104-22,16-27.712l7.984-4.608c5.416-3.128,11.576-4.784,17.824-4.784c0.008,0,0.008,0,0.016,0c13.256,0,24-10.744,24-24
	s-10.744-24-24-24c-8.88,0-16.632,4.824-20.784,12c-3.128,5.408-7.632,9.936-13.048,13.056l-7.736,4.464
	c-9.896,5.712-22.096,5.712-32,0l-16.256-9.376c-9.904-5.72-16-16.28-16-27.712v-9.04c0-6.312,1.656-12.424,4.816-17.888
	c2.016-3.48,3.184-7.512,3.184-11.832c0-13.256-10.744-24-24-24s-24,10.744-24,24c0,4.32,1.168,8.352,3.184,11.84
	c3.144,5.424,4.816,11.608,4.816,17.88v9.032c0,11.432-6.104,22-16,27.712l-48,27.712v92.368l80,46.192l47.728-27.56
	c9.904-5.72,22.104-5.72,32,0l8.264,4.768c5.448,3.144,9.896,7.616,13.048,13.056c4.152,7.176,11.896,12,20.784,12
	c13.256,0,24-10.744,24-24C467.812,229.752,457.068,219,443.812,219z"/>
<circle style="fill:#71B847;" cx="321.996" cy="126.344" r="8"/>
<circle style="fill:#CCDEC5;" cx="278.9" cy="272.744" r="8"/>
<g>
	<circle style="fill:#ABCF9A;" cx="209.996" cy="188.672" r="8"/>
	<circle style="fill:#ABCF9A;" cx="120.172" cy="202.56" r="8"/>
	<circle style="fill:#ABCF9A;" cx="153.996" cy="180.672" r="8"/>
</g>
<circle style="fill:#71B847;" cx="347.596" cy="188.672" r="8"/>
<circle style="fill:#CCDEC5;" cx="241.996" cy="356.992" r="8"/>
<circle style="fill:#71B847;" cx="289.996" cy="168.024" r="24"/>
<circle style="fill:#CCDEC5;" cx="233.996" cy="280.744" r="24"/>
<circle style="fill:#ABCF9A;" cx="185.996" cy="142.344" r="24"/>
<circle style="fill:#71B847;" cx="363.596" cy="142.344" r="16"/>
<circle style="fill:#CCDEC5;" cx="278.9" cy="330.656" r="16"/>
<circle style="fill:#ABCF9A;" cx="120.356" cy="150.344" r="16"/>
<circle style="fill:#71B847;" cx="318.9" cy="223.864" r="16"/>
<circle style="fill:#CCDEC5;" cx="201.996" cy="330.656" r="16"/>
<circle style="fill:#ABCF9A;" cx="169.996" cy="218.56" r="16"/>
<path style="fill:#010101;" d="M443.82,211c-4.92,0-9.592-1.248-13.872-3.728l-7.952-4.592c-7.408-4.272-12-12.232-12-20.784
	v-18.464c0-8.552,4.592-16.52,12-20.792l7.952-4.592c4.232-2.44,9.112-4.32,13.872-3.72c17.64,0,32-14.352,32-32s-14.36-32-32-32
	c-11.392,0-22.016,6.128-27.72,16c-2.44,4.208-5.936,7.712-10.128,10.128l-7.736,4.472c-7.424,4.28-16.592,4.248-23.984,0
	l-16.256-9.376c-7.408-4.272-12-12.232-12-20.792v-9.032c0-4.912,1.264-9.584,3.736-13.872c2.792-4.824,4.264-10.304,4.264-15.848
	c0-17.648-14.36-32-32-32s-32,14.352-32,32c0,5.544,1.472,11.032,4.264,15.848c2.44,4.224,3.736,9.024,3.736,13.872v9.032
	c0,8.552-4.592,16.512-12,20.792l-44,25.4l-44-25.408c-7.408-4.264-12-12.224-12-20.784c0-9.064,1.832-17.904,5.424-26.272
	c4.232-9.816,3.216-21.056-2.704-30.072C182.78,5.392,172.796,0,161.996,0s-20.784,5.392-26.72,14.416
	c-5.92,9.016-6.936,20.256-2.704,30.072c3.552,8.248,5.424,17.32,5.424,26.224c0,8.576-4.592,16.56-12,20.832l-16.264,9.384
	c-7.392,4.272-16.56,4.288-23.984,0c-7.816-4.512-14.512-10.48-19.92-17.712c-6.096-8.184-15.456-12.88-25.656-12.88
	c-17.64,0-32,14.352-32,32s14.36,32,32.016,32c0,0,0.016,0,0.032,0c4.888,0,9.544,1.248,13.824,3.728l7.952,4.592
	c7.408,4.264,12,12.224,12,20.784v18.464c0,8.544-4.592,16.504-12,20.784l-7.952,4.592c-4.216,2.44-9.016,3.728-13.872,3.728
	c-17.64,0-32,14.352-32,32s14.36,32,32,32c11.392,0,22.016-6.136,27.704-15.984c2.456-4.216,5.952-7.736,10.128-10.144l8.264-4.776
	c7.408-4.28,16.592-4.264,24,0l43.728,25.248v53.552c0,8.544-4.592,16.504-12,20.784l-7.952,4.592
	c-4.216,2.44-9.016,3.728-13.872,3.728c-17.64,0-32,14.352-32,32s14.36,32,32,32c11.392,0,22.016-6.136,27.704-15.984
	c2.456-4.216,5.952-7.736,10.128-10.144l10.376-5.992c7.424-4.28,16.608-4.264,24,0l13.624,7.864c7.408,4.272,12,12.232,12,20.784
	v5.744c0,4.912-1.264,9.584-3.736,13.872c-2.8,4.824-4.272,10.304-4.272,15.848c0,17.648,14.36,32,32,32c17.64,0,32-14.352,32-32
	c0-5.544-1.472-11.032-4.264-15.848c-2.44-4.224-3.736-9.024-3.736-13.872v-5.744c0-8.544,4.592-16.504,12-20.784l13.624-7.864
	c7.392-4.272,16.576-4.272,24,0l10.376,5.992c4.232,2.448,7.64,5.856,10.128,10.128c5.688,9.864,16.312,16,27.704,16
	c17.64,0,32-14.352,32-32s-14.36-32-32-32c-4.92,0-9.592-1.248-13.872-3.728l-7.96-4.6c-7.408-4.272-12-12.232-12-20.784v-53.552
	l43.736-25.248c7.392-4.256,16.576-4.272,24,0l8.264,4.776c4.232,2.448,7.64,5.856,10.128,10.128c5.688,9.864,16.312,16,27.704,16
	c17.64,0,32-14.352,32-32S461.46,211,443.82,211z M78.26,230.248l-8.264,4.768c-6.592,3.816-12.112,9.328-15.968,15.984
	c-2.856,4.936-8.152,8-13.856,8c-8.824,0-16-7.176-16-16s7.176-16,16-16c7.672,0,15.232-2.032,21.872-5.864l7.952-4.592
	c12.344-7.128,20-20.4,20-34.64V163.44c0-14.256-7.672-27.528-20-34.64l-7.952-4.592c-6.656-3.832-14.2-5.864-21.824-5.864
	c-0.016,0-0.032,0-0.048,0c-8.824,0-16-7.176-16-16s7.176-16,16-16c5.112,0,9.784,2.352,12.848,6.448
	c6.704,8.992,15.016,16.392,24.736,22.008c12.328,7.112,27.624,7.128,39.984,0l16.264-9.384c12.344-7.128,20-20.416,20-34.696
	c0-11.072-2.328-22.32-6.736-32.552c-2.096-4.856-1.576-10.448,1.392-14.944c6.032-9.176,20.656-9.176,26.688,0
	c2.968,4.496,3.48,10.088,1.392,14.944c-4.48,10.376-6.744,21.344-6.744,32.592c0,14.248,7.656,27.52,20,34.64l44,25.4v83.136
	l-72,41.568l-43.736-25.256C105.964,223.136,90.62,223.12,78.26,230.248z M333.996,357.544l7.952,4.592
	c6.656,3.832,14.216,5.864,21.872,5.864c8.832,0,16,7.176,16,16s-7.168,16-16,16c-5.704,0-11-3.064-13.856-8.016
	c-3.84-6.632-9.376-12.16-15.968-15.968l-10.376-5.992c-12.36-7.144-27.704-7.112-40,0l-13.624,7.872
	c-12.344,7.128-20,20.4-20,34.64v5.744c0,7.664,2.032,15.224,5.888,21.888c1.376,2.392,2.112,5.096,2.112,7.832
	c0,8.824-7.168,16-16,16s-16-7.176-16-16c0-2.744,0.736-5.448,2.112-7.84c3.856-6.656,5.888-14.224,5.888-21.88v-5.744
	c0-14.24-7.656-27.512-20-34.64l-13.624-7.864c-6.16-3.552-13.08-5.336-20-5.336c-6.904,0-13.832,1.784-20,5.336l-10.376,5.984
	c-6.592,3.816-12.112,9.328-15.968,15.984c-2.856,4.936-8.16,8-13.856,8c-8.832,0-16-7.176-16-16s7.168-16,16-16
	c7.672,0,15.232-2.032,21.872-5.864l7.952-4.592c12.344-7.128,20-20.4,20-34.64V269.36l72-41.552l72,41.552v53.544
	C313.996,337.144,321.652,350.416,333.996,357.544z M443.82,259c-5.704,0-11-3.064-13.856-8.016
	c-3.84-6.632-9.376-12.16-15.968-15.968l-8.264-4.776c-6.168-3.552-13.096-5.336-20-5.336c-6.92,0-13.84,1.784-20,5.344
	l-43.736,25.256l-72-41.568V130.8l44-25.392c12.344-7.128,20-20.4,20-34.648v-9.032c0-7.664-2.032-15.224-5.888-21.888
	c-1.384-2.392-2.112-5.096-2.112-7.84c0-8.816,7.168-16,16-16s16,7.184,16,16c0,2.744-0.736,5.448-2.112,7.84
	c-3.856,6.664-5.888,14.232-5.888,21.888v9.032c0,14.248,7.656,27.52,20,34.648l16.264,9.384c12.36,7.112,27.656,7.096,39.984,0
	l7.736-4.472c6.608-3.816,12.128-9.336,15.968-15.976c2.856-4.936,8.168-8.008,13.872-8.008c8.832,0,16,7.184,16,16
	s-7.168,16-15.984,16c-0.032,0-0.048,0-0.064,0c-7.624,0-15.168,2.024-21.832,5.864l-7.944,4.6c-12.328,7.112-20,20.384-20,34.64
	v18.464c0,14.24,7.656,27.52,20,34.64l7.952,4.592c6.656,3.832,14.216,5.864,21.872,5.864c8.832,0,16,7.176,16,16
	C459.82,251.824,452.652,259,443.82,259z"/>
<g>
</g>
<g>
</g>
<g>
</g>
<g>
</g>
<g>
</g>
<g>
</g>
<g>
</g>
<g>
</g>
<g>
</g>
<g>
</g>
<g>
</g>
<g>
</g>
<g>
</g>
<g>
</g>
<g>
</g>
</svg>
