<?xml version="1.0" encoding="iso-8859-1"?>
<!-- Generator: Adobe Illustrator 19.0.0, SVG Export Plug-In . SVG Version: 6.00 Build 0)  -->
<svg version="1.1" id="Capa_1" xmlns="http://www.w3.org/2000/svg" xmlns:xlink="http://www.w3.org/1999/xlink" x="0px" y="0px"
	 viewBox="0 0 480 480" style="enable-background:new 0 0 480 480;" xml:space="preserve">
<g>
	<path style="fill:#F4FBFE;" d="M384,32c-44.112,0-80,35.888-80,80s35.888,80,80,80s80-35.888,80-80S428.112,32,384,32z"/>
	<path style="fill:#F4FBFE;" d="M240,0C107.664,0,0,107.664,0,240s107.664,240,240,240s240-107.664,240-240S372.336,0,240,0z"/>
</g>
<path style="fill:#E1F2FC;" d="M458.368,140.976c-20.12-44.176-53.216-81.112-94.44-106.112C329.56,43.832,304,74.856,304,112
	c0,44.112,35.888,80,80,80C417.864,192,446.712,170.768,458.368,140.976z"/>
<path style="fill:#E2F3FC;" d="M240,24C120.896,24,24,120.896,24,240s96.896,216,216,216s216-96.896,216-216S359.104,24,240,24z"/>
<path style="fill:#CFE8F9;" d="M442.656,165.976C423.744,114.376,385.8,72,337.232,47.384C317.192,61.944,304,85.392,304,112
	c0,44.112,35.888,80,80,80C407.248,192,428.024,181.864,442.656,165.976z"/>
<path style="fill:#115081;" d="M240,424c-101.456,0-184-82.536-184-184S138.544,56,240,56s184,82.536,184,184S341.456,424,240,424z"
	/>
<path style="fill:#114D80;" d="M415.72,185.368c-15.76-50.584-52.88-91.744-100.68-113.208C308.208,83.944,304,97.432,304,112
	c0,44.112,35.888,80,80,80C395.28,192,405.984,189.6,415.72,185.368z"/>
<g>
	<path style="fill:#FDDA5F;" d="M48,16c0,18.384-13.616,32-32,32c18.384,0,32,13.616,32,32c0-18.384,13.616-32,32-32
		C61.616,48,48,34.384,48,16z"/>
	<path style="fill:#FDDA5F;" d="M432,384c0,27.576-20.424,48-48,48c27.576,0,48,20.424,48,48c0-27.576,20.424-48,48-48
		C452.424,432,432,411.576,432,384z"/>
</g>
<path style="fill:#114570;" d="M347.808,91.208C360.608,116.824,368,145.544,368,176c0,105.6-86.4,192-192,192
	c-30.448,0-59.168-7.392-84.792-20.192C124.688,393.872,178.832,424,240,424C417.312,424,492.04,196.016,347.808,91.208z"/>
<path style="fill:#0B9156;" d="M423.592,232H376c-37.32,0-44.336,53.784-7.704,62.856c20.864,5.152,2.816,21.224,25.4,46.032
	C414.544,309.24,425.352,272.488,423.592,232z"/>
<path style="fill:#397E4B;" d="M393.696,340.896C414.544,309.24,425.36,272.488,423.6,232c-50.648,0-55.384-1.68-66.136,6.016
	c-3.576,10.392-7.888,20.448-13.12,29.96c1.632,12.896,10.968,23.664,23.96,26.88C389.16,300.008,371.112,316.08,393.696,340.896z"
	/>
<path style="fill:#0B9156;" d="M237.56,405.96c-11.184-3.56-0.008-18.336-12.016-40.496C195.664,310.008,200,322.696,200,304
	c0-10.536,8.704-8,53.608-8c21.744,0,33.384,21.392,21.952,37.928c-11.152,16.664-0.792,29.728-13.752,47.56
	C248.488,400.216,245.568,408.552,237.56,405.96z"/>
<path style="fill:#397E4B;" d="M261.816,381.496c11.104-15.28,4.832-24.728,9.952-39.456c-14.936,8.672-31.112,15.32-48.216,19.72
	c15.296,28.384,2.032,44.584,16.448,44.584C246.416,406.344,248.352,400.4,261.816,381.496z"/>
<path style="fill:#0B9156;" d="M240,56c-53.904,0-102.312,23.44-136,60.504v60.456c0,45.808,37.848,39.36,50.112,71.728
	c1.184,3.12,4.168,5.168,7.48,5.168c3.408,0,6.528-2.192,7.608-5.52C172.376,238.56,181.36,232,191.528,232
	c32.192,0,33.92-0.472,38.592,0.84c5.248,1.464,10.408-2.648,10.144-8.072c-0.472-10.504,4.216-18.952,15.232-27.392
	c8.512-6.52,8.504-14.264,8.504-22.264c0-6.92-8.32-10.688-13.528-5.792c-7.168,6.848-18.472,1.896-18.472-6.792v-18.336
	c0-27.76,20.064-40.192,39.936-40.192h92.392c0,0-12.336-6.016-12.336-10.432l-8-5.2C314.384,67.984,278.584,56,240,56z"/>
<path style="fill:#203062;" d="M338.68,156.928l85.216,85.216c0.584-47.616-16.968-90.84-46.416-124.016L338.68,156.928z"/>
<path style="fill:#1A2A56;" d="M423.888,242.144c0.584-47.616-16.968-90.84-46.416-124.016l-14.6,14.6
	C366.168,146.64,368,161.104,368,176c0,3.296-0.328,6.504-0.496,9.752L423.888,242.144z"/>
<path style="fill:#1C453B;" d="M413.752,232l10.168,10.168c0.096-7.704-0.008-2.976-0.328-10.168H413.752z"/>
<path style="fill:#397E4B;" d="M304.832,103.744h58.384c-14.232-12.888-30.552-23.44-48.256-31.432
	C309.504,81.768,306.024,92.368,304.832,103.744z"/>
<path style="fill:#1A2956;" d="M377.48,118.128l-14.6,14.6C366.168,146.64,368,161.104,368,176c0,3.296-0.328,6.504-0.496,9.752
	l5.096,5.096c3.752,0.544,7.496,1.152,11.4,1.152c11.2,0,21.848-2.352,31.536-6.528C407.64,160.312,394.592,137.408,377.48,118.128z
	"/>
<circle style="fill:#DAE5D5;" cx="384" cy="112" r="57.912"/>
<g>
	<path style="fill:#C1CBBF;" d="M413.08,62.184C414.776,67.872,416,73.752,416,80c0,41.376-39.52,73.72-81.816,61.08
		c29.992,51.248,107.728,29.488,107.728-29.08C441.912,90.664,430.248,72.232,413.08,62.184z"/>
	<path style="fill:#C1CBBF;" d="M360,116c-26.424,0-26.448-40,0-40c11.032,0,20,8.968,20,20S371.032,116,360,116z M360,84
		c-6.608,0-12,5.384-12,12s5.392,12,12,12s12-5.384,12-12S366.608,84,360,84z"/>
	<path style="fill:#C1CBBF;" d="M415.128,72.176C411.136,72.632,408,75.888,408,80c0,4.136,3.184,7.424,7.208,7.84
		c0.32-2.6,0.792-5.152,0.792-7.84S415.464,74.776,415.128,72.176z"/>
</g>
<path style="fill:#B4BEB3;" d="M415.128,72.176C415.464,74.776,416,77.312,416,80s-0.472,5.24-0.792,7.84
	C415.48,87.872,415.72,88,416,88C426.992,88,426.416,70.848,415.128,72.176z"/>
<path style="fill:#C1CBBF;" d="M392,128c0-4.416,3.592-8,8-8c0.48,0,0.904,0.192,1.36,0.272c1.808-2.208,3.52-4.464,5.016-6.912
	c-1.952-0.856-4.104-1.36-6.376-1.36c-8.832,0-16,7.176-16,16c0,2.272,0.504,4.416,1.368,6.384c2.44-1.504,4.696-3.216,6.912-5.016
	C392.192,128.904,392,128.48,392,128z"/>
<g>
	<path style="fill:#B4BEB3;" d="M400,144c8.832,0,16-7.176,16-16c0-6.544-3.968-12.16-9.616-14.632
		c-1.504,2.44-3.216,4.696-5.016,6.912c3.728,0.664,6.632,3.792,6.632,7.72c0,4.416-3.592,8-8,8c-3.928,0-7.056-2.896-7.72-6.64
		c-2.208,1.808-4.464,3.52-6.912,5.016C387.84,140.024,393.448,144,400,144z"/>
	<path style="fill:#B4BEB3;" d="M360,144c-10.568,0-10.584,16,0,16C370.568,160,370.584,144,360,144z"/>
</g>
<path style="fill:#010101;" d="M384,48c-20.504,0-38.552,9.816-50.264,24.816C305.976,57.144,274.088,48,240,48
	C134.128,48,48,134.128,48,240s86.128,192,192,192c134.752,0,230.488-137.32,176.912-265.368C472.608,132.992,448.328,48,384,48z
	 M384,64c26.464,0,48,21.536,48,48s-21.536,48-48,48s-48-21.536-48-48S357.536,64,384,64z M112,119.576
	C144.12,85.456,189.552,64,240,64c31.024,0,60.064,8.272,85.376,22.456c-1.328,3.048-2.264,6.28-3.112,9.544h-50.336
	C247.32,96,224,112.568,224,144.184v18.336c0,15.08,19.384,24.64,32,12.584c0,6.664,0.416,11.496-5.376,15.928
	c-9.04,6.928-19.112,17.28-18.344,34.104c-6.336-1.768-9.776-1.136-40.752-1.136c-13.936,0-25.784,9.08-29.936,21.856
	C148.112,210.176,112,217.832,112,176.96V119.576z M393.04,326.592c-2.592-4.8-4.328-10.104-4.328-15.96
	c-0.04-11.184-7.656-20.872-18.512-23.552C342.752,280.296,348.024,240,376,240h40C416,271.488,407.584,300.992,393.04,326.592z
	 M415.192,224H376c-46.848,0-55.264,67.336-9.648,78.624c11.952,2.952,0.6,17.304,16.24,37.968l0.888,0.976
	C284.248,481.336,64,410.712,64,240c0-37.528,11.904-72.28,32-100.872v37.832c0,51.704,41.648,45.216,51.536,77.208
	c6.888,22.296,23.312,40.432,44.464,49.712v16.176c32.256,59.864,32,54.056,32,79.936c0,8.832,7.16,16,16,16
	c10.112,0,12.384-6.296,28.616-29.784l-0.336-0.024c6.608-9.104,9.472-20.304,9.128-31.808
	c-0.464-15.424,13.392-19.904,10.152-39.76C284.96,298.744,269.712,288,253.616,288c-24.104,0-20.904,0-45.616,0
	c-22.92-13.184-31.728-21.904-32-32.472c0-8.576,6.952-15.528,15.528-15.528c33.52,0,40.96-3.12,49.72,12.032
	c1.36,2.352,3.84,3.968,6.752,3.968c4.416,0,8-3.584,8-8c0-1.408-0.464-2.664-1.104-3.824C232.56,203.832,272,211.184,272,180.128
	c0-8,0.8-15.864-10.416-20.512c-5.456-2.256-11.728-1.008-15.896,3.16c-0.904,0.904-1.344,1.784-3.4,1.784
	c-0.872,0-2.28-1.296-2.28-2.04v-18.84C240,124.992,255.8,112,271.824,112H320c0,41.344,39.504,73.912,82.352,61.008
	C409.016,188.976,413.56,206.04,415.192,224z M208,316.024V304h45.616c14.352,0,23.576,13.536,15.368,25.368
	c-12.896,19.336-2.464,32.04-13.648,47.432l-15.328,21.552C239.976,370.136,237.744,371.232,208,316.024z"/>
<g>
</g>
<g>
</g>
<g>
</g>
<g>
</g>
<g>
</g>
<g>
</g>
<g>
</g>
<g>
</g>
<g>
</g>
<g>
</g>
<g>
</g>
<g>
</g>
<g>
</g>
<g>
</g>
<g>
</g>
</svg>
