<?xml version="1.0" encoding="iso-8859-1"?>
<!-- Generator: Adobe Illustrator 19.0.0, SVG Export Plug-In . SVG Version: 6.00 Build 0)  -->
<svg version="1.1" id="Capa_1" xmlns="http://www.w3.org/2000/svg" xmlns:xlink="http://www.w3.org/1999/xlink" x="0px" y="0px"
	 viewBox="0 0 446.68 446.68" style="enable-background:new 0 0 446.68 446.68;" xml:space="preserve">
<path style="fill:#7BC24D;" d="M73.902,380.784l-16.968,16.968c-4.504,4.504-6.992,10.536-6.992,16.976s2.488,12.456,6.992,16.952
	c9.032,9.04,24.936,9.032,33.936,0.008c4.512-4.504,6.992-10.536,6.992-16.968c0-6.44-2.48-12.464-6.992-16.968L73.902,380.784z"/>
<path style="fill:#CDDCF0;" d="M61.014,329.264l14.472,14.472l84.184-42.088L287.91,173.4l-56.568-56.56L103.11,245.08
	L61.014,329.264z"/>
<path style="fill:#333333;" d="M288.862,172.464l-56.576-56.568l96.168-96.176c15.112-15.096,41.408-15.136,56.576-0.008
	c15.576,15.6,15.592,40.984,0,56.584L288.862,172.464z"/>
<path style="fill:#454545;" d="M328.454,19.72l-96.168,96.168l28.288,28.28L385.038,19.712
	C369.862,4.584,343.566,4.624,328.454,19.72z"/>
<rect x="226.663" y="120.208" transform="matrix(-0.7071 0.7071 -0.7071 -0.7071 531.4656 97.7958)" style="fill:#99B3DC;" width="37.632" height="77.519"/>
<path style="fill:#7BC24D;" d="M75.478,343.736l-14.472-14.472L105.942,240H218.91l-60.392,62.208L75.478,343.736z"/>
<g>
	<path style="fill:#010101;" d="M390.686,14.064C381.31,4.688,369.03,0,356.742,0s-24.568,4.688-33.944,14.064l-90.504,90.504
		l-22.64-22.64l-11.288,11.344l22.608,22.608L96.526,240.336l-45.248,90.512l22.624,22.624l90.512-45.248l124.44-124.456
		l22.648,22.648l11.288-11.344l-22.608-22.608l90.504-90.504C409.422,63.2,409.422,32.8,390.686,14.064z M154.934,295.072
		L77.062,334l-6.32-6.32l38.928-77.872l121.664-121.664l22.36,22.36l22.896,22.888L154.934,295.072z M379.374,70.64l-90.512,90.504
		l-45.264-45.256l90.512-90.512C340.158,19.328,348.198,16,356.742,16s16.584,3.328,22.632,9.376
		C391.846,37.848,391.846,58.16,379.374,70.64z"/>
	<path style="fill:#010101;" d="M73.902,369.472l-22.624,22.624c-12.448,12.448-12.448,32.816,0,45.248
		c6.224,6.224,14.432,9.336,22.632,9.336s16.4-3.112,22.616-9.336c12.448-12.448,12.448-32.816,0-45.248L73.902,369.472z
		 M85.206,426.04c-2.992,2.992-7,4.64-11.296,4.64s-8.32-1.648-11.32-4.656c-3-2.992-4.648-7-4.648-11.296s1.648-8.32,4.648-11.32
		l11.312-11.312l11.32,11.32c2.992,2.992,4.64,7,4.64,11.296C89.862,419.016,88.214,423.032,85.206,426.04z"/>
</g>
<g>
</g>
<g>
</g>
<g>
</g>
<g>
</g>
<g>
</g>
<g>
</g>
<g>
</g>
<g>
</g>
<g>
</g>
<g>
</g>
<g>
</g>
<g>
</g>
<g>
</g>
<g>
</g>
<g>
</g>
</svg>
