<?xml version="1.0" encoding="iso-8859-1"?>
<!-- Generator: Adobe Illustrator 19.0.0, SVG Export Plug-In . SVG Version: 6.00 Build 0)  -->
<svg version="1.1" id="Capa_1" xmlns="http://www.w3.org/2000/svg" xmlns:xlink="http://www.w3.org/1999/xlink" x="0px" y="0px"
	 viewBox="0 0 400 400" style="enable-background:new 0 0 400 400;" xml:space="preserve">
<path style="fill:#F8DFD2;" d="M392,232c0-13.232-10.768-24-24-24h-16c13.232,0,24-10.768,24-24s-10.768-24-24-24H131.84
	l41.736-41.72c8.488-8.496,14.336-22.448,15.648-37.32c0.88-10.056-0.408-19.512-3.528-25.952c-1.128-2.32-3.304-3.952-5.848-4.384
	c-2.544-0.472-5.144,0.384-6.968,2.192L36.2,188.056C17.728,206.48,7.72,230.992,8.016,257.072
	C8.584,309.416,53.424,352,107.976,352H320c13.232,0,24-10.768,24-24s-10.768-24-24-24h32c13.232,0,24-10.768,24-24
	s-10.768-24-24-24h16C381.232,256,392,245.232,392,232z"/>
<path style="fill:#D74232;" d="M279.088,184c28.32,0,53.512-12.496,71.088-32H208C225.576,171.504,250.768,184,279.088,184z"/>
<path style="fill:#9ECD54;" d="M272.032,122.968c-7.464,0-14.48-2.904-19.752-8.176c-5.28-5.272-8.184-12.288-8.184-19.752
	S247,80.568,252.28,75.288l19.736-19.744c0,0,18.784,18.808,19.568,19.56c5.264,4.76,8.32,11.504,8.496,18.904
	c0.192,7.728-2.832,15.296-8.312,20.776C286.504,120.064,279.488,122.968,272.032,122.968z"/>
<g>
	<path style="fill:#010101;" d="M272.016,66.864c6.4,6.408,13.776,13.792,14.104,14.08c12.768,11.552,3.888,34.024-14.096,34.024
		c-17.592,0-26.68-21.432-14.096-34.024L272.016,66.864 M272.024,44.232c-15.272,15.272-9.744,9.744-25.408,25.408
		c-6.784,6.784-10.52,15.808-10.52,25.4c0,19.856,16.064,35.928,35.928,35.928c20.488,0,36.56-17.024,36.064-37.16
		c-0.24-9.608-4.232-18.392-11.232-24.728C295.464,67.712,273.416,45.616,272.024,44.232z"/>
	<path style="fill:#010101;" d="M400,232c0-13.968-9.008-25.72-21.48-30.088C381.976,196.8,384,190.64,384,184
		c0-17.672-14.328-32-32-32c-70.784,0-104.256,0-200.848,0l28.072-28.064c21.52-21.52,23.408-64.784,8.928-79.248
		c-2.904-2.904-6.56-4.688-10-4.688c-2.328,0-4.552,0.816-6.392,2.656L30.368,182.368l0.168,0.016C11.672,201.216,0,227.24,0,256
		c0,57.44,46.56,104,104,104c187.136,0-98.896,0,216,0c17.672,0,32-14.328,32-32c0-5.856-1.688-11.28-4.44-16H352
		c17.672,0,32-14.328,32-32c0-6.64-2.024-12.8-5.48-17.912C391,257.72,400,245.968,400,232z M368,248h-16H208v16h144
		c8.824,0,16,7.176,16,16s-7.176,16-16,16H208v16h112c8.824,0,16,7.176,16,16s-7.176,16-16,16c-309.832,0-133.648,0-212.024,0
		c-48.888,0-91.44-38.128-91.968-87.016c-0.264-23.904,8.936-46.408,25.832-63.272L178.488,58.504
		c1.92,3.936,3.672,11.44,2.76,21.752c-1.152,13.064-6.144,25.168-13.336,32.36l-41.728,41.72
		c-5.048,5.048-1.472,13.664,5.648,13.664c107.4,0,121.56,0,220.168,0c8.824,0,16,7.176,16,16s-7.176,16-16,16H208v16h144h16
		c8.824,0,16,7.176,16,16S376.824,248,368,248z"/>
</g>
<g>
</g>
<g>
</g>
<g>
</g>
<g>
</g>
<g>
</g>
<g>
</g>
<g>
</g>
<g>
</g>
<g>
</g>
<g>
</g>
<g>
</g>
<g>
</g>
<g>
</g>
<g>
</g>
<g>
</g>
</svg>
