<?xml version="1.0" encoding="iso-8859-1"?>
<!-- Generator: Adobe Illustrator 19.0.0, SVG Export Plug-In . SVG Version: 6.00 Build 0)  -->
<svg version="1.1" id="Capa_1" xmlns="http://www.w3.org/2000/svg" xmlns:xlink="http://www.w3.org/1999/xlink" x="0px" y="0px"
	 viewBox="0 0 432 432" style="enable-background:new 0 0 432 432;" xml:space="preserve">
<path style="fill:#CDDCF0;" d="M321.216,142.312L272,116.92V56H160v60.92l-49.264,25.408C91.776,151.992,80,171.024,80,192v208
	c0,13.232,10.768,24,24,24h224c13.232,0,24-10.768,24-24V192C352,171.024,340.216,151.992,321.216,142.312z"/>
<rect x="160" y="8" style="fill:#643B20;" width="112" height="48"/>
<path style="fill:#010101;" d="M324.896,135.2L280,112.048V64h32V48h-32V0H152v48h-32v16h32v48.048L107.104,135.2
	C86.352,145.776,72,167.104,72,192v208c0,17.68,14.32,32,32,32h224c17.68,0,32-14.32,32-32V192
	C360,167.104,345.648,145.776,324.896,135.2z M168,16h96v32h-96V16z M344,400c0,8.824-7.176,16-16,16H104c-8.824,0-16-7.176-16-16
	V192c0-17.952,10.104-34.256,26.44-42.584c44.992-23.2,37.552-19.368,53.56-27.616c0-34.304,0-23.52,0-57.8c41.888,0,54.112,0,96,0
	c0,34.24,0,23.52,0,57.8c5.888,3.032-0.688-0.352,53.632,27.656C333.896,157.744,344,174.048,344,192V400z"/>
<path style="fill:#BCCCE1;" d="M310.368,163.712c-46.68-24.072-55.352-28.4-69.616-35.712H216v272h112V192
	C328,180.096,321.24,169.256,310.368,163.712z"/>
<rect x="104" y="208" style="fill:#454545;" width="224" height="192"/>
<rect x="216" y="208" style="fill:#222222;" width="112" height="192"/>
<g>
	<path style="fill:#888888;" d="M180.528,258.336c-4.224,3.6-7.936,7.712-10.912,12.416l-6.688-6.688
		c-1.968,1.808-4.544,2.928-7.408,2.928c-6.048,0-11.008-4.944-11.008-11.008s4.944-11.008,11.008-11.008
		c0.416,0,0.8,0.08,1.2,0.128c0.496-4.992,4.688-8.928,9.792-8.928c5.44,0,9.904,4.448,9.904,9.904c0,2.272-0.8,4.352-2.112,6.032
		L180.528,258.336z"/>
	<path style="fill:#888888;" d="M177.488,355.664l-2.896,2.928c1.808,1.968,2.928,4.544,2.928,7.408
		c0,6.048-4.944,11.008-11.008,11.008s-11.008-4.944-11.008-11.008c0-0.416,0.08-0.8,0.128-1.2
		c-4.976-0.496-8.928-4.688-8.928-9.808c0-5.44,4.464-9.904,9.904-9.904c2.272,0,4.352,0.8,6.016,2.112l7.696-7.696l7.168,4.864
		C177.488,344.368,177.488,355.664,177.488,355.664z"/>
	<path style="fill:#888888;" d="M260,300c0-24.304-19.696-44-44-44s-44,19.696-44,44c0,31.76-2.544,25.792,16.496,38.496v16.496
		h11.008v-11.008h11.008v11.008h10.992v-11.008h11.008v11.008h10.976v-16.496C262.992,325.504,260,331.104,260,300z M194.016,322
		c-6.08,0-11.008-4.928-11.008-11.008s4.928-11.008,11.008-11.008s11.008,4.928,11.008,11.008S200.096,322,194.016,322z
		 M210.512,333.008c0-6.08,2.464-11.008,5.504-11.008s5.504,4.928,5.504,11.008H210.512z M238.016,322
		c-6.08,0-11.008-4.928-11.008-11.008s4.928-11.008,11.008-11.008s11.008,4.928,11.008,11.008S244.096,322,238.016,322z"/>
</g>
<g>
	<path style="fill:#565656;" d="M260,300c0-24.304-19.696-44-44-44v66.008c3.04,0,5.52,4.92,5.52,11H216v21.984h5.504v-11.008
		h11.008v11.008h10.976v-16.496C262.992,325.504,260,331.104,260,300z M238.016,322c-6.08,0-11.008-4.928-11.008-11.008
		s4.928-11.008,11.008-11.008s11.008,4.928,11.008,11.008S244.096,322,238.016,322z"/>
	<path style="fill:#565656;" d="M276.4,364.8c0.048,0.4,0.128,0.784,0.128,1.2c0,6.048-4.944,11.008-11.008,11.008
		s-11.008-4.944-11.008-11.008c0-2.848,1.136-5.44,2.928-7.408l-2.928-2.928v-11.296l7.168-4.864l7.696,7.696
		c1.68-1.296,3.744-2.112,6.032-2.112c5.44,0,9.904,4.448,9.904,9.904C285.312,360.112,281.376,364.304,276.4,364.8z"/>
	<path style="fill:#565656;" d="M276.512,266.992c-2.848,0-5.44-1.136-7.408-2.928l-6.688,6.688
		c-2.976-4.704-6.688-8.816-10.912-12.416l6.208-6.208c-1.296-1.68-2.112-3.744-2.112-6.032c0-5.44,4.448-9.904,9.904-9.904
		c5.104,0,9.296,3.936,9.808,8.928c0.4-0.048,0.784-0.128,1.2-0.128c6.048,0,11.008,4.944,11.008,11.008
		C287.52,262.064,282.56,266.992,276.512,266.992z"/>
</g>
<path style="opacity:0.25;fill:#BECFE4;enable-background:new    ;" d="M160,64v32h112c0-21.192,0-14.992,0-32
	C214.104,64,217.896,64,160,64z"/>
<g>
</g>
<g>
</g>
<g>
</g>
<g>
</g>
<g>
</g>
<g>
</g>
<g>
</g>
<g>
</g>
<g>
</g>
<g>
</g>
<g>
</g>
<g>
</g>
<g>
</g>
<g>
</g>
<g>
</g>
</svg>
