<?xml version="1.0" encoding="iso-8859-1"?>
<!-- Generator: Adobe Illustrator 19.0.0, SVG Export Plug-In . SVG Version: 6.00 Build 0)  -->
<svg version="1.1" id="Capa_1" xmlns="http://www.w3.org/2000/svg" xmlns:xlink="http://www.w3.org/1999/xlink" x="0px" y="0px"
	 viewBox="0 0 432 432" style="enable-background:new 0 0 432 432;" xml:space="preserve">
<path style="fill:#CDDCF0;" d="M277.328,114.688L272,112.8V56H160v56.8l-5.328,1.88C81.296,140.672,32,210.32,32,288
	c0,51.68,21.96,101.072,60.352,136H339.64C378.048,389.072,400,339.68,400,288C400,210.32,350.704,140.672,277.328,114.688z"/>
<path style="fill:#5886C5;" d="M329.912,400C358.352,371.08,376,331.512,376,288c0-16.712-2.624-32.832-7.432-48H63.432
	C58.624,255.168,56,271.288,56,288c0,43.52,17.648,83.08,46.088,112H329.912z"/>
<path style="fill:#4F7EC0;" d="M368.568,240H216v128H77.824c6.792,11.64,14.872,22.448,24.272,32h227.816
	C358.352,371.08,376,331.512,376,288C376,271.288,373.376,255.168,368.568,240z"/>
<path style="opacity:0.25;fill:#BECFE4;enable-background:new    ;" d="M152,64v32h128c0-13.904,0-26.24,0-32
	C222.104,64,209.896,64,152,64z"/>
<rect x="160" y="8" style="fill:#454545;" width="112" height="48"/>
<circle style="fill:#5E8BC8;" cx="320" cy="264" r="8"/>
<g>
	<circle style="fill:#6692CC;" cx="176" cy="264" r="8"/>
	<circle style="fill:#6692CC;" cx="128" cy="344" r="8"/>
</g>
<circle style="fill:#5E8BC8;" cx="272" cy="344" r="8"/>
<circle style="fill:#6692CC;" cx="112" cy="280" r="24"/>
<circle style="fill:#5E8BC8;" cx="320" cy="328" r="24"/>
<circle style="fill:#6692CC;" cx="216" cy="360" r="24"/>
<path style="fill:#5E8BC8;" d="M193.472,368c3.304,9.296,12.096,16,22.528,16c13.256,0,24-10.744,24-24s-10.744-24-24-24v32H193.472
	z"/>
<g style="opacity:0.1;">
	<circle style="fill:#FFFFFF;" cx="264" cy="272" r="16"/>
</g>
<g style="opacity:0.1;">
	<circle style="fill:#FFFFFF;" cx="184" cy="304" r="16"/>
</g>
<path style="fill:#BCCCE1;" d="M368.568,240C348.056,175.264,287.288,128,216,128v112H368.568z"/>
<path style="fill:#010101;" d="M280,107.152V64h32V48h-32V0H152v48h-32v16h32v43.152C77.472,133.536,24,204.432,24,288
	c0,57.424,25.344,108.816,65.296,144h253.408C382.656,396.816,408,345.424,408,288C408,204.432,354.528,133.536,280,107.152z
	 M168,16h96v32h-96V16z M157.344,122.232L168,118.456c0-23.88,0-19.616,0-54.464h96c0,34.584,0,33.896,0,54.464l10.664,3.776
	c49.072,17.376,86.816,55.2,105.128,101.768H52.216C70.52,177.432,108.264,139.608,157.344,122.232z M336.512,416H95.488
	C60.152,382.72,40,336.408,40,288c0-16.52,2.456-32.616,6.848-48h338.304c4.4,15.384,6.848,31.48,6.848,48
	C392,336.408,371.848,382.72,336.512,416z"/>
<g>
</g>
<g>
</g>
<g>
</g>
<g>
</g>
<g>
</g>
<g>
</g>
<g>
</g>
<g>
</g>
<g>
</g>
<g>
</g>
<g>
</g>
<g>
</g>
<g>
</g>
<g>
</g>
<g>
</g>
</svg>
