<?xml version="1.0" encoding="iso-8859-1"?>
<!-- Generator: Adobe Illustrator 19.0.0, SVG Export Plug-In . SVG Version: 6.00 Build 0)  -->
<svg version="1.1" id="Capa_1" xmlns="http://www.w3.org/2000/svg" xmlns:xlink="http://www.w3.org/1999/xlink" x="0px" y="0px"
	 viewBox="0 0 448 448" style="enable-background:new 0 0 448 448;" xml:space="preserve">
<path style="fill:#CDDCF0;" d="M112,440c-13.232,0-24-10.768-24-24V192c0-20.976,11.776-40.008,30.736-49.672L168,116.92V80h112
	v36.92l49.216,25.392C348.216,151.984,360,171.016,360,192v224c0,13.232-10.768,24-24,24H112z"/>
<rect x="168" y="8" style="fill:#643B20;" width="112" height="48"/>
<path style="fill:#5886C5;" d="M88,248v168c0,13.232,10.768,24,24,24h224c13.232,0,24-10.768,24-24V248H88z"/>
<g>
	<path style="fill:#010101;" d="M332.896,135.2L288,112.048c0-11.408,0-21.904,0-32.048h-16c0,15.44,0,14.808,0,41.8
		c8.432,4.352,6.92,3.568,53.632,27.656C341.896,157.744,352,174.048,352,192v48.064H96V224c0-49.952,10.104-66.256,26.44-74.576
		c53.048-27.36,41.32-21.312,53.56-27.624c0-27.08,0-26.296,0-41.8h-16c0,8.912,0,19.144,0,32.048L115.104,135.2
		C94.352,145.776,80,167.104,80,192v224c0,17.68,14.32,32,32,32h224c17.68,0,32-14.32,32-32V192
		C368,167.104,353.648,145.776,332.896,135.2z M352,416c0,8.824-7.176,16-16,16H112c-8.824,0-16-7.176-16-16V256h256V416z"/>
	<path style="fill:#010101;" d="M160,0c0,30.24,0,45.88,0,64h128c0-20.416,0-40.312,0-64H160z M272,48h-96V16h96V48z"/>
</g>
<g>
</g>
<g>
</g>
<g>
</g>
<g>
</g>
<g>
</g>
<g>
</g>
<g>
</g>
<g>
</g>
<g>
</g>
<g>
</g>
<g>
</g>
<g>
</g>
<g>
</g>
<g>
</g>
<g>
</g>
</svg>
