<?xml version="1.0" encoding="iso-8859-1"?>
<!-- Generator: Adobe Illustrator 19.0.0, SVG Export Plug-In . SVG Version: 6.00 Build 0)  -->
<svg version="1.1" id="Capa_1" xmlns="http://www.w3.org/2000/svg" xmlns:xlink="http://www.w3.org/1999/xlink" x="0px" y="0px"
	 viewBox="0 0 448 448" style="enable-background:new 0 0 448 448;" xml:space="preserve">
<polygon style="fill:#CDDBEC;" points="369.552,263 296,128.72 296,8 152,8 152,128.72 78.456,263 "/>
<path style="fill:#5886C5;" d="M368.456,261H79.552L13.936,380.792c-6.856,12.512-6.608,27.32,0.664,39.6S34.744,440,49.016,440
	h349.968c14.272,0,27.144-7.328,34.416-19.608s7.52-27.088,0.664-39.6L368.456,261z"/>
<g>
	<circle style="fill:#2C5FA4;" cx="160" cy="288" r="24"/>
	<circle style="fill:#2C5FA4;" cx="336" cy="384" r="24"/>
	<circle style="fill:#2C5FA4;" cx="208" cy="384" r="24"/>
	<circle style="fill:#2C5FA4;" cx="280" cy="312" r="16"/>
	<circle style="fill:#2C5FA4;" cx="88" cy="376" r="16"/>
</g>
<g>
	<path style="fill:#010101;" d="M336,368c8.824,0,16,7.176,16,16s-7.176,16-16,16s-16-7.176-16-16S327.176,368,336,368 M336,352
		c-17.672,0-32,14.328-32,32s14.328,32,32,32s32-14.328,32-32S353.672,352,336,352z"/>
	<path style="fill:#010101;" d="M441.08,376.944L304,126.672V16h32V0L113.144,1.136V16h32v111.808L6.92,376.944
		C-10.6,408.928,12.552,448,49.016,448h349.96C435.456,448,458.6,408.928,441.08,376.944z M160,130.768c0-44.432,0-71.272,0-114.768
		h128.952c0,43.344,0,70.568,0,114.768c12.552,22.912-0.552,0.736,67.64,125.232H91.408
		C170.304,111.952,139.904,167.448,160,130.768z M176,288c0,8.824-7.176,16-16,16s-16-7.176-16-16s7.176-16,16-16
		S176,279.176,176,288z M426.512,416.312C420.696,426.136,410.4,432,398.984,432H49.024c-11.416,0-21.712-5.864-27.528-15.688
		s-6.024-21.672-0.544-31.688C46.24,338.456,66.424,301.608,82.64,272h49.8c-2.752,4.72-4.44,10.144-4.44,16
		c0,17.672,14.328,32,32,32s32-14.328,32-32c0-5.856-1.688-11.28-4.44-16h177.792c16.256,29.672,36.392,66.44,61.688,112.624
		C432.536,394.64,432.336,406.488,426.512,416.312z"/>
	<path style="fill:#010101;" d="M280,288c-13.256,0-24,10.744-24,24s10.744,24,24,24s24-10.744,24-24S293.256,288,280,288z M280,320
		c-4.408,0-8-3.592-8-8s3.592-8,8-8s8,3.592,8,8S284.408,320,280,320z"/>
	<path style="fill:#010101;" d="M208,352c-17.672,0-32,14.328-32,32s14.328,32,32,32s32-14.328,32-32S225.672,352,208,352z M208,400
		c-8.824,0-16-7.176-16-16s7.176-16,16-16s16,7.176,16,16S216.824,400,208,400z"/>
	<path style="fill:#010101;" d="M88,352c-13.256,0-24,10.744-24,24s10.744,24,24,24s24-10.744,24-24S101.256,352,88,352z M88,384
		c-4.408,0-8-3.592-8-8s3.592-8,8-8s8,3.592,8,8S92.408,384,88,384z"/>
</g>
<g>
</g>
<g>
</g>
<g>
</g>
<g>
</g>
<g>
</g>
<g>
</g>
<g>
</g>
<g>
</g>
<g>
</g>
<g>
</g>
<g>
</g>
<g>
</g>
<g>
</g>
<g>
</g>
<g>
</g>
</svg>
