<?xml version="1.0" encoding="iso-8859-1"?>
<!-- Generator: Adobe Illustrator 19.0.0, SVG Export Plug-In . SVG Version: 6.00 Build 0)  -->
<svg version="1.1" id="Capa_1" xmlns="http://www.w3.org/2000/svg" xmlns:xlink="http://www.w3.org/1999/xlink" x="0px" y="0px"
	 viewBox="0 0 448 448" style="enable-background:new 0 0 448 448;" xml:space="preserve">
<path style="fill:#CDDCF0;" d="M72,120v280c0,22.056,17.944,40,40,40h224c22.064,0,40-17.944,40-40V120H72z"/>
<path style="fill:#5886C5;" d="M352,256H96v144c0,8.84,7.16,16,16,16h224c8.84,0,16-7.16,16-16V256z"/>
<path style="fill:#4F7EC0;" d="M224,256v128H96v16c0,8.84,7.16,16,16,16h224c8.84,0,16-7.16,16-16V256H224z"/>
<circle style="fill:#5E8BC8;" cx="328" cy="280" r="8"/>
<g>
	<circle style="fill:#6692CC;" cx="136" cy="360" r="8"/>
	<circle style="fill:#6692CC;" cx="136" cy="296" r="24"/>
</g>
<circle style="fill:#5E8BC8;" cx="312" cy="344" r="24"/>
<circle style="fill:#6692CC;" cx="224" cy="376" r="24"/>
<path style="fill:#5E8BC8;" d="M201.472,384c3.304,9.296,12.096,16,22.528,16c13.256,0,24-10.744,24-24s-10.744-24-24-24v32H201.472
	z"/>
<circle style="fill:#6692CC;" cx="272" cy="288" r="16"/>
<g style="opacity:0.1;">
	<circle style="fill:#FFFFFF;" cx="192" cy="304" r="16"/>
</g>
<g>
	<path style="fill:#010101;" d="M324.344,112l33.216-49.888C360.848,63.248,364.32,64,368,64c17.672,0,32-14.328,32-32
		S385.672,0,368,0s-32,14.328-32,32c0,8.2,3.176,15.6,8.24,21.256L305.136,112H32v16h32v272c0,26.512,21.488,48,48,48h224
		c26.512,0,48-21.488,48-48V128h32v-16H324.344z M368,16c8.824,0,16,7.176,16,16s-7.176,16-16,16s-16-7.176-16-16S359.176,16,368,16
		z M368,400c0,17.648-14.352,32-32,32H112c-17.648,0-32-14.352-32-32V128h214.48l-42.608,64H176v16h65.216l-21.304,32H176v16h33.256
		l-21.304,32H176v16h1.304l-66.56,99.968c-2.456,3.672-1.456,8.64,2.224,11.088c1.36,0.912,2.896,1.344,4.424,1.344
		c2.584,0,5.128-1.248,6.664-3.568L196.512,304H272v-16h-64.84l21.304-32H272v-16h-32.88l21.304-32H272v-16h-0.92l42.608-64H368V400
		z"/>
	<rect x="176" y="336" style="fill:#010101;" width="96" height="16"/>
	<rect x="176" y="384" style="fill:#010101;" width="96" height="16"/>
</g>
<g>
</g>
<g>
</g>
<g>
</g>
<g>
</g>
<g>
</g>
<g>
</g>
<g>
</g>
<g>
</g>
<g>
</g>
<g>
</g>
<g>
</g>
<g>
</g>
<g>
</g>
<g>
</g>
<g>
</g>
</svg>
