<?xml version="1.0" encoding="iso-8859-1"?>
<!-- Generator: Adobe Illustrator 19.0.0, SVG Export Plug-In . SVG Version: 6.00 Build 0)  -->
<svg version="1.1" id="Capa_1" xmlns="http://www.w3.org/2000/svg" xmlns:xlink="http://www.w3.org/1999/xlink" x="0px" y="0px"
	 viewBox="0 0 512 512" style="enable-background:new 0 0 512 512;" xml:space="preserve">
<rect x="312" y="48" style="fill:#FFFFFF;" width="192" height="128"/>
<path style="fill:#ADB1BA;" d="M64,192c72.36,0,16.56,0,192,0c2.736,0,5.36,0.424,8,0.808V184c0-13.232-10.768-24-24-24H80
	c-13.232,0-24,10.768-24,24v8.808C58.64,192.424,61.264,192,64,192z"/>
<path style="fill:#EDECEC;" d="M256,192c-17.36,0-32.384,0-45.568,0C233.112,176.064,248,149.76,248,120c0-48.52-39.488-88-88-88
	s-88,39.48-88,88c0,29.76,14.888,56.064,37.568,72C99.8,192,90.48,192,64,192c-30.872,0-56,25.128-56,56v88c0,17.648,14.36,32,32,32
	h32v48h63.736L136,368h48v48h64V296c0,22.056,17.936,40,40,40h24v-88C312,217.128,286.872,192,256,192z"/>
<path style="fill:#CDCCCC;" d="M256,192h-7.448L248,296c0,22.056,17.936,40,40,40h24v-88C312,217.128,286.872,192,256,192z"/>
<path style="fill:#7F8D9E;" d="M81.704,160C75.344,147.6,72,133.864,72,120s3.344-27.6,9.704-40h156.592
	c6.36,12.4,9.704,26.136,9.704,40s-3.344,27.6-9.704,40H81.704z"/>
<circle style="fill:#BFC6CF;" cx="112" cy="112" r="12"/>
<rect x="112" y="232" style="fill:#FFFFFF;" width="96" height="80"/>
<g>
	<rect x="128" y="248" style="fill:#010101;" width="64" height="16"/>
	<rect x="128" y="280" style="fill:#010101;" width="64" height="16"/>
</g>
<circle style="fill:#D64231;" cx="128" cy="336" r="8"/>
<circle style="fill:#0F5181;" cx="160" cy="336" r="8"/>
<circle style="fill:#459C60;" cx="192" cy="336" r="8"/>
<path style="fill:#E6E6E5;" d="M72,304V192c-35.344,0-64,28.656-64,64v48H72z"/>
<g>
	<path style="fill:#CDCCCC;" d="M224,192v82.984c0,33.504-12.304,65.296-40.064,93.088V416h63.856V192H224z"/>
	<path style="fill:#CDCCCC;" d="M136,368l-10.344-10.344c-5.04-5.04-13.656-1.472-13.656,5.656v52.472h24V368z"/>
	<path style="fill:#CDCCCC;" d="M40,480v-24c0-22.056,17.936-40,40-40h56v64H40z"/>
	<path style="fill:#CDCCCC;" d="M184,480v-64h56c22.064,0,40,17.944,40,40v24H184z"/>
</g>
<g>
	<rect x="416" y="72" style="fill:#D64231;" width="64" height="16"/>
	<rect x="416" y="104" style="fill:#D64231;" width="64" height="16"/>
	<rect x="336" y="136" style="fill:#D64231;" width="144" height="16"/>
</g>
<rect x="336" y="72" style="fill:#0F5181;" width="64" height="48"/>
<path style="fill:#CDCCCC;" d="M42.56,368C23.504,368,8,352.496,8,333.44V304h64v64H42.56z"/>
<path style="opacity:0.5;fill:#414F62;enable-background:new    ;" d="M237.992,160.136C244.248,148.064,248,134.504,248,120
	c0-14.456-3.728-27.968-9.944-40H200l-80.136,80.136H237.992z"/>
<path style="fill:#CDCCCC;" d="M288,352c-4.408,0-8-3.584-8-8v-48c0-4.416,3.592-8,8-8h48c4.408,0,8,3.584,8,8v48
	c0,4.416-3.592,8-8,8H288z"/>
<path style="fill:#010101;" d="M320,184c76.568,0,115.424,0,192,0c0-89.728,0-66.296,0-144c-82.68,0-143.032,0-208,0
	c0,65.568,0,109.376,0,166.072c-8.336-9.536-19.432-16.48-32-19.808V184c0-14.248-9.392-26.12-22.272-30.232
	C253.712,143.256,256,131.912,256,120c0-53.016-42.984-96-96-96s-96,42.984-96,96c0,11.912,2.288,23.256,6.272,33.768
	C57.392,157.88,48,169.752,48,184v2.264C20.448,193.4,0,218.216,0,248c0,24.544,0,20.096,0,88c0,22.088,17.912,40,40,40
	c15.176,0,17.768,0,24,0v34.936C45.4,417.552,32,435.128,32,456v32h112c0-21.88,0-86.848,0-112h32c0,26.152,0,41.944,0,51.24
	c0,8.944,0,11.88,0,11.68c0,9.04,0,24.208,0,49.08h112v-32c0-20.872-13.4-38.448-32-45.064c0-37.112,0-60.856,0-79.472
	c4.64,4.152,10,7.52,16,9.632V344c0,8.832,7.168,16,16,16h16v128h16V360h16c8.832,0,16-7.168,16-16v-48c0-8.84-7.168-16-16-16h-16
	C320,248.632,320,220.392,320,184z M320,56h176v112H320V56z M160,40c26.032,0,48.976,12.688,63.592,32H96.408
	C111.024,52.688,133.968,40,160,40z M86.784,88h146.44c4.304,9.816,6.776,20.608,6.776,32s-2.472,22.184-6.784,32H86.784
	C82.472,142.184,80,131.392,80,120S82.472,97.816,86.784,88z M223.592,168c-4.624,6.112-10.184,11.432-16.328,16
	c-31.56,0-63.072,0-94.528,0c-6.144-4.568-11.704-9.888-16.328-16H223.592z M77.272,168.552c3.272,5.536,7.104,10.696,11.376,15.448
	c-8.192,0-16.464,0-24.648,0C64,176.144,69.8,169.896,77.272,168.552z M16,248c0-26.472,21.528-48,48-48v96H16V248z M42.56,360
	C27.912,360,16,348.088,16,333.44V312h48v16H48v16h16v16H42.56z M128,472h-16v-16H96v16H80v-16H64v16H48v-16
	c0-17.648,14.352-32,32-32h48V472z M128,360c0,16.944,0,31.304,0,48H80c0-79.648,0-128.584,0-208h160c0,116.496,0,91.216,0,208h-48
	c0-16.712,0-31.048,0-48C161.232,360,158.768,360,128,360z M272,456v16h-16v-16h-16v16h-16v-16h-16v16h-16v-48h48
	C257.648,424,272,438.352,272,456z M231.352,184c4.272-4.752,8.104-9.912,11.376-15.448C250.2,169.896,256,176.144,256,184
	C247.76,184,239.584,184,231.352,184z M272,296v27.472c-9.52-5.528-16-15.688-16-27.472v-96c26.472,0,48,21.528,48,48v32h-16
	C279.168,280,272,287.16,272,296z M336,296v48h-48v-48H336z"/>
<g>
</g>
<g>
</g>
<g>
</g>
<g>
</g>
<g>
</g>
<g>
</g>
<g>
</g>
<g>
</g>
<g>
</g>
<g>
</g>
<g>
</g>
<g>
</g>
<g>
</g>
<g>
</g>
<g>
</g>
</svg>
